<svg xmlns="http://www.w3.org/2000/svg" viewBox="0 0 186.73 147.42"><defs><style>.cls-1{fill:none;stroke:#000;stroke-miterlimit:10;stroke-width:1.65px;}</style></defs><g id="Layer_2" data-name="Layer 2"><g id="Layer_1-2" data-name="Layer 1"><polyline class="cls-1" points="185.91 21.57 185.91 0.83 165.64 0.83"/><polyline class="cls-1" points="165.64 146.6 185.91 146.6 185.91 122.34"/><polyline class="cls-1" points="21.09 0.83 0.83 0.83 0.83 21.57"/><polyline class="cls-1" points="0.83 122.34 0.83 146.6 21.09 146.6"/><path class="cls-1" d="M50.41,118.88a12.3,12.3,0,0,1-4.9-.37,8.58,8.58,0,0,1,2.88-16.72,28.57,28.57,0,0,0,24-11.87,62.26,62.26,0,0,0,5.2-7.87C82.76,72.5,87.78,62.88,93,53.37,98,44.3,103.92,36,112.8,30.18c7.86-5.12,16.58-7.17,25.84-7a8.56,8.56,0,1,1-.23,17.11c-10,0-18,3.86-24.06,11.8a61.11,61.11,0,0,0-5.11,7.66C104,69.3,98.94,79,93.72,88.58a76.82,76.82,0,0,1-11.18,16C74,113.73,63.37,118.41,50.41,118.88Z"/></g></g></svg>