<svg xmlns="http://www.w3.org/2000/svg" viewBox="0 0 232.44 62.77"><g id="Layer_2" data-name="Layer 2"><g id="Layer_1-2" data-name="Layer 1"><path d="M0,31c.08-.82.16-1.64.26-2.46a31.49,31.49,0,0,1,4.28-12.5A32.8,32.8,0,0,1,32.72,0,32.84,32.84,0,0,1,61.93,17.31a30.62,30.62,0,0,1,3.61,11.4,32.21,32.21,0,0,1-8,25.66,32,32,0,0,1-10.62,8c-.36.17-.74.29-1.11.43a4.84,4.84,0,0,1,.5-.42,31,31,0,0,0,7.05-6,29.42,29.42,0,0,0,7.26-17.61,26.66,26.66,0,0,0-3.07-14.56A27.11,27.11,0,0,0,30.49,10a24,24,0,0,0-11.32,4.33,17.16,17.16,0,0,0-7.12,10.21,11.2,11.2,0,0,0,.32,6.94c1.82,4.48,5.16,7.13,10,7.49A11.21,11.21,0,0,0,32.8,33.92,21.5,21.5,0,0,1,34.3,32a11.48,11.48,0,0,1,16.61-.36,12.24,12.24,0,0,1,3.28,12.07,21.3,21.3,0,0,1-3,6.53A25.49,25.49,0,0,1,39.69,60.38a27.6,27.6,0,0,1-9,2.23,29.49,29.49,0,0,1-8.54-.5A26.45,26.45,0,0,1,8,53.89a30.48,30.48,0,0,1-7.72-17c-.1-.83-.17-1.67-.26-2.5Z"/><path d="M98.12,31.15c0,.83,0,1.62,0,2.4,0,.07-.12.16-.21.2a.92.92,0,0,1-.29,0H81.85V31.15H87.9c.35,0,.47-.09.47-.45,0-1.41,0-2.83,0-4.24,0-.31-.1-.42-.39-.5a6.76,6.76,0,0,1-4.75-4.15,6.24,6.24,0,0,1,2-7.24,7.13,7.13,0,0,1,11.09,2.72,6.38,6.38,0,0,1-2,7.29A7.7,7.7,0,0,1,91.68,26c-.26.07-.35.19-.34.44,0,1.46,0,2.92,0,4.37,0,.35.16.39.45.39h6.34ZM93.88,19.58a4.08,4.08,0,1,0-4.07,4A4.08,4.08,0,0,0,93.88,19.58Z"/><path d="M158.61,12.38V24h-18.9c0-.16,0-.32,0-.47,0-3.53,0-7.06,0-10.59,0-.41.11-.54.53-.53.8,0,1.59,0,2.44,0,0,.89,0,1.73,0,2.57,0,.42.13.52.53.52h12c.39,0,.52-.11.51-.51,0-.72,0-1.45,0-2.18,0-.29.08-.41.39-.4Zm-9.46,9.06c2,0,4.06,0,6.09,0,.33,0,.47-.08.46-.43q0-1.31,0-2.61c0-.29-.1-.4-.4-.4-4.09,0-8.19,0-12.28,0-.31,0-.38.12-.38.41,0,.84,0,1.68,0,2.53,0,.38.1.51.5.51C145.14,21.43,147.15,21.44,149.15,21.44Z"/><path d="M109.75,34.36V31.81h5.31v-7.5H118c0,.16,0,.33,0,.49,0,2.18,0,4.35,0,6.52,0,.38.11.5.49.49,1,0,2.09,0,3.13,0,.38,0,.52-.1.51-.5,0-2.16,0-4.32,0-6.47v-.53H125v6.88c0,.61,0,.61.6.61h6.18c.38,0,.54.08.51.49,0,.68,0,1.37,0,2.07Z"/><path d="M127.47,27.5v-.61c0-3.48,0-6.95,0-10.42,0-.42-.09-.56-.54-.56-4.93,0-9.87,0-14.8,0h-.59V13.34l.51,0H129.9c.42,0,.56.09.56.54q0,6.55,0,13.12c0,.45-.14.56-.56.54C129.12,27.47,128.33,27.5,127.47,27.5Z"/><path d="M137.9,29.93V27.37l.52,0h21.37c.57,0,.57,0,.57.59s0,1,0,1.55c0,.36-.11.46-.46.45h-8c-1.28,0-1.28,0-1.28,1.27v4.95h-3v-.52c0-1.74,0-3.48,0-5.23,0-.38-.12-.48-.49-.48H137.9Z"/><path d="M100.17,36.15V12.59c0-.61,0-.61.6-.61s1.29,0,1.93,0c.37,0,.46.13.46.47,0,2.06,0,4.12,0,6.17V36.15Z"/><path d="M90.36,54.38l-.13,0c-1.19,0-1.19,0-1.19-1.15v-5a1,1,0,0,0-.09-.5c0,.11-.1.21-.13.32C88.17,50,87.51,52,86.88,54a.55.55,0,0,1-.64.45c-1,0-.79.11-1.1-.81-.61-1.83-1.19-3.66-1.79-5.49a.71.71,0,0,0-.23-.35c0,.15,0,.29,0,.43,0,1.91,0,3.83,0,5.74,0,.39-.13.49-.49.48-1,0-.86.09-.86-.87,0-2.36,0-4.72,0-7.07V45.9c.68,0,1.33,0,2,0,.08,0,.19.22.23.35q.94,2.82,1.87,5.64c.06.18.13.35.23.62.11-.27.18-.45.24-.63.63-1.88,1.26-3.76,1.87-5.64a.44.44,0,0,1,.51-.37c.55,0,1.1,0,1.69,0Z"/><path d="M177,56.14l.39-1a4,4,0,0,0,2.26.63,1.93,1.93,0,0,0,1.89-1.85,2,2,0,0,0-.05-.26,2.77,2.77,0,0,1-2.94.76A2.73,2.73,0,0,1,177,53.2a3.44,3.44,0,0,1,.45-4.25c1.08-1.05,2.48-1.07,4,0l.08-.6h1.29c0,.1,0,.2,0,.29,0,1.7,0,3.4,0,5.1a3,3,0,0,1-3.05,3.13A4.31,4.31,0,0,1,177,56.14Zm.83-4.82v.26a1.86,1.86,0,0,0,1.61,1.87,1.72,1.72,0,0,0,2-1.59,3.26,3.26,0,0,0-.16-1.58,1.72,1.72,0,0,0-2.64-.69A2.1,2.1,0,0,0,177.84,51.32Z"/><path d="M202.85,54.39c-.45,0-.84,0-1.22,0-.1,0-.24-.18-.29-.3-.23-.63-.45-1.26-.66-1.9a.38.38,0,0,0-.43-.31c-.88,0-1.77,0-2.66,0a.48.48,0,0,0-.53.38c-.2.61-.43,1.21-.63,1.82a.41.41,0,0,1-.47.33h-1.09l.74-2.11c.7-2,1.41-4,2.11-6,.11-.33.26-.49.63-.45s1.11-.12,1.45.11.39.85.55,1.31l2.34,6.56C202.74,54,202.78,54.15,202.85,54.39ZM199,47.22h-.13l-1.23,3.49h2.57C199.74,49.5,199.35,48.36,199,47.22Z"/><path d="M171.39,52.78c.5,1,.63,1-.51,1.48a3.84,3.84,0,0,1-4.21-.78,3.34,3.34,0,0,1-.41-3.76,3.1,3.1,0,0,1,3.18-1.56c2,.32,2.94,1.65,2.71,3.79h-4.81C167.52,53.25,169.46,54.13,171.39,52.78Zm-.57-1.93a1.79,1.79,0,0,0-1.77-1.63,1.76,1.76,0,0,0-1.74,1.63Z"/><path d="M216.74,53.79a3.48,3.48,0,0,1-2.52.74,2.48,2.48,0,0,1-1.57-.71A1.8,1.8,0,0,1,213,51a4.29,4.29,0,0,1,2.35-.51h1.39a1.15,1.15,0,0,0-.72-1,3.68,3.68,0,0,0-2.43,0c-.18,0-.35.1-.57.16a7.23,7.23,0,0,1-.28-.82c0-.08.1-.25.19-.28a5.64,5.64,0,0,1,3.78,0,2,2,0,0,1,1.36,1.89c0,1.23,0,2.46,0,3.69,0,.25-.07.38-.34.36h-.25C216.9,54.4,216.9,54.4,216.74,53.79Zm-1-2.27v-.07c-.51.08-1,.14-1.55.26a.81.81,0,0,0-.62.82.8.8,0,0,0,.6.84,2.31,2.31,0,0,0,2.18-.35,1.08,1.08,0,0,0,.41-1.33c-.1-.16-.52-.12-.79-.17A1.61,1.61,0,0,0,215.71,51.52Z"/><path d="M147.18,45.91h5.4V47c-.17,0-.33,0-.5,0H149c-.29,0-.41.08-.4.39,0,.7,0,1.4,0,2.17h3.92v1.08l-.45,0c-1,0-2,0-3.05,0-.35,0-.43.12-.43.45,0,1,0,1.94,0,2.91,0,.28-.08.39-.36.38h-1Z"/><path d="M160.35,51.36A3.16,3.16,0,0,1,157,54.54a3.22,3.22,0,0,1-3.28-3.21,3.28,3.28,0,0,1,3.3-3.2A3.21,3.21,0,0,1,160.35,51.36Zm-1.36,0a2,2,0,0,0-1.62-2.07,1.86,1.86,0,0,0-2,1.19,2.21,2.21,0,0,0,.41,2.39,1.81,1.81,0,0,0,2,.47A2.1,2.1,0,0,0,159,51.35Z"/><path d="M134.24,54.54a3.21,3.21,0,0,1-3.31-3.15,3.27,3.27,0,0,1,3.28-3.26,3.23,3.23,0,0,1,3.3,3.23A3.15,3.15,0,0,1,134.24,54.54ZM134,53.45a2,2,0,0,0,2.13-1.78A2.13,2.13,0,0,0,135,49.41a1.75,1.75,0,0,0-2.18.57,2.17,2.17,0,0,0-.26,2.34A1.81,1.81,0,0,0,134,53.45Z"/><path d="M185.9,48.33l0,.64a1.14,1.14,0,0,0,.22-.16,2.25,2.25,0,0,1,2.33-.55A2.22,2.22,0,0,1,190,50a5,5,0,0,1,.09,1c0,1,0,1.94,0,2.92,0,.3-.07.43-.4.42-1.13,0-.95.13-1-.94,0-.91,0-1.83-.05-2.74s-.54-1.49-1.27-1.48A1.52,1.52,0,0,0,186,50.78c0,1,0,2,0,3,0,.62,0,.62-.61.62-.94,0-.76.06-.77-.77,0-1.76,0-3.51,0-5.3Z"/><path d="M95.58,54.4V48.33h1.25l0,.65a1.17,1.17,0,0,0,.22-.15,2.2,2.2,0,0,1,2.41-.54,2.08,2.08,0,0,1,1.5,1.94c.09,1.28.06,2.57.06,3.85,0,.11-.19.22-.29.32h-.09c-1,.09-1,.05-1-.89s0-1.86,0-2.78a1.37,1.37,0,0,0-1-1.46A1.41,1.41,0,0,0,97,50.59c-.08,1-.07,2.11-.08,3.17,0,.64,0,.64-.66.64Z"/><path d="M120.33,48.33l.12,0c1.24,0,1.24,0,1.7,1.09l1.25,3.08c.17-.35.3-.59.4-.85.4-1,.8-1.95,1.18-2.94a.5.5,0,0,1,.59-.39c.3,0,.6,0,1,0-.34.84-.65,1.63-1,2.41-.77,1.88-1.55,3.74-2.3,5.62-.15.38-.33.52-.72.47a6,6,0,0,0-.86,0c.29-.71.52-1.35.82-2a1.4,1.4,0,0,0,0-1.26c-.71-1.63-1.38-3.28-2.06-4.93A2.68,2.68,0,0,1,120.33,48.33Z"/><path d="M227.24,53.28l.82-.79c.21.19.4.38.61.54a1.82,1.82,0,0,0,1.73.35c.32-.09.63-.3.59-.64a.92.92,0,0,0-.46-.58c-.46-.24-1-.36-1.43-.57a5.41,5.41,0,0,1-1.16-.63,1.37,1.37,0,0,1-.18-1.86,2.82,2.82,0,0,1,4.35.12l-.83.73-.32-.29a1.46,1.46,0,0,0-1.58-.34.78.78,0,0,0-.45.49.72.72,0,0,0,.37.54c.42.22.91.31,1.35.53a6,6,0,0,1,1.4.85,1.39,1.39,0,0,1,0,1.91A3.26,3.26,0,0,1,227.24,53.28Z"/><path d="M106.48,52.56a2.19,2.19,0,0,0,1.94.88,1.32,1.32,0,0,0,.49-.13c.56-.29.59-.82,0-1.11s-1-.38-1.46-.59a5.84,5.84,0,0,1-1-.49,1.4,1.4,0,0,1-.16-2.23,2.8,2.8,0,0,1,4.16.36l-.72.66a7.72,7.72,0,0,0-1.33-.65,1.33,1.33,0,0,0-.86.14c-.43.21-.43.65,0,.91a4.46,4.46,0,0,0,.74.32,13.85,13.85,0,0,1,1.55.61,1.55,1.55,0,0,1,.08,2.82,3.26,3.26,0,0,1-4.33-.78Z"/><path d="M208.62,49.37h-1v-1h1c0-.28,0-.52,0-.75s0-.66.07-1a1.34,1.34,0,0,1,1.13-1.19,12.33,12.33,0,0,1,1.4-.13v1l-.09,0c-1,.07-1.11.16-1.11,1.19v.73h1.2v1.07H210v.81c0,1.25,0,2.51,0,3.77,0,.34-.08.48-.45.48-1,0-1,0-1-.95Z"/><path d="M138.23,49.37V48.3H139c.25,0,.34-.08.33-.32a10.28,10.28,0,0,1,0-1.11,1.42,1.42,0,0,1,1.35-1.49c.39-.06.79-.07,1.23-.11v1.06l-.11,0a1.19,1.19,0,0,0-1.1,1.77.43.43,0,0,0,.3.15c.29,0,.59,0,.92,0v1.08H140.7c0,.18,0,.33,0,.49,0,1.37,0,2.74,0,4.11,0,.34-.1.46-.43.43s-.57,0-.94,0V52.69c0-.95,0-1.91,0-2.86,0-.36-.11-.5-.46-.46S138.47,49.37,138.23,49.37Z"/><path d="M204.23,49.54c-.34-.42-1.09.27-1.07-.6,0-.22-.19-.59.26-.64.25,0,.5,0,.81,0,0-.42,0-.79,0-1.16a1.55,1.55,0,0,1,1.56-1.8c.34,0,.68,0,1-.05v1a1.26,1.26,0,0,1-.28,0c-.73,0-.9.2-1,.91-.08,1-.08,1,.92,1l.32,0v1h-1.22c0,.2,0,.36,0,.53,0,1.35,0,2.71,0,4.07,0,.34-.11.45-.44.43s-.57,0-.92,0V49.54Z"/><path d="M112.46,49.38H111.4V48.3h1V46.36h1.38c0,.5,0,1,0,1.51,0,.34.1.47.44.43s.57,0,.89,0v1.07c-.34,0-.68,0-1,0s-.31.08-.31.3c0,.95,0,1.91,0,2.87,0,.55.21.73.76.79a4.91,4.91,0,0,0,.53,0c0,.05,0,.08,0,.1,0,1.08.16,1-.91.92-1.34,0-1.8-.55-1.8-1.9Z"/><path d="M226.6,48.21V49.3l-.07.06c-1.4.19-1.84.64-1.91,2,0,.83,0,1.66,0,2.48,0,.41-.13.55-.55.54-1,0-.84.08-.85-.88,0-1.57,0-3.13,0-4.7v-.5h1.29l0,.78A2.75,2.75,0,0,1,226.6,48.21Z"/><path d="M161.76,54.4V48.33H163l.05.82a2.65,2.65,0,0,1,2.06-.94v1.12c-1.66.35-2,.75-2,2.47,0,.73,0,1.46,0,2.18,0,.32-.1.44-.42.42S162.1,54.4,161.76,54.4Z"/><path d="M116.59,54.4V48.33h1.24v.82a2.73,2.73,0,0,1,2.11-.94v1.13a1,1,0,0,1-.17,0,1.77,1.77,0,0,0-1.83,1.89c0,.87,0,1.74,0,2.61,0,.46-.15.58-.56.53C117.14,54.38,116.9,54.4,116.59,54.4Z"/><path d="M102.87,48.32h1.36c0,.13,0,.25,0,.37,0,1.76,0,3.52,0,5.27,0,.34-.11.45-.44.44-1.18,0-1,.12-1-.93,0-1.56,0-3.12,0-4.67Z"/><path d="M92.21,48.38c.06-.05.07-.06.09-.06,1.28-.14,1.28-.14,1.28,1.12v5c-.43,0-.81,0-1.19,0-.06,0-.17-.17-.17-.27C92.21,52.19,92.21,50.28,92.21,48.38Z"/><path d="M173.58,48.32h1.31a2,2,0,0,1,0,.33c0,1.77,0,3.55,0,5.32,0,.34-.11.44-.44.43-1.12,0-.91.11-.92-.89C173.57,51.8,173.58,50.08,173.58,48.32Z"/><path d="M221.26,48.3c0,.15,0,.26,0,.38,0,1.77,0,3.54,0,5.31,0,.32-.09.42-.41.41-1.14,0-1,.11-1-.94,0-1.55,0-3.11,0-4.66,0-.39.1-.56.51-.51A6.24,6.24,0,0,0,221.26,48.3Z"/><path d="M219.69,46.33a.88.88,0,0,1,.88-.86.9.9,0,0,1,.88.91.88.88,0,0,1-1.76-.05Z"/><path d="M92,46.34a.85.85,0,0,1,.85-.87.94.94,0,0,1,.91.85.88.88,0,0,1-.93.86A.81.81,0,0,1,92,46.34Z"/><path d="M104.44,46.35a.89.89,0,0,1-.94.84.83.83,0,0,1-.82-.87.87.87,0,0,1,.88-.85A.93.93,0,0,1,104.44,46.35Z"/><path d="M175.11,46.4a.84.84,0,0,1-.93.78.82.82,0,0,1-.8-.91.86.86,0,0,1,.88-.8A.87.87,0,0,1,175.11,46.4Z"/></g></g></svg>