<svg xmlns="http://www.w3.org/2000/svg" viewBox="0 0 127.28 75.83"><g data-name="Layer 2"><g data-name="Layer 1"><path d="M127.18 0v43.47H72.87a9.92 9.92 0 0 1 1.6-3.22 14 14 0 0 1 1.22-1.34 3.37 3.37 0 0 1 3.06-.72c1.38.2 2.75.49 4.13.7a6.6 6.6 0 0 0 1.54 0 2.67 2.67 0 0 0 2.22-3.66.75.75 0 0 1 .18-.93l.33-.32c.8-.78.72-1.39-.26-2l-.15-.14c.28-.19.55-.35.8-.54a.91.91 0 0 0 .33-1.31c-.65-1.54-.64-1.56.95-2.09 1-.34 1.35-1 .8-2s-1.21-1.88-1.81-2.83c-.39-.61-.77-1.23-1.11-1.87a2.79 2.79 0 0 1-.28-1.95 10.46 10.46 0 0 0-.52-5.05c-.36-1.18-.76-2.35-1.17-3.53a.73.73 0 0 1 .2-.88l.7-.62a1 1 0 0 0 0-1.51c-.38-.33-.57 0-.75.26s-.3.61-.76.35l.21-.45c-.63-.56-1.19-1.12-1.82-1.59s-1.24-.81-1.86-1.2c-.16-.1-.33-.18-.6-.33.69 0 1.25.08 1.82.09 1 0 1.3-.27 1.66-1.16A1.62 1.62 0 0 0 83 1.58C82.4 1.11 81.9.53 81.36 0ZM127.28 72.63c-.16 1.13-.86 1.33-1.89 1.21s-2 0-3-.07a.91.91 0 0 1-.5-.28 1 1 0 0 0 .76-1.13V67.9a.78.78 0 0 0-.48-.83c-.09 0-.14-.16-.21-.25s.14-.16.22-.16h4.73v1.86c-.22-.19-.42-.27-.47-.42a1 1 0 0 0-1-.65h-1.22v2.24c.89.3 1.55-.13 2.23-.84v2.43c-.19-.1-.43-.15-.44-.22 0-.48-.4-.51-.75-.54s-.68 0-1-.07v2.17a.64.64 0 0 0 .46.41c.85.06 1.72.12 2.2-.85.05-.1.28-.12.43-.17ZM49.33 24.93c.3.36.62.71.89 1.1a2.65 2.65 0 0 1 .22.69 1.67 1.67 0 0 1-.69.17c-.51-.1-.77 0-.77.58-.53-.08-1-.14-1.54-.26a.93.93 0 0 1-.48-.35 1.51 1.51 0 0 0-1.05-.69c-2.13-.29-4.26-.66-6.4-.87a5.71 5.71 0 0 0-5.29 2.24c-.11.15-.19.33-.35.6 1.42-.48 2.69-1 4-1.33s2.66-.53 4-.79v.13l-6.34 1.69V28c.66 0 1.31.06 2 .12A18.42 18.42 0 0 1 44 29.76a4.32 4.32 0 0 1 1.18.73 2.85 2.85 0 0 0 3 .65 8.76 8.76 0 0 0 3.62-1.57 1 1 0 0 1 .23-.12h.25c-.25.71-.47 1.39-.73 2s-.23.5.18 1l-.22.11c-.28.2-.78 0-.83.68 0 .32-.53.61-.88 1l.62.15-2.82 1.21v.13l.36.08-.09.11q-2.1 1.23-4.19 2.47c-.16.1-.25.31-.38.46l.09.12 1.13-.06-1.39 1a12.09 12.09 0 0 0 10.3-4.21l.14.11a4.86 4.86 0 0 1-.34 1 4.38 4.38 0 0 1-.76.91A10.88 10.88 0 0 1 46 40.51a17.32 17.32 0 0 0-5.61 1.35c-.62.29-1.22.62-1.83 1a1.85 1.85 0 0 0-.37.32l.08.13 1.63-.75a4.2 4.2 0 0 1-2.64 1.1h-2.65c-.43 0-.87-.06-1.31-.09v-.14l2.6-1.67v-.21a12 12 0 0 0-2.16 0 13.2 13.2 0 0 0-2.62.79 3.85 3.85 0 0 0-1.29.9 1 1 0 0 1-.79.35H0V.14h58.25c-.47.29-.81.54-1.18.72a8.07 8.07 0 0 0-3.86 4.35 1.09 1.09 0 0 1-.32.46A9.79 9.79 0 0 0 50.19 9c-.41.7-.75 1.43-1.16 2.13a5.33 5.33 0 0 0-.29 3.87c.33 1.76.67 3.52 1 5.28a14.36 14.36 0 0 0 .7 2.51 8 8 0 0 0 1.07 1.61c.43.59.89 1.15 1.31 1.74a1.74 1.74 0 0 1 .15.52c-.19 0-.42.17-.57.11a9.63 9.63 0 0 1-1.69-.77 10.37 10.37 0 0 1-1.27-1.13Zm-14.65 3.28h-.17l-.27.16a5.51 5.51 0 0 0-1.85 2.18c-.27.57-.19.71.47.74h1.12v.16c-.31.08-.64.13-.94.24a.88.88 0 0 0-.43.32 2.52 2.52 0 0 0-.18.72c.24.24.88-.23 1.08.29l-1 1.13A13.65 13.65 0 0 1 30.87 36a14 14 0 0 0-2.43 2.68s0 .06 0 .18c.49-.26 1-.5 1.4-.77a16.47 16.47 0 0 1 4.53-2c.38-.09 1-.12 1.17.08.34.47.67.25 1 .19.71-.13 1.41-.32 2.12-.49 1.37-.34 2.75-.64 4.11-1 .81-.23 1.58-.6 2.37-.91v-.16a17.64 17.64 0 0 0-2.29-1.26c-1.68-.66-3.41-1.2-5.12-1.79-.14-.05-.38-.09-.4-.17-.11-.45-.48-.38-.77-.45-.12 0-.3 0-.34-.08-.36-.57-1-.46-1.51-.63a5.44 5.44 0 0 0-.57-.13c.36-.29.73-.58.54-1.08Zm-11.81 7.32.08.08c.66-.72 1.28-1.49 2-2.15 1.44-1.32 2.92-2.58 4.4-3.85.23-.19.54-.45.8-.44a1.51 1.51 0 0 0 1.31-.76c.28-.34.46-.77.72-1.13a11.17 11.17 0 0 1 1.22-1.59 20.51 20.51 0 0 1 1.78-1.42c.09-.07.25-.19.3-.16.55.33.85-.17 1.38-.32a2.08 2.08 0 0 0-.39-.19 3.13 3.13 0 0 0-2.45.26 18.86 18.86 0 0 0-2.38 1.63c-1.43 1.26-2.69 2.71-4.17 3.88a10.51 10.51 0 0 0-2.91 3.52 30.31 30.31 0 0 1-1.69 2.64ZM37 37.85a5.08 5.08 0 0 0 2.49-.45 1.8 1.8 0 0 0-2.49.45ZM126.52 60.16v.66H.62v-.66ZM90.3 73.67h-2.89c.13-.17.2-.35.31-.38.32-.11.32-.35.26-.58a6.9 6.9 0 0 0-.34-1 .51.51 0 0 0-.34-.23 4.59 4.59 0 0 0-.83 0c-.29 0-.77 0-.84.16a4.67 4.67 0 0 0-.32 1.49c0 .17.24.37.37.56l-.09.16H82.4a1.52 1.52 0 0 1-1-.53c-.52-.68-.93-1.45-1.4-2.17a1.8 1.8 0 0 0-.54-.52 4.71 4.71 0 0 0 0 2.5c0 .1.21.15.31.24l.42.44h-3c.13-.19.2-.31.29-.42s.42-.38.42-.56c0-1.71.06-3.42 0-5.12 0-.25-.37-.48-.63-.78a2 2 0 0 1 .49-.13h3.11a1.52 1.52 0 0 1 1.52 1 1.77 1.77 0 0 1-.32 2 8.81 8.81 0 0 1-1 .78c.61.85 1.2 1.72 1.83 2.55.46.59.86.56 1.16-.13.62-1.42 1.18-2.87 1.76-4.3.19-.5.36-1 .53-1.51.08-.22.11-.43.44-.4s.43.07.53.36c.66 1.72 1.33 3.44 2 5.14a14.37 14.37 0 0 0 .98 1.38Zm-11-6.32v2.45a1.27 1.27 0 0 0 1.58-.57 1.37 1.37 0 0 0-.16-1.54 1.21 1.21 0 0 0-1.4-.34Zm8 3.28-.64-1.76h-.12L86 70.63ZM5.35 69.76c1 1.23 1.88 2.41 2.8 3.61a.48.48 0 0 1 .11.36c0 .06-.19.13-.29.13a2.32 2.32 0 0 1-2.49-1.17c-.42-.77-.89-1.51-1.38-2.25a4.17 4.17 0 0 0-.65-.6l-.21.16c0 .89.08 1.78.19 2.66 0 .24.31.45.49.67l.38.46H.66c.2-.22.29-.39.42-.45a.87.87 0 0 0 .55-.86v-5.79a.84.84 0 0 0-.59-.88c-.11 0-.19-.15-.41-.33a5.81 5.81 0 0 1 .77-.13c1.18 0 2.35-.06 3.52 0a2 2 0 0 1 2.23 1.6 2.4 2.4 0 0 1-1.24 2.56Zm-2-.65a1.75 1.75 0 0 0 2-.83 1.53 1.53 0 0 0-.15-1.75A1.55 1.55 0 0 0 3.32 66ZM50.68 73.49a22.63 22.63 0 0 0 2.65 1.26 5.22 5.22 0 0 0 1.72 0 2.7 2.7 0 0 1 .41.06c-.07.13-.11.33-.22.38a3.72 3.72 0 0 1-3.11.14 19 19 0 0 1-2.13-1.2 2.25 2.25 0 0 0-.75-.27 6 6 0 0 1-2.36-.46 3.57 3.57 0 0 1-1.57-3.91 3.46 3.46 0 0 1 2.77-2.87c2.31-.47 4.17.74 4.43 2.93a3.9 3.9 0 0 1-1.17 3.34c-.2.18-.35.35-.67.6Zm.52-2.65a4.08 4.08 0 0 0-.8-2.66 2 2 0 0 0-3.42.35 3.79 3.79 0 0 0 .84 4.14 1.93 1.93 0 0 0 2.72-.32 7.51 7.51 0 0 0 .66-1.51ZM58 38.48l-.81.69.08.13 1-.61.07.06c-.12.14-.23.29-.36.42-1.31 1.31-2.64 2.62-3.94 3.95a1.13 1.13 0 0 1-.89.4H41.24a25.74 25.74 0 0 1 6.21-1 11.46 11.46 0 0 0 2.46-.52c1.53-.35 2.55-1.52 3.9-2.14a7 7 0 0 1 .82-.22 1.9 1.9 0 0 0 .62-.31 4.29 4.29 0 0 1 2.12-1.12 2.5 2.5 0 0 1 .66.09ZM33.19 69.91a1.8 1.8 0 0 1 1.34 1.41 1.84 1.84 0 0 1-1.65 2.33c-1.19.08-2.38 0-3.57.06-.11 0-.21-.12-.31-.18.07-.07.13-.18.22-.22a.66.66 0 0 0 .44-.72v-3.47c0-.78.28-1.68-.69-2.15.05-.08.07-.13.09-.13 1.41 0 2.83-.09 4.23 0a1.46 1.46 0 0 1 .76 2.35 5.75 5.75 0 0 1-.86.72Zm-2.14.37v1.94c0 .63.34 1 1.1.84a1.22 1.22 0 0 0 1-1.24c-.02-1.12-.76-1.67-2.1-1.54Zm0-.75c.72 0 1.37 0 1.79-.59a.93.93 0 0 0 0-1.12c-.45-.58-1.1-.51-1.76-.49ZM70.18 65.28h5.88v2l-.1.1c-.11-.11-.28-.19-.33-.32a1.16 1.16 0 0 0-1.06-.85l-1.73-.13v2.83a7.46 7.46 0 0 0 1.34 0c.27 0 .5-.31.74-.49l.57-.43v2.61c-.2-.08-.46-.11-.51-.22-.33-.75-1-.72-1.62-.75h-.66c.08 1.06.14 2.1.25 3.13 0 .18.27.33.42.48s.24.23.46.44h-3.67c.19-.21.27-.35.39-.41a1.1 1.1 0 0 0 .6-1.11v-5.53c0-.43-.11-.78-.59-.92-.14-.05-.22-.23-.38-.43ZM92.4 68.62v2.9c0 .35 0 .69.06 1s.07.65.47.78c.09 0 .13.22.23.39h-2.32c.1-.16.14-.36.24-.39a.64.64 0 0 0 .46-.71c0-1.56.08-3.11 0-4.66 0-.37-.35-.74-.57-1.18.23 0 .57 0 .9-.05a1.35 1.35 0 0 1 1.38.65c1 1.26 2 2.46 3 3.69a.65.65 0 0 1 .06.21l.2-.11c-.06-1.2-.08-2.4-.19-3.59 0-.25-.36-.47-.61-.77H98l.09.1c-.87.33-.74 1-.75 1.7v5.06a.88.88 0 0 1-1.1-.34c-1.14-1.45-2.3-2.89-3.45-4.34ZM13.34 68.91v2.35c-.17-.08-.4-.12-.41-.19-.07-.54-.49-.53-.86-.57s-.62 0-1 0v2.14c0 .32.22.47.55.47.85 0 1.69 0 2.13-.9 0-.09.21-.12.32-.18l.18.1c-.16.54-.31 1.09-.5 1.63 0 .08-.23.13-.35.12q-2.1 0-4.2-.06a.62.62 0 0 1-.37-.29.87.87 0 0 0 .73-1v-4.51c0-.4-.07-.76-.53-.9-.08 0-.12-.19-.22-.37h5v1.82c-.21-.16-.43-.24-.47-.38a1 1 0 0 0-1-.68h-1.21v2.35a5.63 5.63 0 0 0 1.25-.15 4.35 4.35 0 0 0 .96-.8Z"/><path d="M53.41 66.71h2.82c0 .13 0 .23-.06.24-.59.25-.65.74-.64 1.28v3.37A1.31 1.31 0 0 0 56.8 73a1.42 1.42 0 0 0 1.73-1.18 38.17 38.17 0 0 0 0-4.28c0-.26-.36-.51-.59-.82h2.16v.12c-.66.38-.56 1-.58 1.63 0 1-.11 1.94-.08 2.9a2.35 2.35 0 0 1-1.84 2.31 3.7 3.7 0 0 1-2.23-.12 2 2 0 0 1-1.24-1.87c0-1.11-.05-2.21-.08-3.31 0-.56 0-1.13-.61-1.43.03.05.02-.08-.03-.24ZM21.18 66.76h2.75a1.15 1.15 0 0 1 0 .17c-.73.28-.68.88-.67 1.49v3.16c0 1.05.47 1.42 1.24 1.42.93.09 1.7-.32 1.77-1.18a36.11 36.11 0 0 0 0-4.29c0-.24-.37-.47-.63-.77h2.2c-.79.53-.55 1.34-.6 2a17.18 17.18 0 0 0 0 2.27 2.48 2.48 0 0 1-2.85 2.73 2.86 2.86 0 0 1-1.61-.47A1.74 1.74 0 0 1 22 72c0-1-.05-2-.09-2.94 0-.79.19-1.66-.77-2.15ZM65.56 71.14a4.45 4.45 0 0 0-1-.69 4.82 4.82 0 0 0-1.22-.11v2.17a.62.62 0 0 0 .41.42c.86.07 1.76.18 2.23-.84 0-.1.25-.12.38-.17 0 .12.07.23.1.35a.38.38 0 0 1 0 .1c-.25 1.31-.26 1.32-1.58 1.33h-3.7c.09-.19.12-.33.17-.34.45-.1.55-.43.55-.82 0-1.52.06-3 0-4.55 0-.31-.3-.62-.47-.92a5 5 0 0 0-.3-.44H66v1.77a5 5 0 0 0-1.12-.92 5.84 5.84 0 0 0-1.54-.17l-.11 2.42a6.28 6.28 0 0 0 1.32-.18 4.42 4.42 0 0 0 1-.7ZM112.19 73.78h-2.91c.08-.18.1-.37.17-.39.44-.09.35-.41.32-.69-.16-1.18-.26-1.26-1.43-1.26a1.45 1.45 0 0 0-.51 0 1 1 0 0 0-.46.35 4 4 0 0 0-.24.79c-.07.33-.22.69.29.83 0 0 0 .18.09.32h-2.17a2.76 2.76 0 0 1 .19-.42 5.62 5.62 0 0 0 .6-.87c.71-1.78 1.37-3.57 2.06-5.35.08-.2 0-.5.43-.46a.63.63 0 0 1 .65.44c.65 1.74 1.32 3.48 2 5.2a7.33 7.33 0 0 0 .72 1.09c.08.11.12.24.2.42Zm-3-3.14-.62-1.75h-.12l-.68 1.75ZM104.68 71.72a2.29 2.29 0 0 1 0 1.6c0 .16-.42.28-.67.34-.46.1-.94.15-1.57.24.19.18.27.29.37.32.36.11.58.33.53.71a.86.86 0 0 1-.66.83 3.25 3.25 0 0 1-.82.07c-.1 0-.2-.13-.29-.2a1.65 1.65 0 0 1 .29-.3s.16 0 .2 0a5.45 5.45 0 0 0 .46-.38l-.45-.21a1.25 1.25 0 0 0-.21 0 3.51 3.51 0 0 1 .08-.42c.1-.3 0-.44-.31-.51a3.38 3.38 0 0 1-2.68-3.6 3.34 3.34 0 0 1 3.52-3.57 15.54 15.54 0 0 1 1.8.12c.36 0 .58.18.54.59s0 .68 0 1.15c-.2-.11-.42-.15-.5-.27a1.82 1.82 0 0 0-2-.86 2 2 0 0 0-1.71 1.24 3.65 3.65 0 0 0 .71 3.89 1.88 1.88 0 0 0 3-.33c.11-.17.21-.25.37-.45ZM18.11 73.75h-3l.31-.44c.14-.2.4-.41.4-.62.06-1.55.08-3.1.08-4.65a.91.91 0 0 0-.49-1c-.11-.06-.17-.26-.33-.53 1.42.07 2.69.08 4 .19a1.66 1.66 0 0 1 1.36 1.51 1.9 1.9 0 0 1-1.13 2.06 11.25 11.25 0 0 1-1.52.39l-.21-.48a8.55 8.55 0 0 0 1.28-1c.17-.18.14-.6.1-.89-.11-.69-.62-1-1.57-1 0 0-.06.06-.06.08 0 1.71 0 3.42.06 5.12 0 .37.05.73.52.84.09.04.09.22.2.42ZM120.53 68.44a1.83 1.83 0 0 1-.41-.37 1.45 1.45 0 0 0-1.17-.83 1 1 0 0 0-1 .65.86.86 0 0 0 .34 1.09c.57.44 1.21.81 1.74 1.29a2.77 2.77 0 0 1 .83 1.19 1.75 1.75 0 0 1-1.35 2.21 4.18 4.18 0 0 1-2.5 0 .57.57 0 0 1-.32-.34c-.09-.43-.12-.88-.18-1.32l.12-.11a1.62 1.62 0 0 1 .43.34 1.7 1.7 0 0 0 1.71.93 1 1 0 0 0 .89-.66.89.89 0 0 0-.36-1c-.52-.4-1.07-.76-1.6-1.14a2.11 2.11 0 0 1-1-1.78 1.83 1.83 0 0 1 1.82-1.91 14.55 14.55 0 0 1 1.74.13.41.41 0 0 1 .42.52v1ZM43.14 49.17h4.64c-.2.48 0 1.07-.55 1.47-.21-.83-.26-.87-1.06-.94-1.32-.1-1.32-.1-1.59 1.18-.08.38-.15.77-.23 1.17a2 2 0 0 0 2.32-.76l.14.14-.4 1.94-.13.09c-.3-.94-1-.77-1.67-.75a.58.58 0 0 0-.39.34c-.14.55-.22 1.11-.34 1.67s.11.67.53.67c.83 0 1.69 0 2.19-.83a.54.54 0 0 1 .16-.14h.1a1.2 1.2 0 0 1-1 1.54h-3.52a3.09 3.09 0 0 1-.48-.07c1.44-1.35 1.19-3.22 1.64-4.86v-.21c.14-.61.31-1.2-.36-1.65ZM38.71 67c-.92.19-.91.79-.9 1.45v3.93c0 .47.2.68.64.67.75 0 1.5 0 1.88-.88 0-.1.2-.13.31-.2 0 .13.1.26.14.39s0 .1 0 .15c-.24 1.27-.26 1.28-1.54 1.28h-3.5l-.07-.15c.06-.09.11-.23.2-.26a.88.88 0 0 0 .56-1v-3.73c0-.69.14-1.45-.79-1.74a5.12 5.12 0 0 1 3.07.09ZM49.32 55c.46.17.93.31 1.39.49s1 .28 1.11.93a1.68 1.68 0 0 1-.89 1.69 3 3 0 0 1-2.18.4 1.36 1.36 0 0 1-1.18-1.14 1.31 1.31 0 0 1 .78-1.43l.32-.17c-.5-.47-.5-.47.35-1.29a5.37 5.37 0 0 1-.21-.56 1.65 1.65 0 0 1 1.43-2 7.87 7.87 0 0 1 1.19 0c.36 0 .72.06 1.08.1.12.56-.33.4-.62.53.26 1.95-1.06 2.25-2.65 2.27Zm.17 3.16a1.77 1.77 0 0 0 1.51-.8.54.54 0 0 0-.24-.89 6.78 6.78 0 0 0-1-.34 1 1 0 0 0-1.13.5 1.26 1.26 0 0 0-.18.89c.1.48.55.55 1.04.59ZM51.24 53c-.22-.28-.37-.64-.61-.71a.9.9 0 0 0-.76.33 1.43 1.43 0 0 0-.27.9.88.88 0 0 0 .43.62.68.68 0 0 0 .63-.15 5.51 5.51 0 0 0 .58-.99ZM84.52 19.6l.23.33c0 .05-.06.11-.1.12-.65.23-1.07.6-.93 1.36a.36.36 0 0 1 0 .1c-.06.4 0 1-.22 1.13a4.08 4.08 0 0 1-1.5.14.55.55 0 0 1-.14 0 1.44 1.44 0 0 0 .53-.24c.21-.21.29-.47-.14-.61-.58-.19-1.14-.44-1.71-.66a23.33 23.33 0 0 0 3.08-2.14c.14-.1.31-.41.26-.5a.87.87 0 0 0-.54-.31 7.28 7.28 0 0 0-3.43.28 6.66 6.66 0 0 1 2.64-1 4.68 4.68 0 0 1 2.35.15c.51.16.63.41.37.89a10.88 10.88 0 0 1-.75.96ZM88.72 51.35l-.4 2h-.14a1.28 1.28 0 0 0-1.58-.72.61.61 0 0 0-.43.38 8.83 8.83 0 0 0-.29 1.83 3.08 3.08 0 0 0 .38 1H83.9c.94-.46 1-1.39 1.14-2.2.22-1.07.4-2.14.56-3.21.07-.46.12-1-.53-1.15l.08-.12h4.47c-.12.48 0 1-.49 1.5-.29-1-.64-1.13-2.27-.92-.13.64-.27 1.3-.41 2-.06.27 0 .39.31.39.62 0 1.28.11 1.6-.64 0-.05.1-.09.16-.12a.76.76 0 0 1 .2-.02ZM112.7 66.74h2.72v.19c-.63.37-.63 1-.63 1.58 0 1.38 0 2.76.07 4.14 0 .23.24.45.37.67a2.46 2.46 0 0 0 .17.27c-.09.06-.17.16-.26.16h-2.63c.16-.2.22-.37.33-.41a.63.63 0 0 0 .47-.7v-4.81c0-.26-.27-.51-.44-.75a1.15 1.15 0 0 0-.27-.21ZM10.68 52.13a12.37 12.37 0 0 1 1.56-.32c.63 0 .93.27.92.91a3.5 3.5 0 0 1-1.48 3 2.78 2.78 0 0 1-2.39.19c-.11 0-.24-.35-.2-.51.35-1.74.73-3.47 1.1-5.2 0-.18 0-.37.06-.58h-.5v-.14c.36-.54.94-.35 1.58-.5Zm-.12 3.48a2.14 2.14 0 0 0 .69-.29 3.34 3.34 0 0 0 1-2.52.43.43 0 0 0-.61-.43 1.65 1.65 0 0 0-1.28 1.16c-.11.47-.23.94-.33 1.41s-.03.62.53.67ZM44.27 73.75h-2.9c.11-.19.16-.39.25-.41.42-.1.5-.42.5-.75 0-1.56.05-3.13 0-4.7 0-.25-.28-.51-.45-.75a3.12 3.12 0 0 0-.38-.39h3c-.06.14-.07.26-.12.28-.55.2-.6.66-.6 1.14v4c0 .47-.07 1 .58 1.24.05 0 .06.17.12.34ZM5 54.35c-.13.35-.28.7-.38 1.06s-.52.44-.9.45c-1 0-2 0-2.95.07a3.15 3.15 0 0 1-.78-.1c1-.42 1-1.34 1.16-2.14s.41-1.92.55-2.89c.08-.57.3-1.22-.53-1.58l.11-.09H3.8c-1.16.61-1 1.81-1.27 2.79s-.35 1.83-.53 2.74c-.08.44.12.66.55.67.83 0 1.65 0 2.06-.92 0-.07.13-.1.19-.14ZM111.11 55.91l.65-3.46-.76-.16c.65-.71 1.48-.66 1.72 0 .61-.17 1.21-.39 1.83-.51s.75 0 .63.67c-.15.78-.32 1.55-.48 2.33a2.73 2.73 0 0 0 0 .5l.73.16c-.26.41-1.35.72-1.63.48a.47.47 0 0 1-.08-.41c.15-.83.33-1.65.49-2.48a5 5 0 0 0 .07-.65 1.79 1.79 0 0 0-1.68 1.11 16.76 16.76 0 0 0-.4 1.7c-.2.75-.29.81-1.09.72ZM97.83 52l-.61 3.34.78.12c-.12.48-.53.44-.84.52s-.66 0-.68-.43c-.5.17-.94.36-1.4.48-1 .28-1.57-.22-1.39-1.24a4.08 4.08 0 0 1 1.38-2.43 2.81 2.81 0 0 1 2.76-.36Zm-3 3.56a1.65 1.65 0 0 0 1.55-.93c.18-.53.32-1.08.45-1.64s-.18-.8-.72-.61a1.22 1.22 0 0 0-.47.3 3.83 3.83 0 0 0-1 2.37c-.1.16.09.37.15.49ZM56.74 55.45h.74c-.17.48-.58.44-.88.53a.48.48 0 0 1-.69-.41 13 13 0 0 1-1.77.48c-.72.11-1-.22-1-.94a3.25 3.25 0 0 1 3.75-3.22c.43.07.48.24.38.62-.2.77-.35 1.55-.51 2.33a3.1 3.1 0 0 0-.02.61ZM54 54.84c0 .66.22.81.72.63a1.6 1.6 0 0 0 1.23-1.31c.05-.43.2-.84.29-1.26s0-.62-.5-.56a1.09 1.09 0 0 0-.6.26A3.81 3.81 0 0 0 54 54.84ZM14.19 54.65a3.1 3.1 0 0 1 1.12-2.32 2.69 2.69 0 0 1 1-.49 1 1 0 0 1 1 1.8 9.71 9.71 0 0 1-1.6.64c-.19.07-.51.17-.52.27a1.26 1.26 0 0 0 .2.81c.08.11.43.09.65 0s.43-.22.65-.29.23 0 .35 0c0 .1-.05.24-.13.29a2.79 2.79 0 0 1-2 .56c-.51.08-.73-.36-.72-1.27Zm.91-.91c.85.1 1.5-.21 1.65-.74a.72.72 0 0 0-.14-.63.62.62 0 0 0-.61.09 12.23 12.23 0 0 0-.9 1.28ZM28.71 55.14c-.1.12-.17.31-.3.36a8.71 8.71 0 0 1-1.55.49c-.55.1-.86-.21-1-.77a3.32 3.32 0 0 1 1.81-3.31 1.35 1.35 0 0 1 1.56.29 1.26 1.26 0 0 1-.43 1.47 7 7 0 0 1-1.51.58 1.85 1.85 0 0 1-.53 0v.39c0 .86.3 1 1.08.68l.74-.34Zm-1.79-1.45.16.14a1.61 1.61 0 0 0 1.35-.67c.16-.23.23-.46 0-.69a.43.43 0 0 0-.68 0c-.31.4-.56.82-.83 1.22ZM123 54.81a2.9 2.9 0 0 1 2-3 1 1 0 0 1 1 1.72 2.28 2.28 0 0 1-1.67.71c-.18 0-.51.12-.51.19a2.19 2.19 0 0 0 .17.88c.05.1.38.13.55.09a8 8 0 0 0 .81-.32c.09 0 .21 0 .31.06s0 .25-.11.3a2.77 2.77 0 0 1-2.06.48c-.21 0-.41-.37-.52-.61a1.28 1.28 0 0 1 .03-.5Zm.81-1c.74-.08 1.26-.17 1.6-.66.18-.26.28-.55 0-.78a.5.5 0 0 0-.77.13c-.26.42-.49.84-.8 1.36ZM105.22 55.11c-.06.11-.1.27-.2.33a3 3 0 0 1-1.84.58c-.47 0-.65-.35-.74-.73a3.23 3.23 0 0 1 2-3.44 1.38 1.38 0 0 1 1.38.33 1.41 1.41 0 0 1-.29 1.39 2.43 2.43 0 0 1-1.68.69h-.49a.79.79 0 0 0 0 .13c0 1.17.27 1.29 1.34.79l.47-.2Zm-1.9-1.37c.84.09 1.48-.18 1.64-.67a.75.75 0 0 0-.12-.67c-.08-.1-.5 0-.62.07a15.19 15.19 0 0 0-.9 1.27ZM59.59 55.43h.76c-.15.46-.54.44-.84.51-.89.19-1 .09-.8-.79.33-1.6.69-3.2 1-4.79 0-.22.07-.44.11-.7l-.67-.08c.17-.17.26-.35.38-.38.4-.09.8-.12 1.2-.17a7.31 7.31 0 0 1-.08 1c-.33 1.6-.68 3.19-1 4.79-.03.18-.04.38-.06.61ZM70.81 55.15c-.1.12-.18.32-.31.36a8.77 8.77 0 0 1-1.78.45c-.21 0-.57-.28-.65-.51A3.19 3.19 0 0 1 69.71 52a1.27 1.27 0 0 1 1.67.33 1.35 1.35 0 0 1-.69 1.57 5 5 0 0 1-1.37.37c-.39.07-.55.22-.47.62.12.56.31.73.74.6a5.65 5.65 0 0 0 .57-.23l.52-.2Zm-1.88-1.44.16.13c.58-.09 1.18-.15 1.43-.79a.75.75 0 0 0-.15-.66.6.6 0 0 0-.61.08 11.64 11.64 0 0 0-.83 1.24ZM91.55 52.16a5.47 5.47 0 0 1 1.17-.25c.35 0 .57.22.37.63-.07.12-.07.27-.14.38a2.2 2.2 0 0 1-.3.31c-.06-.1-.12-.21-.19-.31s-.19-.37-.28-.37a.65.65 0 0 0-.47.25c-.26.63-.47 1.28-.7 1.93 0 .12-.05.27-.08.4-.19 1-.1.79-1.08.84l.67-3.46h-.64c0-.39.23-.56 1-.64.2-.02.42.13.67.29ZM22.73 55.9l.7-3.42-.49-.09-.09-.12c.78-.28 1-1.16 1.63-1.6l.15.13-.11 1.09a1.34 1.34 0 0 1 .42 0 1.42 1.42 0 0 1 .29.21c-.1.09-.21.26-.29.24-.64-.1-.69.35-.77.78-.14.74-.27 1.48-.41 2.28l.72-.09c.06.53-.79.83-1.75.59ZM106.93 55.9c.19-1 .37-1.89.57-2.81.1-.42.06-.69-.45-.66 0 0-.11-.07-.16-.11.52-.61 1.3-.67 1.67-.15.55-.14 1.06-.8 1.72-.07l-.5 1.19-.2-.35-.28-.55c-.19.13-.48.21-.57.38a9.36 9.36 0 0 0-.52 1.4c-.1.34-.15.7-.22 1.06-.16.77-.22.77-1.06.67ZM21.48 53.13l-.48-.67c-.23.2-.58.37-.67.62a17.39 17.39 0 0 0-.6 2.14c-.17.75-.16.76-1 .74l.67-3.49h-.78a1.37 1.37 0 0 1 1.2-.64c.17 0 .38.19.57.3v.13c.22-.12.44-.26.67-.36s.94 0 1 .23a1.27 1.27 0 0 1-.58 1ZM120.45 52.49l-.43-.11 1.45-1.67.17.1c0 .18 0 .36-.06.53s-.06.34-.09.54l.75.1.07.16c-.16.09-.33.27-.49.26-.41 0-.52.15-.57.52-.09.67-.24 1.32-.35 2a4.41 4.41 0 0 0 0 .54l.69-.09v.25c-.52.13-1 .26-1.56.35a1.15 1.15 0 0 1-.13-.51c.15-.83.34-1.66.51-2.48 0-.17.02-.32.04-.49ZM65.49 52.48l-.46-.1 1.49-1.67.15.11-.17 1.08.73.12c.09.4-.14.47-.43.43s-.52.12-.57.47c-.1.71-.24 1.42-.36 2.14a3.2 3.2 0 0 0 0 .48l.68-.11v.26c-.16.27-1.33.49-1.53.26a.84.84 0 0 1-.07-.61c.16-.86.35-1.72.53-2.58a.91.91 0 0 1 .01-.28ZM101 51.94l.68.08.08.14c-.15.09-.3.27-.44.26-.42 0-.55.19-.61.53-.12.62-.25 1.25-.36 1.88s-.1.65.52.57h.24c-.1.14-.14.26-.23.32a1.14 1.14 0 0 1-.43.17c-1 .26-1.16.09-1-.87s.34-1.69.51-2.54l-.35-.16c.24-.29.48-.59.73-.88s.21-.78.83-.67ZM37.12 52.86a1.2 1.2 0 0 1-1.18 1.29 1.26 1.26 0 1 1 0-2.51 1.16 1.16 0 0 1 1.18 1.22ZM78 51.68a1.24 1.24 0 0 1 1.2 1.23 1.29 1.29 0 0 1-1.25 1.26 1.25 1.25 0 0 1-1.23-1.27A1.13 1.13 0 0 1 78 51.68ZM6.59 52.43h-.55c.16-.34 1.22-.75 1.41-.53a.7.7 0 0 1 .09.52c-.13.73-.3 1.45-.45 2.18 0 .25-.09.5-.15.8h.93c-.17.19-.24.36-.34.38-.48.1-1 .15-1.45.21a8.62 8.62 0 0 1 0-1.14c.11-.63.28-1.24.42-1.87a3.77 3.77 0 0 0 .09-.55ZM117.63 55.42h.78c-.15.42-1.26.79-1.56.52a.5.5 0 0 1-.07-.37c.16-.81.34-1.61.51-2.42 0-.23 0-.46.08-.73l-.65.06c.06-.14.1-.25.15-.35s.09-.06.14-.07l1.25-.2c0 .36 0 .72-.09 1.07-.17.81-.35 1.61-.54 2.49ZM62.41 52.42l-.69.07a1.85 1.85 0 0 1 .2-.36.77.77 0 0 1 .33-.15c.34 0 .7-.08 1-.12a7.47 7.47 0 0 1-.09.94c-.17.85-.36 1.7-.56 2.59h.78c-.21.4-1.25.75-1.53.5a.72.72 0 0 1-.1-.59c.15-.79.35-1.58.53-2.37a5.35 5.35 0 0 0 .13-.51ZM10.83 65.81l.6-.93c.53-.8.67-.83 1.7-.41-.58.52-1.11 1-1.68 1.47-.09.06-.36-.07-.62-.13ZM124.78 51a10 10 0 0 1 1.22-1.32c.22-.16.64-.06 1-.07v.19c-.55.45-1.08.91-1.66 1.32-.03.07-.28-.07-.56-.12ZM72.11 49.77c-.59.47-1.09.91-1.64 1.29-.11.09-.36 0-.7 0 .5-.55.85-1 1.23-1.36s.68-.06 1.11.07ZM30 49.81c-.54.44-1.07.88-1.62 1.31-.07.05-.26.05-.3 0a.36.36 0 0 1-.06-.34 5.82 5.82 0 0 1 1-1.15c.2-.15.62 0 .94 0ZM47.34 47l-1.64 1.26c-.09.06-.24 0-.36 0s-.05-.28 0-.36a5 5 0 0 1 1-1.09c.22-.15.63 0 1 0ZM118.83 50.05c-.08.54-.3.77-.67.77a.5.5 0 0 1-.55-.55c0-.33.38-.69.69-.6s.39.33.53.38ZM8 50c0 .55-.19.81-.58.83a.5.5 0 0 1-.58-.51c0-.34.33-.72.64-.65s.43.25.52.33ZM62.68 50.51c0-.56.17-.83.56-.84a.52.52 0 0 1 .59.52.65.65 0 0 1-.69.62 1.36 1.36 0 0 1-.46-.3Z"/></g></g></svg>