<svg xmlns="http://www.w3.org/2000/svg" viewBox="0 0 232.44 62.77"><g data-name="Layer 2"><g data-name="Layer 1"><path d="M0 31c.08-.82.16-1.64.26-2.46a31.49 31.49 0 0 1 4.28-12.5A32.8 32.8 0 0 1 32.72 0a32.84 32.84 0 0 1 29.21 17.31 30.62 30.62 0 0 1 3.61 11.4 32.21 32.21 0 0 1-8 25.66 32 32 0 0 1-10.62 8c-.36.17-.74.29-1.11.43a4.84 4.84 0 0 1 .5-.42 31 31 0 0 0 7.05-6 29.42 29.42 0 0 0 7.26-17.61 26.66 26.66 0 0 0-3.07-14.56A27.11 27.11 0 0 0 30.49 10a24 24 0 0 0-11.32 4.33 17.16 17.16 0 0 0-7.12 10.21 11.2 11.2 0 0 0 .32 6.94c1.82 4.48 5.16 7.13 10 7.49a11.21 11.21 0 0 0 10.43-5.05A21.5 21.5 0 0 1 34.3 32a11.48 11.48 0 0 1 16.61-.36 12.24 12.24 0 0 1 3.28 12.07 21.3 21.3 0 0 1-3 6.53 25.49 25.49 0 0 1-11.5 10.14 27.6 27.6 0 0 1-9 2.23 29.49 29.49 0 0 1-8.54-.5A26.45 26.45 0 0 1 8 53.89a30.48 30.48 0 0 1-7.72-17c-.1-.83-.17-1.67-.26-2.5ZM98.12 31.15v2.4c0 .07-.12.16-.21.2a.92.92 0 0 1-.29 0H81.85v-2.6h6.05c.35 0 .47-.09.47-.45v-4.24c0-.31-.1-.42-.39-.5a6.76 6.76 0 0 1-4.75-4.15 6.24 6.24 0 0 1 2-7.24 7.13 7.13 0 0 1 11.09 2.72 6.38 6.38 0 0 1-2 7.29A7.7 7.7 0 0 1 91.68 26c-.26.07-.35.19-.34.44v4.37c0 .35.16.39.45.39h6.34Zm-4.24-11.57a4.08 4.08 0 1 0-4.07 4 4.08 4.08 0 0 0 4.07-4ZM158.61 12.38V24h-18.9V12.94c0-.41.11-.54.53-.53h2.44v2.57c0 .42.13.52.53.52h12c.39 0 .52-.11.51-.51v-2.18c0-.29.08-.41.39-.4Zm-9.46 9.06h6.09c.33 0 .47-.08.46-.43V18.4c0-.29-.1-.4-.4-.4h-12.28c-.31 0-.38.12-.38.41v2.53c0 .38.1.51.5.51 2-.02 4.01-.01 6.01-.01ZM109.75 34.36v-2.55h5.31v-7.5H118v7.01c0 .38.11.5.49.49h3.13c.38 0 .52-.1.51-.5v-7H125v6.88c0 .61 0 .61.6.61h6.18c.38 0 .54.08.51.49v2.07Z"/><path d="M127.47 27.5V16.47c0-.42-.09-.56-.54-.56h-15.39v-2.57H129.9c.42 0 .56.09.56.54V27c0 .45-.14.56-.56.54-.78-.07-1.57-.04-2.43-.04ZM137.9 29.93v-2.56h21.89c.57 0 .57 0 .57.59v1.55c0 .36-.11.46-.46.45h-8c-1.28 0-1.28 0-1.28 1.27v4.95h-3v-5.75c0-.38-.12-.48-.49-.48h-9.23ZM100.17 36.15V12.59c0-.61 0-.61.6-.61h1.93c.37 0 .46.13.46.47V36.15ZM90.36 54.38h-.13c-1.19 0-1.19 0-1.19-1.15v-5a1 1 0 0 0-.09-.5c0 .11-.1.21-.13.32C88.17 50 87.51 52 86.88 54a.55.55 0 0 1-.64.45c-1 0-.79.11-1.1-.81-.61-1.83-1.19-3.66-1.79-5.49a.71.71 0 0 0-.23-.35v6.17c0 .39-.13.49-.49.48-1 0-.86.09-.86-.87V45.9h2c.08 0 .19.22.23.35q.94 2.82 1.87 5.64c.06.18.13.35.23.62.11-.27.18-.45.24-.63.63-1.88 1.26-3.76 1.87-5.64a.44.44 0 0 1 .51-.37h1.69ZM177 56.14l.39-1a4 4 0 0 0 2.26.63 1.93 1.93 0 0 0 1.89-1.85 2 2 0 0 0-.05-.26 2.77 2.77 0 0 1-2.94.76A2.73 2.73 0 0 1 177 53.2a3.44 3.44 0 0 1 .45-4.25c1.08-1.05 2.48-1.07 4 0l.08-.6h1.29v5.39a3 3 0 0 1-3.05 3.13 4.31 4.31 0 0 1-2.77-.73Zm.83-4.82v.26a1.86 1.86 0 0 0 1.61 1.87 1.72 1.72 0 0 0 2-1.59 3.26 3.26 0 0 0-.16-1.58 1.72 1.72 0 0 0-2.64-.69 2.1 2.1 0 0 0-.8 1.73ZM202.85 54.39h-1.22c-.1 0-.24-.18-.29-.3-.23-.63-.45-1.26-.66-1.9a.38.38 0 0 0-.43-.31h-2.66a.48.48 0 0 0-.53.38c-.2.61-.43 1.21-.63 1.82a.41.41 0 0 1-.47.33h-1.09l.74-2.11c.7-2 1.41-4 2.11-6 .11-.33.26-.49.63-.45s1.11-.12 1.45.11.39.85.55 1.31l2.34 6.56c.05.17.09.32.16.56ZM199 47.22h-.13l-1.23 3.49h2.57c-.47-1.21-.86-2.35-1.21-3.49ZM171.39 52.78c.5 1 .63 1-.51 1.48a3.84 3.84 0 0 1-4.21-.78 3.34 3.34 0 0 1-.41-3.76 3.1 3.1 0 0 1 3.18-1.56c2 .32 2.94 1.65 2.71 3.79h-4.81c.18 1.3 2.12 2.18 4.05.83Zm-.57-1.93a1.79 1.79 0 0 0-1.77-1.63 1.76 1.76 0 0 0-1.74 1.63ZM216.74 53.79a3.48 3.48 0 0 1-2.52.74 2.48 2.48 0 0 1-1.57-.71A1.8 1.8 0 0 1 213 51a4.29 4.29 0 0 1 2.35-.51h1.39a1.15 1.15 0 0 0-.72-1 3.68 3.68 0 0 0-2.43 0c-.18 0-.35.1-.57.16a7.23 7.23 0 0 1-.28-.82c0-.08.1-.25.19-.28a5.64 5.64 0 0 1 3.78 0 2 2 0 0 1 1.36 1.89v3.69c0 .25-.07.38-.34.36h-.25c-.58-.09-.58-.09-.74-.7Zm-1-2.27v-.07c-.51.08-1 .14-1.55.26a.81.81 0 0 0-.62.82.8.8 0 0 0 .6.84 2.31 2.31 0 0 0 2.18-.35 1.08 1.08 0 0 0 .41-1.33c-.1-.16-.52-.12-.79-.17a1.61 1.61 0 0 0-.26 0ZM147.18 45.91h5.4V47H149c-.29 0-.41.08-.4.39v2.17h3.92v1.08h-3.5c-.35 0-.43.12-.43.45V54c0 .28-.08.39-.36.38h-1ZM160.35 51.36a3.16 3.16 0 0 1-3.35 3.18 3.22 3.22 0 0 1-3.28-3.21 3.28 3.28 0 0 1 3.3-3.2 3.21 3.21 0 0 1 3.33 3.23Zm-1.36 0a2 2 0 0 0-1.62-2.07 1.86 1.86 0 0 0-2 1.19 2.21 2.21 0 0 0 .41 2.39 1.81 1.81 0 0 0 2 .47 2.1 2.1 0 0 0 1.22-1.99ZM134.24 54.54a3.21 3.21 0 0 1-3.31-3.15 3.27 3.27 0 0 1 3.28-3.26 3.23 3.23 0 0 1 3.3 3.23 3.15 3.15 0 0 1-3.27 3.18Zm-.24-1.09a2 2 0 0 0 2.13-1.78 2.13 2.13 0 0 0-1.13-2.26 1.75 1.75 0 0 0-2.18.57 2.17 2.17 0 0 0-.26 2.34 1.81 1.81 0 0 0 1.44 1.13ZM185.9 48.33v.64a1.14 1.14 0 0 0 .22-.16 2.25 2.25 0 0 1 2.33-.55A2.22 2.22 0 0 1 190 50a5 5 0 0 1 .09 1v2.92c0 .3-.07.43-.4.42-1.13 0-.95.13-1-.94 0-.91 0-1.83-.05-2.74s-.54-1.49-1.27-1.48a1.52 1.52 0 0 0-1.37 1.6v3c0 .62 0 .62-.61.62-.94 0-.76.06-.77-.77v-5.3ZM95.58 54.4v-6.07h1.25v.65a1.17 1.17 0 0 0 .22-.15 2.2 2.2 0 0 1 2.41-.54 2.08 2.08 0 0 1 1.5 1.94c.09 1.28.06 2.57.06 3.85 0 .11-.19.22-.29.32h-.09c-1 .09-1 .05-1-.89v-2.78a1.37 1.37 0 0 0-1-1.46A1.41 1.41 0 0 0 97 50.59c-.08 1-.07 2.11-.08 3.17 0 .64 0 .64-.66.64ZM120.33 48.33h.12c1.24 0 1.24 0 1.7 1.09l1.25 3.08c.17-.35.3-.59.4-.85.4-1 .8-1.95 1.18-2.94a.5.5 0 0 1 .59-.39h1c-.34.84-.65 1.63-1 2.41-.77 1.88-1.55 3.74-2.3 5.62-.15.38-.33.52-.72.47a6 6 0 0 0-.86 0c.29-.71.52-1.35.82-2a1.4 1.4 0 0 0 0-1.26c-.71-1.63-1.38-3.28-2.06-4.93a2.68 2.68 0 0 1-.12-.3ZM227.24 53.28l.82-.79c.21.19.4.38.61.54a1.82 1.82 0 0 0 1.73.35c.32-.09.63-.3.59-.64a.92.92 0 0 0-.46-.58c-.46-.24-1-.36-1.43-.57a5.41 5.41 0 0 1-1.16-.63 1.37 1.37 0 0 1-.18-1.86 2.82 2.82 0 0 1 4.35.12l-.83.73-.32-.29a1.46 1.46 0 0 0-1.58-.34.78.78 0 0 0-.45.49.72.72 0 0 0 .37.54c.42.22.91.31 1.35.53a6 6 0 0 1 1.4.85 1.39 1.39 0 0 1 0 1.91 3.26 3.26 0 0 1-4.81-.36ZM106.48 52.56a2.19 2.19 0 0 0 1.94.88 1.32 1.32 0 0 0 .49-.13c.56-.29.59-.82 0-1.11s-1-.38-1.46-.59a5.84 5.84 0 0 1-1-.49 1.4 1.4 0 0 1-.16-2.23 2.8 2.8 0 0 1 4.16.36l-.72.66a7.72 7.72 0 0 0-1.33-.65 1.33 1.33 0 0 0-.86.14c-.43.21-.43.65 0 .91a4.46 4.46 0 0 0 .74.32 13.85 13.85 0 0 1 1.55.61 1.55 1.55 0 0 1 .08 2.82 3.26 3.26 0 0 1-4.33-.78ZM208.62 49.37h-1v-1h1v-.75c0-.23 0-.66.07-1a1.34 1.34 0 0 1 1.13-1.19 12.33 12.33 0 0 1 1.4-.13v1h-.09c-1 .07-1.11.16-1.11 1.19v.73h1.2v1.07H210v4.58c0 .34-.08.48-.45.48-1 0-1 0-1-.95ZM138.23 49.37V48.3h.77c.25 0 .34-.08.33-.32a10.28 10.28 0 0 1 0-1.11 1.42 1.42 0 0 1 1.35-1.49c.39-.06.79-.07 1.23-.11v1.06h-.11a1.19 1.19 0 0 0-1.1 1.77.43.43 0 0 0 .3.15h.92v1.08h-1.22V53.93c0 .34-.1.46-.43.43s-.57 0-.94 0V49.83c0-.36-.11-.5-.46-.46s-.4 0-.64 0ZM204.23 49.54c-.34-.42-1.09.27-1.07-.6 0-.22-.19-.59.26-.64h.81v-1.16a1.55 1.55 0 0 1 1.56-1.8c.34 0 .68 0 1-.05v1a1.26 1.26 0 0 1-.28 0c-.73 0-.9.2-1 .91-.08 1-.08 1 .92 1h.32v1h-1.22V53.8c0 .34-.11.45-.44.43s-.57 0-.92 0v-4.69ZM112.46 49.38h-1.06V48.3h1v-1.94h1.38v1.51c0 .34.1.47.44.43s.57 0 .89 0v1.07h-1c-.32 0-.31.08-.31.3v2.87c0 .55.21.73.76.79a4.91 4.91 0 0 0 .53 0v.1c0 1.08.16 1-.91.92-1.34 0-1.8-.55-1.8-1.9ZM226.6 48.21v1.09l-.07.06c-1.4.19-1.84.64-1.91 2v2.48c0 .41-.13.55-.55.54-1 0-.84.08-.85-.88v-5.2h1.29v.78a2.75 2.75 0 0 1 2.09-.87ZM161.76 54.4v-6.07H163l.05.82a2.65 2.65 0 0 1 2.06-.94v1.12c-1.66.35-2 .75-2 2.47v2.18c0 .32-.1.44-.42.42s-.59 0-.93 0ZM116.59 54.4v-6.07h1.24v.82a2.73 2.73 0 0 1 2.11-.94v1.13a1 1 0 0 1-.17 0 1.77 1.77 0 0 0-1.83 1.89v2.61c0 .46-.15.58-.56.53-.24.01-.48.03-.79.03ZM102.87 48.32h1.36v5.64c0 .34-.11.45-.44.44-1.18 0-1 .12-1-.93V48.8ZM92.21 48.38c.06-.05.07-.06.09-.06 1.28-.14 1.28-.14 1.28 1.12v5h-1.19c-.06 0-.17-.17-.17-.27-.01-1.98-.01-3.89-.01-5.79ZM173.58 48.32h1.31a2 2 0 0 1 0 .33v5.32c0 .34-.11.44-.44.43-1.12 0-.91.11-.92-.89.04-1.71.05-3.43.05-5.19ZM221.26 48.3V53.99c0 .32-.09.42-.41.41-1.14 0-1 .11-1-.94V48.8c0-.39.1-.56.51-.51a6.24 6.24 0 0 0 .9.01ZM219.69 46.33a.88.88 0 0 1 .88-.86.9.9 0 0 1 .88.91.88.88 0 0 1-1.76-.05ZM92 46.34a.85.85 0 0 1 .85-.87.94.94 0 0 1 .91.85.88.88 0 0 1-.93.86.81.81 0 0 1-.83-.84ZM104.44 46.35a.89.89 0 0 1-.94.84.83.83 0 0 1-.82-.87.87.87 0 0 1 .88-.85.93.93 0 0 1 .88.88ZM175.11 46.4a.84.84 0 0 1-.93.78.82.82 0 0 1-.8-.91.86.86 0 0 1 .88-.8.87.87 0 0 1 .85.93Z"/></g></g></svg>