<svg xmlns="http://www.w3.org/2000/svg" viewBox="0 0 233.86 62.4"><g data-name="Layer 2"><g data-name="Layer 1"><path d="M75.12 31.93v4.37h-2.85V23.89h5.4a6.87 6.87 0 0 1 2.74.51 4 4 0 0 1 1.82 1.45 3.73 3.73 0 0 1 .64 2.15 3.4 3.4 0 0 1-1.39 2.87 6.21 6.21 0 0 1-3.86 1.06Zm0-2.07h2.55a2.7 2.7 0 0 0 1.73-.48A1.68 1.68 0 0 0 80 28a1.92 1.92 0 0 0-.6-1.47 2.35 2.35 0 0 0-1.66-.53h-2.62ZM91.92 33.74h-5L86 36.3h-3l5.15-12.41h2.65l5.12 12.41h-3Zm-4.23-2.07h3.46L89.41 27ZM103.31 31.76H101v4.54h-2.82V23.89h5.14a6.27 6.27 0 0 1 3.79 1 3.26 3.26 0 0 1 1.33 2.77 3.52 3.52 0 0 1-.62 2.12 4.12 4.12 0 0 1-1.82 1.33l3 5.07v.12h-3.1ZM101 29.68h2.3a2.54 2.54 0 0 0 1.67-.49 1.65 1.65 0 0 0 .59-1.35 1.79 1.79 0 0 0-.56-1.38 2.51 2.51 0 0 0-1.71-.5H101ZM119.39 33.74h-5l-1 2.56h-3l5.15-12.41h2.64l5.18 12.41h-3Zm-4.23-2.07h3.46L116.88 27ZM128.5 34.25h6.06v2h-8.91V23.89h2.85ZM145.49 30.92H140v3.33h6.42v2h-9.27V23.89h9.25V26H140v3h5.47ZM160 34.73a5 5 0 0 1-2.14 1.27 9.88 9.88 0 0 1-3.12.46 6.77 6.77 0 0 1-3.15-.7 5 5 0 0 1-2.09-2 6.6 6.6 0 0 1-.75-3.15v-.84a7 7 0 0 1 .69-3.22 4.83 4.83 0 0 1 2-2.08 6.34 6.34 0 0 1 3.08-.72 6.23 6.23 0 0 1 3.85 1.05 4.32 4.32 0 0 1 1.63 3.03h-2.78a2.34 2.34 0 0 0-.84-1.56 3 3 0 0 0-1.79-.49 2.62 2.62 0 0 0-2.21 1 4.69 4.69 0 0 0-.77 2.92v.79a4.55 4.55 0 0 0 .82 3 3 3 0 0 0 2.43 1 3.41 3.41 0 0 0 2.29-.62v-2.21h-2.6v-1.88H160ZM171.14 33.74h-5l-.95 2.56h-3l5.16-12.41H170l5.18 12.41h-3Zm-4.23-2.07h3.46L168.63 27ZM180.25 34.25h6.05v2h-8.91V23.89h2.86ZM196.08 33a1.27 1.27 0 0 0-.57-1.11 7.9 7.9 0 0 0-2-.82 14.75 14.75 0 0 1-2.35-.85c-1.57-.76-2.35-1.78-2.35-3.07a2.82 2.82 0 0 1 .63-1.8 4.15 4.15 0 0 1 1.81-1.23 7.69 7.69 0 0 1 2.66-.44 6.83 6.83 0 0 1 2.64.48 4 4 0 0 1 1.8 1.36 3.27 3.27 0 0 1 .65 2h-2.86a1.61 1.61 0 0 0-.59-1.32 2.64 2.64 0 0 0-1.69-.48 2.87 2.87 0 0 0-1.62.4 1.2 1.2 0 0 0-.58 1.05 1.17 1.17 0 0 0 .68 1 8.27 8.27 0 0 0 2 .77 8.86 8.86 0 0 1 3.54 1.63A3.08 3.08 0 0 1 199 33a2.89 2.89 0 0 1-1.36 2.52 6.48 6.48 0 0 1-3.66.92A7.73 7.73 0 0 1 191 36a4.51 4.51 0 0 1-2-1.44 3.4 3.4 0 0 1-.69-2.11h2.86c0 1.37.91 2.05 2.74 2.05a2.86 2.86 0 0 0 1.58-.37 1.17 1.17 0 0 0 .59-1.13ZM201.81 35.09a1.21 1.21 0 0 1 .44-1 1.91 1.91 0 0 1 2.23 0 1.21 1.21 0 0 1 .44 1 1.16 1.16 0 0 1-.44.94 1.91 1.91 0 0 1-2.23 0 1.16 1.16 0 0 1-.44-.94ZM219 23.89v8.17a4 4 0 0 1-1.42 3.23 7 7 0 0 1-7.73 0 3.93 3.93 0 0 1-1.46-3.16v-8.24h2.86v8.19a2.21 2.21 0 0 0 .65 1.78 2.67 2.67 0 0 0 1.8.56c1.6 0 2.42-.76 2.44-2.27v-8.26ZM229.87 33.74h-5l-1 2.56h-3L226 23.89h2.64l5.18 12.41h-3Zm-4.23-2.07h3.46L227.36 27ZM17.4 34.51H0v-.09l10.77-9.66L0 15.09V15h17.35V.03h20.51A15 15 0 0 1 52.6 11.77a13.8 13.8 0 0 1 .34 3v5a15 15 0 0 1-11.86 14.41 14.24 14.24 0 0 1-2.53.32h-.29v27.86h-.08L27.82 49.71 17.49 62.38h-.09Z"/></g></g></svg>