<svg xmlns="http://www.w3.org/2000/svg" viewBox="0 0 234.9 84.21"><g id="Layer_2" data-name="Layer 2"><g id="Layer_1-2" data-name="Layer 1"><path d="M93,36c-1.26,2.36-.78,3.94,1.65,5a14.28,14.28,0,0,0,9.77.4,3.9,3.9,0,0,0,1.85-1.14,2.23,2.23,0,0,0-.18-3.37A6,6,0,0,0,104,35.75a39.18,39.18,0,0,0-5.85-1.39,30.35,30.35,0,0,1-4.68-1.21,7.48,7.48,0,0,1-2.68-1.47A3.5,3.5,0,0,1,90,27a11.72,11.72,0,0,1,2.42-2.68c0-.53-.46-.67-.76-.87-3.45-2.37-3.54-7.83-.89-10.7a11.47,11.47,0,0,1,6.39-3.33,20.82,20.82,0,0,1,7.59.08,23,23,0,0,0,6.42-.25c1.37-.17,1.45-.14,1.52,1.17,0,.25,0,.49,0,.74,0,1.61-.08,1.65-1.64,1.46l-2.62-.32a1,1,0,0,0-.28.06.46.46,0,0,0,.25.48,6.94,6.94,0,0,1-.15,10.87,9.15,9.15,0,0,1-3.74,1.95,16.48,16.48,0,0,1-8.84-.12,1.57,1.57,0,0,0-2.22.92c-.38.91-.08,1.57,1,2.11a14.83,14.83,0,0,0,4.24,1.11,76.57,76.57,0,0,1,8.23,1.44,13.58,13.58,0,0,1,2.33.87A5.6,5.6,0,0,1,111,41.12,10,10,0,0,1,106.63,44a22.13,22.13,0,0,1-13.84,0,8.43,8.43,0,0,1-3.27-1.9,4.35,4.35,0,0,1-.79-5.5,2.17,2.17,0,0,1,2.67-1.28A2.5,2.5,0,0,1,93,36Zm7.53-13a4.56,4.56,0,0,0,3.84-1.47c1.71-2,1.22-6.55-.91-8.13a5,5,0,0,0-1.28-.7,7.63,7.63,0,0,0-3.76-.29A4,4,0,0,0,95,15.06C93.6,18.78,95.47,23.17,100.49,23Z"/><path d="M117.42,81a.6.6,0,0,0-.53.32c-2.64,3.49-9.09,3.6-12.3,1a9.7,9.7,0,0,1-3.24-5,16.63,16.63,0,0,1,0-9.43A12.42,12.42,0,0,1,114.68,59a9.9,9.9,0,0,1,2.23.37,1.26,1.26,0,0,0,.26-1c0-3,.06-6.07-.21-9.1-.12-1.38-.1-1.4,1.23-1.58a19.45,19.45,0,0,1,3.66-.09c1.07.06,1.14.13,1.13,1.24,0,2.69-.07,5.38-.1,8.07-.09,7.93-.19,15.87.1,23.79,0,.74.12,1.47.2,2.2,0,.48-.12.73-.62.77-1.27.09-2.54.19-3.81.32-.73.07-1.08-.16-1.07-1A5.2,5.2,0,0,0,117.42,81Zm-.25-10.34V65.35c0-2.33-.12-2.48-2.44-2.93a.58.58,0,0,0-.14,0c-3.83-.33-5.81.61-7,4a16.54,16.54,0,0,0-.58,8,9.2,9.2,0,0,0,1.32,3.55,5,5,0,0,0,7.93.93,2.88,2.88,0,0,0,.91-2.22C117.14,74.65,117.17,72.64,117.17,70.63Z"/><path d="M79.81,62.34c1-.76,1.67-1.41,2.46-2a10.35,10.35,0,0,1,8.38-1.64,5.53,5.53,0,0,1,3.87,3.1,12.31,12.31,0,0,1,1.15,4.81c.23,3.57,0,7.14.16,10.71.07,1.81.09,3.62.23,5.42.06.68-.11.88-.74.87-1.52,0-3,0-4.55,0-1,0-1-.05-.93-1,.21-2.39.29-4.78.28-7.18,0-2.2,0-4.41,0-6.61A11.93,11.93,0,0,0,89.43,65,3.37,3.37,0,0,0,86,62.51a6.82,6.82,0,0,0-5.52,2.56,2.27,2.27,0,0,0-.55,1.62c0,5.09,0,10.18.33,15.26,0,.14,0,.29,0,.44,0,1.24,0,1.25-1.14,1.26s-2.64,0-4,0-1.27,0-1.18-1.22c.29-3.61.3-7.23.3-10.85s0-7-.32-10.56c-.12-1.31-.41-1.58,1.37-1.67,1.17-.06,2.33-.23,3.5-.34,1-.09,1-.08,1,.91C79.82,60.65,79.81,61.38,79.81,62.34Z"/><path d="M139.24,21.82A15.29,15.29,0,0,1,138.08,28c-2.19,5-6.71,7.38-12.15,6.8-6.25-.68-10-4.77-10.51-11.22a16.8,16.8,0,0,1,.4-5.1c1.41-6.06,7-10.14,13.88-9.23,5.85.77,8.79,5,9.4,10.4C139.18,20.36,139.19,21,139.24,21.82Zm-6,1c0-.78.05-1.57,0-2.34A12,12,0,0,0,132,16c-1.86-3.61-5.6-3.6-8.05-2.45a3.08,3.08,0,0,0-1.37,1.28,8.59,8.59,0,0,0-1,2.72,18.27,18.27,0,0,0,.28,8A8.44,8.44,0,0,0,123.47,29a5.68,5.68,0,0,0,5.34,2.08c2.28-.29,3.5-1.71,4.08-3.85A13.29,13.29,0,0,0,133.28,22.85Z"/><path d="M29.91,58.49c5.77,0,9.6,3.08,10.89,8.73a16.82,16.82,0,0,1-.09,8.28c-1.5,5.57-6,9.11-12.3,8.68-4.24-.29-7.62-2.1-9.59-6a14.83,14.83,0,0,1-1.29-8.59,12.31,12.31,0,0,1,3.19-7.25A11.91,11.91,0,0,1,29.91,58.49Zm-6.6,11.86c0,.78,0,1.56.12,2.34a10.5,10.5,0,0,0,1.93,5.45,5.63,5.63,0,0,0,5.28,2.24,4.5,4.5,0,0,0,4.15-3.57,16.71,16.71,0,0,0-.39-10.64,5.49,5.49,0,0,0-6.14-3.91A4.47,4.47,0,0,0,24,65.43,14.18,14.18,0,0,0,23.31,70.35Z"/><path d="M218.7,62.38l1.36-1.18a10.74,10.74,0,0,1,9-2.56,5.86,5.86,0,0,1,4.78,4.26,12.16,12.16,0,0,1,.71,3.88c0,1.81.07,3.62,0,5.43-.06,3.42.16,6.84.28,10.26,0,1.15,0,1.17-1.08,1.18-1.27,0-2.54,0-3.81,0s-1.36,0-1.24-1.42c.38-4.3.25-8.6.25-12.91a14.22,14.22,0,0,0-.59-4,3.45,3.45,0,0,0-3.66-2.76,6.84,6.84,0,0,0-5.57,2.78,2.25,2.25,0,0,0-.44,1.5c-.09,5.19.22,10.37.35,15.55,0,1.3.08,1.3-1.21,1.31s-2.64,0-4,0c-1,0-1.11,0-1-1.08.24-3.56.31-7.13.31-10.7,0-3.77,0-7.53-.36-11.29-.1-1.09-.08-1.09,1-1.2l3.79-.36c1-.1,1-.09,1,1C218.71,60.71,218.7,61.42,218.7,62.38Z"/><path d="M142.94,80.57c-.58.07-.77.51-1.08.8a9.87,9.87,0,0,1-8.07,2.69A6.86,6.86,0,0,1,132,71a22.49,22.49,0,0,1,7-1.57c1-.09,1.95-.17,2.92-.22.51,0,.83-.17.82-.77a10.15,10.15,0,0,0-.55-3.46,3.52,3.52,0,0,0-3.05-2.39,13.43,13.43,0,0,0-6.74,1,5.15,5.15,0,0,1-.54.23c-.57.16-1.11.9-1.72.35a3.31,3.31,0,0,1-.86-2.29c0-.48.34-.65.71-.82a24.61,24.61,0,0,1,7.54-2.26,17.29,17.29,0,0,1,4.82,0,6.47,6.47,0,0,1,5.74,4.93,10.15,10.15,0,0,1,.46,2.74c.11,5.52-.09,11.05.37,16.57,0,.42-.06.64-.51.67-1.37.1-2.73.2-4.09.33-.69.07-1-.19-1-.88A10.79,10.79,0,0,0,142.94,80.57Zm-3.37-8.11c-.89.05-1.68.05-2.45.15a4.2,4.2,0,0,0-2.31.84c-2,1.78-1.13,5.89,1.38,6.75a6,6,0,0,0,6.3-2.39,1.69,1.69,0,0,0,.23-.84c0-1.17,0-2.34,0-3.52a.73.73,0,0,0-.77-.85Z"/><path d="M78.12,31.15a3.66,3.66,0,0,0-1.3,1,9.71,9.71,0,0,1-8,2.57A6.45,6.45,0,0,1,63,27.49a6.55,6.55,0,0,1,4.46-6A25,25,0,0,1,74.58,20c.44,0,.88,0,1.32-.07,1.95-.24,2,.33,1.84-2.14a8.88,8.88,0,0,0-.26-1.44,3.74,3.74,0,0,0-3.67-3.19,14.7,14.7,0,0,0-7.12,1.42c-.49.2-1,.82-1.58.15a3.34,3.34,0,0,1-.73-2.46c0-.26.29-.38.51-.49,4.26-2,8.66-3.11,13.38-2.13A6,6,0,0,1,83,14a10.76,10.76,0,0,1,.61,3.31c0,1.52,0,3,0,4.55q-.08,5.81.32,11.6c0,.74-.15.92-.84.95-1.13,0-2.24.2-3.37.26-1.3.07-1.3,0-1.42-1.2C78.28,32.75,78.2,32,78.12,31.15Zm-3.24-8a23.34,23.34,0,0,0-3.45.3,2.8,2.8,0,0,0-2.34,2.13c-.71,2.55.17,5,2.82,5.47a6.24,6.24,0,0,0,5.7-2.6,1.69,1.69,0,0,0,.21-.84c0-1.13,0-2.25,0-3.38a.82.82,0,0,0-.84-1C76.2,23.21,75.42,23.18,74.88,23.15Z"/><path d="M207.78,71.08a16.47,16.47,0,0,1-1.41,6.72,11.14,11.14,0,0,1-11,6.4,11.4,11.4,0,0,1-8.19-3.37,10.59,10.59,0,0,1-2.58-4.39,16,16,0,0,1,.06-9.82,11.88,11.88,0,0,1,11-8.12,11.75,11.75,0,0,1,7.27,1.79c2.82,1.93,4.1,4.78,4.61,8C207.67,69.29,207.71,70.27,207.78,71.08Zm-5.84,1.15c0-.29,0-.59,0-.88-.21-2.35-.47-4.67-1.82-6.71-1.48-2.23-3.64-2.65-6.06-2.31-2.26.32-3.34,1.86-3.83,3.91a18.1,18.1,0,0,0,.33,9.41,7.88,7.88,0,0,0,.71,1.6,5.7,5.7,0,0,0,4.95,3.17A4.6,4.6,0,0,0,201,77.67,15.17,15.17,0,0,0,201.94,72.23Z"/><path d="M61.84,80.23a3.6,3.6,0,0,0-1.16,1,9.48,9.48,0,0,1-9.42,2.66,5.87,5.87,0,0,1-4.56-4.5,15.86,15.86,0,0,1-.63-4.49c0-2.45,0-4.9,0-7.35,0-2.69-.2-5.36-.41-8.21H51.4c.58,0,.53.45.51.85,0,1.56-.09,3.13-.16,4.69a73.61,73.61,0,0,0,.16,10.71,7.72,7.72,0,0,0,.34,1.57,3.88,3.88,0,0,0,4.83,3,7.21,7.21,0,0,0,4.1-2.41,2.14,2.14,0,0,0,.44-1.64c0-5,.06-10.08-.3-15.12-.12-1.72-.15-1.62,1.5-1.62h4c.6,0,.85.12.81.83-.3,4.89-.52,9.78-.35,14.68a74.65,74.65,0,0,0,.43,7.47c.18,1.3.14,1.3-1.14,1.41-1.12.09-2.24.18-3.36.3-.66.07-1-.12-1-.85C62.12,82.24,62,81.29,61.84,80.23Z"/><path d="M174.26,10c2.19,0,4.28,0,6.38,0,.69,0,.76.44.9.92.93,3.39,2,6.74,3.12,10.08.74,2.23,1.48,4.45,2.23,6.68a2.54,2.54,0,0,0,.64,1.33,13.46,13.46,0,0,0,1.14-3.18c1.34-4.74,2.62-9.51,3.7-14.33.06-.29.16-.57.21-.85.07-.48.35-.65.81-.65h4.32a1.42,1.42,0,0,1-.12,1.25c-2.67,7.51-5.09,15.1-7.89,22.56a74,74,0,0,1-4.13,9.23l-.35.64c-1.05,1.8-1.63,1.94-3.34.76a5.46,5.46,0,0,1-1-.88c-.81-.91-.79-1.16,0-2.06a25.26,25.26,0,0,0,4.34-7.06c-1.43.18-1.7-.87-2.1-1.86Q179.09,22.4,175,12.19A7.83,7.83,0,0,1,174.26,10Z"/><path d="M3.74,74.27c0-3.91,0-7,0-10.07,0-1,0-1-1.08-1.07-.58,0-1.17,0-1.76,0a.69.69,0,0,1-.63-.27,5,5,0,0,1,0-3.16c.19-.32.48-.31.77-.31.58,0,1.17,0,1.76,0s.86-.25.87-.87c0-1,.07-2,.11-2.93a12.21,12.21,0,0,1,.54-2.88,6.76,6.76,0,0,1,6.17-5.23,13.46,13.46,0,0,1,6.75,1c1,.4,1,.55.66,1.56a6.2,6.2,0,0,1-1.25,2.13.69.69,0,0,1-1,.16A7.66,7.66,0,0,0,13,51.26,2.51,2.51,0,0,0,9.79,53,17.37,17.37,0,0,0,9,58.66c0,.61.36.71.85.7,1.28,0,2.55,0,3.82,0,1.08,0,1.24.17,1.39,1.23a3.89,3.89,0,0,1,0,.59c0,1.66-.27,1.93-1.93,1.93-1,0-2,0-3.08,0-.54,0-.82.21-.79.78,0,.34,0,.69,0,1-.06,5.92.07,11.83.34,17.75,0,.94,0,1-1,1q-2.13,0-4.26,0c-1,0-1,0-1-1.11C3.54,79.51,3.66,76.48,3.74,74.27Z"/><path d="M53.4,14.48c-1.84,0-3.45-.08-5,0-2.49.16-5,.05-7.47.38-.49.07-.74-.11-.74-.62,0-1.18,0-2.35,0-3.53,0-.48.21-.72.7-.7.29,0,.59,0,.88,0H58.45c.5,0,.71.24.71.71,0,1,0,2,0,2.94a1.81,1.81,0,0,1-.65,1.26L46.57,28.66a2.77,2.77,0,0,0-.85,1.27c1.39,0,2.69.08,4,0,2.78-.2,5.57-.15,8.34-.48,1.07-.12,1.09-.06,1.11,1s0,2.15,0,3.23c0,.47-.21.73-.7.71H40.71c-.5,0-.7-.24-.7-.72V30.56c0-.55.39-.87.71-1.24L50.83,17.51Z"/><path d="M155.38,71.55c0-2.44,0-4.89,0-7.34,0-1,0-1.1-1.08-1.07s-1.37.16-1.51-1.52a11.43,11.43,0,0,1,0-1.17,1.44,1.44,0,0,1,1-1.45,7.61,7.61,0,0,0,3.83-3.49c.21-.38.39-.81.93-.83a7.27,7.27,0,0,1,2.33.09c.32.1.29.48.29.77,0,1,0,2,0,2.94,0,.62.25.89.87.88,1.18,0,2.35,0,3.53,0,1,0,1.06.11,1.14,1.1v.14c.11,2.31-.08,2.51-2.35,2.51-.78,0-1.57,0-2.35,0s-.85.28-.84.89c.1,4.5-.21,9,.22,13.5a8.94,8.94,0,0,0,.21,1.15,1.84,1.84,0,0,0,1.87,1.56c.88,0,1.76,0,2.64,0,.57,0,.78.24.86.76a1.66,1.66,0,0,1-1.29,2.12,17.33,17.33,0,0,1-6.06.92,3.85,3.85,0,0,1-4.06-3.64,46.92,46.92,0,0,1-.21-6.6C155.37,73,155.38,72.29,155.38,71.55Z"/><path d="M150.12,13.24A14.38,14.38,0,0,1,152,11.09a6.35,6.35,0,0,1,5.63-1.35c.54.11.91.36.8,1a9.52,9.52,0,0,1-1.13,3.46.68.68,0,0,1-1.07.29,4,4,0,0,0-4.85.7,3.11,3.11,0,0,0-1.15,2.56c0,4.69-.05,9.39.33,14.07,0,.2,0,.39,0,.59.18,2,.18,2-1.86,2-1.13,0-2.25,0-3.37,0-.79,0-1-.27-1-1,.08-2.1.1-4.2.16-6.3q.15-6.46-.13-12.91c-.05-1-.14-2.05-.24-3.07-.05-.58.09-.93.75-1,1.41-.11,2.82-.28,4.23-.37,1-.06,1,0,1,1A9.84,9.84,0,0,0,150.12,13.24Z"/><path d="M163.23,22.08a77,77,0,0,0-.49-11.26c-.09-.59.11-.8.68-.8,1.76,0,3.52,0,5.28,0,1,0,1.06,0,1,1.12A100.59,100.59,0,0,0,169.29,22a98.73,98.73,0,0,0,.4,11.41c.08.67,0,1-.78,1-1.8,0-3.61,0-5.42,0-.63,0-.85-.21-.76-.87A83.65,83.65,0,0,0,163.23,22.08Z"/><path d="M175.35,59.36h2.35c1.11,0,1.15.06,1,1.2-.11.92-.22,1.84-.25,2.77q-.26,8.31,0,16.6c0,1,.17,1.94.27,2.92.06.56-.15.81-.72.81-1.86,0-3.72,0-5.58,0-.61,0-.74-.32-.67-.85a111.06,111.06,0,0,0,.51-14.36,59.09,59.09,0,0,0-.49-8.2c-.09-.63.08-.91.75-.89C173.49,59.38,174.42,59.36,175.35,59.36Z"/><path d="M175.73,55.29a8.59,8.59,0,0,1-1-.1,3,3,0,0,1-2.45-2.58,3,3,0,0,1,1.9-3,4.08,4.08,0,0,1,3.54.15,2.8,2.8,0,0,1-.11,5.17A4.26,4.26,0,0,1,175.73,55.29Z"/><path d="M166.78,6c-2.17,0-3.66-1.3-3.56-3.18a1.46,1.46,0,0,1,0-.29A3.29,3.29,0,0,1,166.71,0c1.9,0,3.36,1.07,3.56,2.6C170.51,4.52,169,6,166.78,6Z"/></g></g></svg>