<svg xmlns="http://www.w3.org/2000/svg" viewBox="0 0 233.86 62.4"><g id="Layer_2" data-name="Layer 2"><g id="Layer_1-2" data-name="Layer 1"><path d="M75.12,31.93V36.3H72.27V23.89h5.4a6.87,6.87,0,0,1,2.74.51,4,4,0,0,1,1.82,1.45A3.73,3.73,0,0,1,82.87,28a3.4,3.4,0,0,1-1.39,2.87,6.21,6.21,0,0,1-3.86,1.06Zm0-2.07h2.55a2.7,2.7,0,0,0,1.73-.48A1.68,1.68,0,0,0,80,28a1.92,1.92,0,0,0-.6-1.47A2.35,2.35,0,0,0,77.74,26H75.12Z"/><path d="M91.92,33.74h-5L86,36.3h-3l5.15-12.41h2.65L95.92,36.3h-3Zm-4.23-2.07h3.46L89.41,27Z"/><path d="M103.31,31.76H101V36.3H98.18V23.89h5.14a6.27,6.27,0,0,1,3.79,1,3.26,3.26,0,0,1,1.33,2.77,3.52,3.52,0,0,1-.62,2.12A4.12,4.12,0,0,1,106,31.11l3,5.07v.12H105.9ZM101,29.68h2.3a2.54,2.54,0,0,0,1.67-.49,1.65,1.65,0,0,0,.59-1.35,1.79,1.79,0,0,0-.56-1.38,2.51,2.51,0,0,0-1.71-.5H101Z"/><path d="M119.39,33.74h-5l-1,2.56h-3l5.15-12.41h2.64l5.18,12.41h-3Zm-4.23-2.07h3.46L116.88,27Z"/><path d="M128.5,34.25h6.06v2h-8.91V23.89h2.85Z"/><path d="M145.49,30.92H140v3.33h6.42v2h-9.27V23.89h9.25V26H140v3h5.47Z"/><path d="M160,34.73A5,5,0,0,1,157.86,36a9.88,9.88,0,0,1-3.12.46,6.77,6.77,0,0,1-3.15-.7,5,5,0,0,1-2.09-2,6.6,6.6,0,0,1-.75-3.15v-.84a7,7,0,0,1,.69-3.22,4.83,4.83,0,0,1,2-2.08,6.34,6.34,0,0,1,3.08-.72,6.23,6.23,0,0,1,3.85,1.05A4.32,4.32,0,0,1,160,27.83h-2.78a2.34,2.34,0,0,0-.84-1.56,3,3,0,0,0-1.79-.49,2.62,2.62,0,0,0-2.21,1,4.69,4.69,0,0,0-.77,2.92v.79a4.55,4.55,0,0,0,.82,3,3,3,0,0,0,2.43,1,3.41,3.41,0,0,0,2.29-.62V31.66h-2.6V29.78H160Z"/><path d="M171.14,33.74h-5l-.95,2.56h-3l5.16-12.41H170l5.18,12.41h-3Zm-4.23-2.07h3.46L168.63,27Z"/><path d="M180.25,34.25h6.05v2h-8.91V23.89h2.86Z"/><path d="M196.08,33a1.27,1.27,0,0,0-.57-1.11,7.9,7.9,0,0,0-2-.82,14.75,14.75,0,0,1-2.35-.85c-1.57-.76-2.35-1.78-2.35-3.07a2.82,2.82,0,0,1,.63-1.8,4.15,4.15,0,0,1,1.81-1.23,7.69,7.69,0,0,1,2.66-.44,6.83,6.83,0,0,1,2.64.48,4,4,0,0,1,1.8,1.36,3.27,3.27,0,0,1,.65,2h-2.86a1.61,1.61,0,0,0-.59-1.32,2.64,2.64,0,0,0-1.69-.48,2.87,2.87,0,0,0-1.62.4,1.2,1.2,0,0,0-.58,1.05,1.17,1.17,0,0,0,.68,1,8.27,8.27,0,0,0,2,.77,8.86,8.86,0,0,1,3.54,1.63A3.08,3.08,0,0,1,199,33a2.89,2.89,0,0,1-1.36,2.52,6.48,6.48,0,0,1-3.66.92A7.73,7.73,0,0,1,191,36a4.51,4.51,0,0,1-2-1.44,3.4,3.4,0,0,1-.69-2.11h2.86c0,1.37.91,2.05,2.74,2.05a2.86,2.86,0,0,0,1.58-.37A1.17,1.17,0,0,0,196.08,33Z"/><path d="M201.81,35.09a1.21,1.21,0,0,1,.44-1,1.91,1.91,0,0,1,2.23,0,1.21,1.21,0,0,1,.44,1,1.16,1.16,0,0,1-.44.94,1.91,1.91,0,0,1-2.23,0A1.16,1.16,0,0,1,201.81,35.09Z"/><path d="M219,23.89v8.17a4,4,0,0,1-1.42,3.23,7,7,0,0,1-7.73,0,3.93,3.93,0,0,1-1.46-3.16V23.89h2.86v8.19a2.21,2.21,0,0,0,.65,1.78,2.67,2.67,0,0,0,1.8.56c1.6,0,2.42-.76,2.44-2.27V23.89Z"/><path d="M229.87,33.74h-5l-1,2.56h-3L226,23.89h2.64l5.18,12.41h-3Zm-4.23-2.07h3.46L227.36,27Z"/><path d="M17.4,34.51H0l0-.09,10.77-9.66L0,15.09,0,15H17.35c0-.21,0-.39,0-.57V.47c0-.14,0-.28,0-.44l.42,0c6.7,0,13.39,0,20.09,0A15,15,0,0,1,52.6,11.77a13.8,13.8,0,0,1,.34,3c0,1.67,0,3.33,0,5A15,15,0,0,1,41.08,34.18a14.24,14.24,0,0,1-2.53.32l-.29,0c0,.66,0,1.32,0,2V62.36l-.08,0L27.82,49.71,17.49,62.38l-.09,0Z"/></g></g></svg>