<svg xmlns="http://www.w3.org/2000/svg" viewBox="0 0 181.11 84.21"><g id="Layer_2" data-name="Layer 2"><g id="Layer_1-2" data-name="Layer 1"><g id="g4121"><path id="path3207" d="M139,0A42.12,42.12,0,0,0,99.2,28.36h2.47V44.87a8.18,8.18,0,0,0,.81,4.11,3.28,3.28,0,0,0,5.27.05,7.87,7.87,0,0,0,.84-4.16V28.36h4.83V45.25c0,3.27-.7,5.77-2.1,7.52a8.66,8.66,0,0,1-12.39,0,8.15,8.15,0,0,1-1.1-1.86,42.12,42.12,0,0,0,81.36,3.82l-1.21-5h-6.9l-1.29,5.36h-4.85l6.89-26.48h5.53L181.1,43c0-.3,0-.61,0-.91A42.1,42.1,0,0,0,139,0ZM116.28,28.63H122l6.8,15.16V28.63h4.4V55.11h-4.63l-7.91-18.18V55.11h-4.4Zm19.52,0h13.36v5.12h-8.58v4.93h7.95v5.11h-7.95V55.11H135.8Zm15.25,0H159a9,9,0,0,1,3,.44,6.27,6.27,0,0,1,2.16,1.3,6.69,6.69,0,0,1,1.71,2.69,11.2,11.2,0,0,1,.6,3.93,14.06,14.06,0,0,1-.43,3.48,8.63,8.63,0,0,1-1.25,2.84,8.16,8.16,0,0,1-2.49,2.37,6.6,6.6,0,0,1-3.41.8h-3v8.63h-4.81Zm4.81,4.94V41.5h1.38a8,8,0,0,0,2-.21,2.58,2.58,0,0,0,1.34-.85,3.45,3.45,0,0,0,.66-1.36,7.22,7.22,0,0,0,.22-1.93,4.06,4.06,0,0,0-.43-1.92,2.58,2.58,0,0,0-1-1.14,3.33,3.33,0,0,0-1.46-.47c-.48,0-1.11,0-1.9,0Zm18.67,1.84-2.29,9.49h4.58Z"/><g id="g4020"><g id="g3072"><g id="g4303"><path id="path4290" d="M80.81,56a7,7,0,0,1-.69.63c-1.56-1.61-3.39-3.4-5.13-3.4-1.08,0-1.86.82-2.76,1.4a5.05,5.05,0,0,1-4.46.67,4.8,4.8,0,0,1-2.14-1.47,4.64,4.64,0,0,0,4.21.36,12.26,12.26,0,0,1,4.59-1.4C76.87,52.79,79.19,54.44,80.81,56Zm-18-5.07c1.61,1.84,4.24,1.25,6.4,1.71a2.48,2.48,0,0,0,.9.11,4.64,4.64,0,0,0-.89-.29c-1.67-.63-1.93-2.42-2.85-3.66a28.42,28.42,0,0,1,3.23,2.85,5.5,5.5,0,0,0,2.7,1.19,7,7,0,0,1-.8.13c-1.77.44-3.73,1.13-5.61.51A5.52,5.52,0,0,1,62.79,50.93ZM60.2,46.68c1,2.28,3.54,2.45,5.22,3.85a4.85,4.85,0,0,0,1,.68v0A7.47,7.47,0,0,1,65.32,50c-1-1.39-.65-3.3-1.39-4.79a10.46,10.46,0,0,1,1.7,2.56c.62,1.49.83,3.19,2.23,4.32-1.51-.5-3.26-.4-4.63-1.3a6.57,6.57,0,0,1-3-4.09Zm-1.08-4.62c.14,2,2.28,3.08,3.3,4.74a4.89,4.89,0,0,0,.76,1,3.32,3.32,0,0,0-.32-.62,4.48,4.48,0,0,1-.39-2.37,12,12,0,0,0,.36-3.06c.88,1.9.59,4.27,1.1,6.33a10.34,10.34,0,0,0,.56,1.28c-.86-.66-2-1.24-2.94-2a5.49,5.49,0,0,1-2.43-5.31Zm.06-3.7A5.89,5.89,0,0,1,59.56,37c-.37,1.89.89,3.26,1.32,4.9a12.53,12.53,0,0,0,.47,1.85s0,0,0,0c-.62-1.74.29-3.36,1.18-4.73A4.21,4.21,0,0,0,63,37.82a9.46,9.46,0,0,1-.22,2.52c-.19,1-.55,2-.83,3a4.86,4.86,0,0,0-.05,2l-.09-.07c-.66-1.22-2-2.17-2.36-3.51a7.55,7.55,0,0,1-.31-3.45Zm.7-2a5.79,5.79,0,0,1,1.39-3.67s0,0,.07,0c-.92,1.4-.08,3.17-.2,4.76L61,39s0,.07.06.05a5.22,5.22,0,0,0,.11-.57c.22-1.31,1.37-2.23,2.35-3.16a2,2,0,0,0,.52-.76,6.49,6.49,0,0,1-.56,1.93C62.74,38,61.28,39.26,61,41,60.89,39.33,59.88,38.09,59.88,36.32Zm2.43-4.84a3.32,3.32,0,0,1,1.6-1.07c-1.2.83-1.14,2.3-1.51,3.54-.13.45-.33.87-.43,1.34l0,0a3.88,3.88,0,0,1,1-1.45c.84-.8,2.11-1.28,2.53-2.45,0,1.62-1.4,2.85-2.66,3.81a4.46,4.46,0,0,0-1.34,1.6,5.92,5.92,0,0,0,0-1.26c-.13-1.41-.21-3,.76-4.08Zm4.87-2.72A17.28,17.28,0,0,0,65,31.45a15.34,15.34,0,0,1-2,1.85A20.79,20.79,0,0,1,63.88,31,6.11,6.11,0,0,1,67.18,28.76Z"/><path id="path4301" d="M71.6,56a6,6,0,0,0,.69.63c1.56-1.61,3.39-3.4,5.13-3.4,1.08,0,1.85.82,2.76,1.4a5.05,5.05,0,0,0,4.46.67,4.8,4.8,0,0,0,2.14-1.47,4.66,4.66,0,0,1-4.22.36A12.21,12.21,0,0,0,78,52.79C75.54,52.79,73.22,54.44,71.6,56Zm18-5.07c-1.61,1.84-4.25,1.25-6.4,1.71a2.5,2.5,0,0,1-.91.11,5,5,0,0,1,.9-.29c1.67-.63,1.93-2.42,2.84-3.66a29.31,29.31,0,0,0-3.23,2.85,5.47,5.47,0,0,1-2.69,1.19,7,7,0,0,0,.8.13c1.77.44,3.72,1.13,5.6.51A5.51,5.51,0,0,0,89.62,50.93Zm2.59-4.25c-1,2.28-3.54,2.45-5.22,3.85a4.85,4.85,0,0,1-1,.68l0,0A7.09,7.09,0,0,0,87.09,50c1-1.39.64-3.3,1.39-4.79a10.46,10.46,0,0,0-1.7,2.56c-.62,1.49-.83,3.19-2.23,4.32,1.51-.5,3.26-.4,4.62-1.3a6.55,6.55,0,0,0,3-4.09Zm1.08-4.62c-.15,2-2.29,3.08-3.31,4.74a4.51,4.51,0,0,1-.75,1,3.32,3.32,0,0,1,.32-.62,4.58,4.58,0,0,0,.39-2.37,11.55,11.55,0,0,1-.36-3.06c-.88,1.9-.6,4.27-1.1,6.33a12.1,12.1,0,0,1-.56,1.28c.86-.66,2-1.24,2.94-2A6.31,6.31,0,0,0,93,44.7a6.46,6.46,0,0,0,.3-2.64Zm-.06-3.7A5.89,5.89,0,0,0,92.85,37c.37,1.89-.89,3.26-1.32,4.9a12.53,12.53,0,0,1-.47,1.85s0,0-.06,0c.63-1.74-.29-3.36-1.17-4.73a3.94,3.94,0,0,1-.46-1.21,9.06,9.06,0,0,0,.22,2.52c.19,1,.55,2,.83,3a4.69,4.69,0,0,1,0,2l.09-.07c.67-1.22,2-2.17,2.36-3.51a7.42,7.42,0,0,0,.32-3.45Zm-.7-2a5.85,5.85,0,0,0-1.39-3.67s0,0-.08,0c.92,1.4.09,3.17.2,4.76L91.39,39s0,.07-.07.05a5.21,5.21,0,0,1-.1-.57c-.22-1.31-1.38-2.23-2.36-3.16a2.12,2.12,0,0,1-.51-.76,6.2,6.2,0,0,0,.56,1.93c.76,1.52,2.21,2.76,2.48,4.49C91.51,39.33,92.53,38.09,92.53,36.32ZM90.1,31.48a3.32,3.32,0,0,0-1.6-1.07c1.2.83,1.13,2.3,1.5,3.54.14.45.33.87.44,1.34l0,0a3.88,3.88,0,0,0-1-1.45c-.85-.8-2.12-1.28-2.53-2.45,0,1.62,1.4,2.85,2.66,3.81a4.56,4.56,0,0,1,1.34,1.6,5.92,5.92,0,0,1,0-1.26c.13-1.41.21-3-.76-4.08Zm-4.88-2.72a16.78,16.78,0,0,1,2.18,2.69,15.34,15.34,0,0,0,2,1.85A20.79,20.79,0,0,0,88.53,31,6.1,6.1,0,0,0,85.22,28.76Z"/></g><path id="path51" d="M87.09,45l-.26-.15a11.93,11.93,0,0,1-2.18,3.11l-1.54-1.54a9.86,9.86,0,0,0,1.81-2.61l-.26-.14a9.32,9.32,0,0,1-1.76,2.54l-1.39-1.39a7.18,7.18,0,0,0,1.41-2.1l-.26-.14a7.16,7.16,0,0,1-1.36,2L79.76,43a4.75,4.75,0,0,0,1-1.54l-.26-.14a4.43,4.43,0,0,1-.93,1.47l-1.4-1.4a2.62,2.62,0,0,0,.67-1.59h2a4.34,4.34,0,0,1-.31,1.52l.26.14a4.93,4.93,0,0,0,.35-1.66h2.18a7,7,0,0,1-.61,2.71l.26.14a7.28,7.28,0,0,0,.64-2.85h2a9.32,9.32,0,0,1-.87,3.8l.26.14a9.8,9.8,0,0,0,.91-3.94H88a11.73,11.73,0,0,1-1.18,5l.26.15a12.14,12.14,0,0,0,.33-9.82l-.27.12A11.67,11.67,0,0,1,88,39.54H85.83a9.87,9.87,0,0,0-.68-3.42l-.27.12a9.19,9.19,0,0,1,.65,3.3h-2a7.34,7.34,0,0,0-.5-2.52l-.26.11a7.22,7.22,0,0,1,.47,2.41H81.09a5,5,0,0,0-.3-1.55l-.27.12a4.27,4.27,0,0,1,.27,1.43h-2a2.62,2.62,0,0,0-.67-1.6l1.4-1.4a4.44,4.44,0,0,1,1,1.57l.27-.12a4.81,4.81,0,0,0-1-1.66l1.54-1.54a7.09,7.09,0,0,1,1.5,2.34l.26-.11a7.24,7.24,0,0,0-1.55-2.44l1.39-1.39a9.22,9.22,0,0,1,2,3.05l.27-.12a9.71,9.71,0,0,0-2-3.14l1.54-1.54a11.65,11.65,0,0,1,2.5,3.82l.27-.12a12.17,12.17,0,0,0-6.7-6.69l-.1.28a11.85,11.85,0,0,1,3.83,2.5L82.9,32.77a9.59,9.59,0,0,0-3.08-2l-.11.27a9.42,9.42,0,0,1,3,1.95l-1.4,1.4A7.44,7.44,0,0,0,79,32.87l-.11.27a7,7,0,0,1,2.22,1.45l-1.55,1.54a5,5,0,0,0-1.46-1l-.11.28a4.65,4.65,0,0,1,1.37.88L78,37.73a2.63,2.63,0,0,0-1.6-.66v-2a4.5,4.5,0,0,1,1.63.36l.11-.28a5.11,5.11,0,0,0-1.74-.37V32.62a7.19,7.19,0,0,1,2.53.52l.11-.27a7.36,7.36,0,0,0-2.64-.54v-2a9.28,9.28,0,0,1,3.36.68l.11-.27a9.67,9.67,0,0,0-3.47-.7V27.88a11.82,11.82,0,0,1,4.27.85l.1-.27a11.86,11.86,0,0,0-4.52-.88,12,12,0,0,0-5.41,1.29l.13.25a11.76,11.76,0,0,1,5.14-1.24v2.18a9.48,9.48,0,0,0-4.12,1l.13.25a9.38,9.38,0,0,1,4-1v2a7.2,7.2,0,0,0-3.07.74l.13.25a7,7,0,0,1,2.94-.7V34.8a4.72,4.72,0,0,0-1.92.46l.13.25a4.7,4.7,0,0,1,1.79-.42v2a2.77,2.77,0,0,0-.87.2l.13.26a2.22,2.22,0,0,1,.88-.17,2.32,2.32,0,1,1-1.64.68,2.12,2.12,0,0,1,.76-.51l-.13-.26a2.74,2.74,0,0,0-.73.46l-1.4-1.4a4.7,4.7,0,0,1,1.21-.82l-.14-.25a4.62,4.62,0,0,0-1.27.87l-1.55-1.55a7,7,0,0,1,1.81-1.26L73,33.07a7.29,7.29,0,0,0-1.88,1.31L69.71,33a9.64,9.64,0,0,1,2.36-1.67l-.13-.25a9.72,9.72,0,0,0-2.43,1.72L68,31.23a12.13,12.13,0,0,1,3-2.11l-.13-.25a12.2,12.2,0,0,0-5.44,5.47l.25.14a12.08,12.08,0,0,1,2.15-3L69.3,33a9.74,9.74,0,0,0-1.77,2.54l.25.14a9.3,9.3,0,0,1,1.72-2.47l1.4,1.4a7.16,7.16,0,0,0-1.37,2l.25.14a6.89,6.89,0,0,1,1.33-2l1.54,1.54a4.83,4.83,0,0,0-.94,1.45l.25.14a4.6,4.6,0,0,1,.89-1.38l1.4,1.4a2.65,2.65,0,0,0-.66,1.6h-2A4.65,4.65,0,0,1,72,37.92l-.25-.14a4.87,4.87,0,0,0-.39,1.76H69.14a7,7,0,0,1,.64-2.8l-.25-.14a7.25,7.25,0,0,0-.68,2.94h-2a9.33,9.33,0,0,1,.91-3.88l-.25-.14a9.51,9.51,0,0,0-1,4H64.4a11.8,11.8,0,0,1,1.2-5.06l-.25-.14a12.21,12.21,0,0,0-.76,8.75l.29-.07a11.73,11.73,0,0,1-.48-3.19h2.18A10.32,10.32,0,0,0,67,42.49l.29-.07a9.35,9.35,0,0,1-.41-2.59h2a7.06,7.06,0,0,0,.35,2.1l.28-.07a6.91,6.91,0,0,1-.34-2h2.18a5,5,0,0,0,.28,1.5l.29-.08a4.54,4.54,0,0,1-.28-1.42h2a2.66,2.66,0,0,0,.66,1.6l-1.4,1.4a4.6,4.6,0,0,1-1-1.58l-.29.08A5,5,0,0,0,72.65,43l-1.54,1.54a7.06,7.06,0,0,1-1.63-2.71l-.28.07a7.3,7.3,0,0,0,1.7,2.85l-1.4,1.4a9.25,9.25,0,0,1-2.22-3.76l-.28.07a9.32,9.32,0,0,0,2.3,3.89l-1.55,1.55A11.72,11.72,0,0,1,64.88,43l-.29.07A12.11,12.11,0,0,0,71,50.6l.14-.25A11.71,11.71,0,0,1,68,48.13l1.54-1.54a9.66,9.66,0,0,0,2.71,1.85l.14-.25a9.41,9.41,0,0,1-2.64-1.81L71.11,45a7.28,7.28,0,0,0,2.22,1.47l.14-.26a7.1,7.1,0,0,1-2.16-1.42l1.55-1.54a4.72,4.72,0,0,0,1.69,1L74.7,44a4.48,4.48,0,0,1-1.64-1l1.4-1.4a2.64,2.64,0,0,0,1.6.67v2A4.42,4.42,0,0,1,74.7,44l-.15.26a5.12,5.12,0,0,0,1.51.29v2.18a7.11,7.11,0,0,1-2.59-.55l-.14.26a7.41,7.41,0,0,0,2.73.58v2a9.34,9.34,0,0,1-3.71-.82l-.14.25a9.51,9.51,0,0,0,3.85.87v2.18a11.84,11.84,0,0,1-4.93-1.14l-.14.26a12.19,12.19,0,0,0,10.67-.12l-.14-.27a11.82,11.82,0,0,1-5.17,1.27V49.31a9.75,9.75,0,0,0,4.17-1L80.39,48a9.16,9.16,0,0,1-4,1V47a7.27,7.27,0,0,0,3.13-.77L79.35,46a7,7,0,0,1-3,.74V44.57a4.77,4.77,0,0,0,2-.5l-.14-.26a4.44,4.44,0,0,1-1.86.46v-2a2.64,2.64,0,0,0,1.6-.67l1.4,1.4a4.44,4.44,0,0,1-1.14.78l.14.26a4.86,4.86,0,0,0,1.2-.83l1.54,1.54A7.12,7.12,0,0,1,79.35,46l.13.26A7.39,7.39,0,0,0,81.3,45l1.4,1.39A9.41,9.41,0,0,1,80.39,48l.13.27a9.92,9.92,0,0,0,2.39-1.7l1.53,1.54a11.7,11.7,0,0,1-2.92,2.09l.14.27A12.21,12.21,0,0,0,87.1,45Z"/><polygon id="polygon59" points="76.9 36.88 76.82 36.88 76.83 36.97 76.9 36.97 76.9 36.88"/><rect id="rect61" x="76.72" y="36.76" width="0.1" height="0.07"/><polygon id="polygon63" points="76.54 36.74 76.63 36.75 76.64 36.68 76.55 36.67 76.54 36.74"/><polygon id="rect65" points="76.47 36.71 76.38 36.7 76.39 36.63 76.48 36.64 76.47 36.71"/><rect id="rect67" x="75.76" y="36.62" width="0.1" height="0.07"/><polygon id="polygon69" points="75.55 36.76 75.64 36.78 75.65 36.7 75.56 36.69 75.55 36.76"/><polygon id="rect71" points="75.56 36.88 75.46 36.85 75.48 36.78 75.58 36.8 75.56 36.88"/><polygon id="rect73" points="75.39 36.97 75.37 36.89 75.45 36.88 75.46 36.95 75.39 36.97"/><polygon id="polygon75" points="65.77 44.51 65.77 44.44 65.71 44.44 65.71 44.57 65.81 44.57 65.81 44.73 65.88 44.73 65.87 44.54 65.77 44.51"/><polygon id="polygon77" points="66.73 45.52 66.69 45.61 66.55 45.48 66.45 45.35 66.4 45.24 66.32 45.01 66.5 45.1 66.56 45.27 66.65 45.34 66.73 45.52"/><polygon id="polygon79" points="69.21 48.93 69.2 48.81 69.1 48.67 69.25 48.69 69.41 48.83 69.47 48.99 69.38 49.04 69.33 48.96 69.21 48.93"/><path id="path81" d="M75.83,37.68h-.14l0-.27.07,0v-.14h-.43v-.13l.06,0-.1,0-.07.1,0,.11-.13,0v.06H75v.16l-.34.28-.69,0c0,.11-.17,0-.17,0s-.19,0-.19,0-.23-.06-.23-.06l-.43-.31c-.25-.23-.61.06-.62.12s-.28,0-.28,0-.25-.08-.28,0-.2.08-.2.08l0,0-.13,0,0,.07-.15,0h.37c.1,0,0,.21-.1.2h-.17l-.06.06h-.16l-.07.1h-.23s-.14.11-.13.15,0,.14-.06.14-.11.12-.08.15-.08.16-.08.16l0,.13-.07,0v.34l-.15.1v.14L70,39.7l0,.2-.18.2,0,.19-.11,0,0,.09,0,.26h.12c.07,0,0,.16,0,.19s-.18.07-.1.12-.2,0-.2,0-.15-.13-.18-.11-.1-.11-.1-.11-.55,0-.55,0l-.06.2c-.14,0-.22.25-.22.25s-.2.17-.16.21-.06.05-.06.05v.27l-.06.09v.29c.07,0,.06.14.06.14s-.1.17-.1.17l-.25.09,0,.08-.32,0-.08.09-.09-.09h-.61l0-.06-.13,0v-.14h-.18l0,.08h-.19c0,.12-.2.31-.22.26s-.16-.19-.1-.21a1,1,0,0,1,.22,0v-.09h-.45l-.05.07-.18,0v.19l-.09,0c-.06,0,0,.17,0,.17s0,.23,0,.23.06.21.06.21-.06.1-.06.1a.22.22,0,0,0,.1.16.12.12,0,0,0,.05.18v.21l.08,0v.14l.05.09h.2v-.31c-.17-.2.14-.25.16-.18s.14.11.14.11c0,.19.23.3.29.12s.11-.08.15,0a2,2,0,0,0,.27.29h.18l0,.18c.2,0,.27,0,.35.3a.53.53,0,0,0,.32.35h.17c0-.15.17,0,.17.1s.33.36.33.36l.33.07.3.25.24,0h.09c.06-.21.36,0,.38.08s.22.2.25.14.15,0,.18.16.11.15.11.15h.69l.25-.21h.62c.32,0,.12-.45.06-.45s0-.45,0-.45l-.89-.83c-.21,0,0-.29,0-.29.16-.1,0-.26,0-.26a.61.61,0,0,0-.09-.33.43.43,0,0,1-.16-.43v-.2c-.18-.17.08-.2.08-.2s-.07-.26-.07-.26v-.16l-.19,0,0-.58L69.94,41c-.08,0,0-.17,0-.17s0-.21,0-.21v-.27l.26,0,.06-.1h.12v-.32a.14.14,0,0,1,.21-.07h.17l.1-.19,0-.14-.13,0c-.15-.08-.08-.41-.08-.41a.34.34,0,0,1,.5-.14l.17,0c.26.18,0,.5,0,.5a.74.74,0,0,0,0,.31l.06.39-.15.14c-.14.08-.14.25,0,.29s.06.24-.09.08c-.22,0,.12.2,0,.15.22.11.17-.1.17-.1l.29-.23c.11-.09.31.18.31.22s.48,0,.48,0a.57.57,0,0,1,.19.31c.13-.17.41,0,.2.09.2.12.2.23.2.23.16,0,.16.08.16.12a1.67,1.67,0,0,0,.05-.19c-.19-.14.24-.19.12.06l-.07.11.12.1v.29c.27,0,.2-.36.2-.36l.12,0c0-.11.08,0,.08,0-.08-.42.2-.49.2-.49.16,0,.17-.37.17-.37s0-.23.07-.08-.07-.3-.07-.3l-.1-.08H73.9v-.14h-.22l0,.17-.09,0,0,0,0,.13h-.22v-.14l.14,0,0-.08,0-.19h.16l.21-.07c0-.21.12-.16.12-.16l.07.07.11.08v.08l-.07,0v.1l0,.14h.09a.21.21,0,0,1,.37-.08l.07-.17c-.17-.09,0-.22,0-.16s.16-.16.16-.16.08.11,0,0a.15.15,0,0,1,.06-.22c0-.15.16-.12.16-.12v-.2l-.17,0c0,.18-.18,0-.11,0a1.13,1.13,0,0,0,.15-.11V38.6l.07,0v-.12h.19l.15-.08,0-.06h.17l.25-.22,0-.1c-.15,0,0-.11,0-.11l0-.19Z"/><path id="path83" d="M70.91,40.13l-.22,0v.08h.06a1.19,1.19,0,0,1,0,.6s-.14,0-.17-.06-.08.16,0,.2.22,0,.23.13.11-.09.11-.09v-.84Z"/><polygon id="polygon85" points="70.98 41.41 70.89 41.37 70.91 41.19 70.98 41.17 70.99 41.09 70.81 41.21 70.69 41.14 70.69 41.43 70.88 41.69 70.96 41.52 70.98 41.41"/><polygon id="polygon87" points="71 41.97 71 41.84 70.92 41.85 70.91 41.95 71 41.97"/><polygon id="polygon89" points="70.89 42.56 70.89 42.47 70.79 42.49 70.79 42.57 70.89 42.56"/><path id="path91" d="M71,42.18a0,0,0,0,0,0,0,.05.05,0,1,0-.1,0A0,0,0,0,0,71,42.18Z"/><circle id="circle93" cx="71.12" cy="42.39" r="0.05"/><circle id="circle95" cx="71.13" cy="40.97" r="0.05"/><polygon id="polygon97" points="75.06 39.48 74.96 39.5 74.74 39.71 74.73 39.81 74.67 39.9 74.59 40.08 74.34 40.09 74.29 40.32 74.32 40.5 74.54 40.59 74.57 40.47 74.64 40.43 74.65 40.31 74.7 40.22 74.78 40.13 74.8 40.03 74.92 39.96 75.07 39.93 75.13 39.86 75.16 39.71 75.16 39.6 75.22 39.53 75.36 39.46 75.36 39.23 75.29 39.23 75.28 39.14 75.14 39.13 75.12 39.19 75.06 39.19 75.04 39.29 75.12 39.29 75.13 39.37 75.08 39.41 75.06 39.48"/><path id="path99" d="M75.62,40v-.17l0-.16-.18-.09-.13.13,0,.17V40l-.12,0,0,.33-.1,0v.12l-.13,0-.14,0,0,.16-.1.06,0,.15-.06.36s.11.21.17.11a.23.23,0,0,1,.16-.11l0-.09h.33a.09.09,0,0,1,.18,0c0,.06.12,0,.12,0l.09-.14h.13v-.14l.06,0v-.22a.23.23,0,0,0,.17-.25l0-.06,0-.09c-.1,0-.05-.12,0-.1s-.08-.11-.08-.11S75.8,40,75.8,40Z"/><path id="path101" d="M75.81,41.48c0,.15-.19.2-.19.2l-.14,0-.07-.06v-.17h.11l0,.07Z"/><path id="path103" d="M76.47,40.69c0,.11,0-.17.08-.16s0-.17,0-.17l-.22.16c.11,0,.12.12.13.17Z"/><path id="path105" d="M77.12,40.05c0,.11,0,.27.22.39s0,.13-.1.09a2,2,0,0,1-.23-.31v-.16c0-.1.09-.06.11,0Z"/><polygon id="polygon107" points="77.2 43.75 77.12 43.81 77.16 43.85 77.19 43.91 77.28 43.77 77.2 43.75"/><line id="line109" x1="76.81" y1="43.61" x2="76.81" y2="43.76"/><polygon id="polygon111" points="78.58 43.43 78.68 43.37 78.64 43.31 78.54 43.37 78.58 43.43"/><path id="path113" d="M82.11,46l.11,0v.21c.15.14.63,0,.63,0s0-.45,0-.45l-.06-.07v-.31c0-.16-.23-.39-.26-.34s-.18,0-.18.06-.1.3,0,.38,0,.09,0,.18-.13.23-.11.31Z"/><path id="path115" d="M81.84,45.52c0,.09-.11.15-.16.11s.06.06.09.11a.07.07,0,0,0,.12,0c0-.05,0-.16,0-.21s-.08-.06-.09,0Z"/><rect id="rect117" x="81.27" y="43.25" width="0.09" height="0.24"/><path id="path119" d="M82.54,40.86c-.06-.07.24-.19.29,0s0,.13,0,.12-.17,0-.24-.07Z"/><polygon id="polygon123" points="82.8 39.2 82.79 39.28 82.92 39.3 82.94 39.23 82.8 39.2"/><polygon id="polygon125" points="82.5 39.31 82.46 39.33 82.37 39.38 82.29 39.33 82.25 39.4 82.35 39.46 82.37 39.47 82.38 39.46 82.46 39.42 82.47 39.44 82.53 39.41 82.51 39.35 82.5 39.31"/><path id="path127" d="M82.92,36.4h-.19s.06,0-.11-.13a.17.17,0,0,0-.28,0l-.19,0v.2l-.1,0v.12h.14s0,.15,0,.08.34,0,.32.16.3.23.27.43a.14.14,0,0,1,.12.18l.21,0,.06-.13.06,0v-.08l-.13,0,0-.39L83,36.88l0-.1-.1,0,0-.16-.08-.18Z"/><path id="path129" d="M83.45,37.67h-.1l-.22,0-.12.24a.42.42,0,0,1,.11.12c0,.09.08.6-.07.68s0,0,0,0L83,39c0,.13.09.07.13,0s.08-.07.12-.13a.73.73,0,0,0,.14-.26c0-.09.07-.23,0-.26s0-.21,0-.21a.24.24,0,0,0,0-.2.26.26,0,0,1,0-.26l-.1,0Z"/><polygon id="rect133" points="83.6 38.17 83.61 38.07 83.69 38.08 83.67 38.18 83.6 38.17"/><polygon id="rect135" points="83.6 38.52 83.53 38.48 83.57 38.41 83.63 38.44 83.6 38.52"/><path id="path137" d="M83.49,37.53l0-.11a.54.54,0,0,1,0-.15c0-.05,0-.1-.08-.11s0-.11,0-.16-.09-.09-.09-.09,0-.18,0-.22-.11-.09-.07-.12a.58.58,0,0,1,.1-.12s0-.19,0-.16.06.1.09.15,0,.23,0,.26,0,.16.09.16,0,.24,0,.24,0,.17,0,.18,0,.31,0,.31l-.1-.06Z"/><path id="path139" d="M82.7,35.53s.11.08.11.13,0,.09,0,.1.12,0,.14.05A.31.31,0,0,1,83,36s0,.12.08.12.07,0,.07,0,.07-.13.07-.13a.55.55,0,0,1-.11-.16s-.06-.18-.06-.2-.08-.05-.12-.06-.1-.13-.1-.13l-.14,0Z"/><path id="path141" d="M82.82,35.41a.6.6,0,0,0-.12-.11.39.39,0,0,0-.14,0,.08.08,0,0,1-.07-.11c0-.06,0-.08,0-.13s0,0,.1,0,0,0,.1.11.07.13.12.12.08.11.13.07,0,.09,0,.09l-.12,0Z"/><path id="path143" d="M81.39,36.81c.07.07-.37,0-.37,0s0-.22.15-.18.12-.23.12-.23-.09,0,0,0,0-.13,0-.16l-.07-.1h.17c.07,0,.1-.29.1-.29a.19.19,0,0,0,.22,0,.4.4,0,0,0,.07.14c0,.06-.12.09-.06.12a.17.17,0,0,1,.06.19s-.16,0-.16,0,0,.06,0,.13-.06.14-.08.14-.19,0,0,.1a.39.39,0,0,0,.28,0s.11,0,.15,0,0,.07-.08.07l-.35,0s-.09.09,0,.12Z"/><path id="path145" d="M80.61,36.93c.06,0,.21,0,.23,0s-.08.08-.08.08l-.15,0c0-.06-.06-.11,0-.12Z"/><path id="path147" d="M82.18,35.88c.1,0,.31,0,.3-.12s.12-.1.12-.1l0,.15.11.07V36s0,0-.1,0,0,.1,0,.1h-.29l0-.12-.1-.13Z"/><path id="path149" d="M81.71,35.22c.07,0,0,.28.17.26s0,.08.16.1.11-.12.16-.2,0-.14-.07-.16-.08,0-.11-.13A.16.16,0,0,0,81.9,35l0-.15-.16.1-.16.21c0,.16.08.09.16.09Z"/><polygon id="rect153" points="82.03 36.26 82.07 36.19 82.13 36.22 82.1 36.3 82.03 36.26"/><rect id="rect155" x="81.9" y="36.14" width="0.07" height="0.09"/><polygon id="rect157" points="81.96 34.49 81.98 34.61 81.9 34.61 81.89 34.5 81.96 34.49"/><rect id="rect159" x="81.76" y="35.65" width="0.07" height="0.06"/><polygon id="rect161" points="81.56 35.65 81.56 35.57 81.68 35.56 81.69 35.64 81.56 35.65"/><polygon id="rect163" points="80.56 36.84 80.49 36.81 80.53 36.72 80.59 36.75 80.56 36.84"/><polygon id="rect165" points="80.17 36.61 80.17 36.54 80.29 36.53 80.3 36.6 80.17 36.61"/><polygon id="polygon169" points="78.06 36.59 77.79 36.6 77.79 36.68 78.06 36.66 78.06 36.59"/><polygon id="rect171" points="77.61 36.7 77.58 36.59 77.66 36.57 77.68 36.68 77.61 36.7"/><polygon id="rect173" points="77.56 36.77 77.53 36.7 77.57 36.69 77.59 36.76 77.56 36.77"/><path id="path175" d="M78.17,36.57v.08l.13,0s.06,0,.06.08.09.08.14.08a.72.72,0,0,0,.18-.1s.06-.18,0-.16-.15.08-.16,0-.16,0-.16,0l-.19,0Z"/><path id="path177" d="M78.78,36.43s0,.09,0,.1.2-.05.22,0,0,.13.11.16a.53.53,0,0,0,.23,0l.23,0a.87.87,0,0,1,.21.06c.13.14.22.17.25.11s0-.2,0-.24-.18-.29-.24-.24-.08,0-.19,0-.34,0-.35,0-.18-.07-.18-.12-.13-.12-.11,0-.09.11-.11.09-.1.07-.1.07Z"/><path id="path179" d="M81.59,34.84l.08-.27c-.12,0-.1-.16-.1-.16s-.18-.23-.24-.2,0-.26,0-.26.11-.07.16,0-.41-.62-.51-.56-.32-.06-.31-.18-.44-.48-.44-.48-.14-.1-.17,0-.07.12,0,.16.06-.06.15,0,.24.2.18.27a.28.28,0,0,1-.13.1l.08.1h.14l0,.21a.55.55,0,0,1,.19.16.21.21,0,0,1,0,.19.35.35,0,0,0-.1.22.18.18,0,0,0,.11.13h.1l.07,0v.16c.1,0,.26.11.24.2s0,0,.15.12.09.1.17.16.16,0,.2-.09Z"/><path id="path181" d="M79.57,33.16s0-.22,0-.21,0,0,.11,0,.1-.07.1-.07H80l.17.14,0,.11H80c-.06-.09-.18-.06-.15,0a.32.32,0,0,1-.11.26s-.21,0-.2-.06a2.33,2.33,0,0,1,.06-.25Z"/><path id="path183" d="M79.47,32.83v-.1s0-.1-.07-.1-.17-.08-.15-.13-.2-.1-.2-.1-.21-.19-.14-.17,0-.09,0-.09a.82.82,0,0,1-.18,0s0-.13,0-.13-.14,0-.14,0,0,0,.07.11,0,.2.12.23.14.05.15.1.14.06.14.06l.1,0,.29.25Z"/><polygon id="polygon185" points="78.16 31.56 78.12 31.46 78.02 31.44 78.02 31.55 78.16 31.56"/><path id="path187" d="M78.12,31c-.13-.09.17.08.17.08a.15.15,0,0,1,.16.11s.13,0,.13,0l0-.08L78.5,31,78.41,31s-.13,0-.13-.05-.11.15-.16.11Z"/><path id="path189" d="M80.36,31.12c0,.1,0,.26-.11.26s0,.16,0,.16h.21s0,.14,0,.14c.19,0,.26.23.24.29s.07.06.07.06a1.29,1.29,0,0,1,0,.25c0,.05.15.09.2.16a.41.41,0,0,1-.06.34s.1.05.09.11,0,0,.05.1l0,.31h.17c0-.16.34-.17.39-.15a.76.76,0,0,1,.37.47c0,.08-.13.09-.13.09l0,.36c.21.06.38.36.35.41s.15,0,.15,0c0-.22.23-.14.24-.07s.05.24.05.24l.06.11.09.08H83L83,35l.16,0a2.11,2.11,0,0,1,.15.19s.19,0,.24,0,.12,0,.13.11a.76.76,0,0,0,.09.17s.15,0,.16.08a.89.89,0,0,0,.07.16l.12.1,0,.11.13,0,0,.14h.22l.12-.08a.63.63,0,0,0,.28-.25s0-.24.16-.2,0-.27,0-.27-.17-.13-.15-.19-.18-.18-.16-.23-.16-.15-.15-.2-.09-.19-.09-.19l-.18-.17,0-.11h-.15l-.29-.36v-.1l-.09,0v-.13l-.08,0h-.13l-.27-.3,0-.14h-.13l0-.26a.44.44,0,0,0,0-.32s-.17.09-.26,0,0-.12,0-.12v-.1L83,32.24s-.21,0-.22,0a1.43,1.43,0,0,1-.05-.2v-.21l-.09,0v-.08h-.14v-.15l-.07,0-.07,0v-.15H82L82,31.23l-.1-.15-.3,0L81.48,31l-.13,0-.08,0,0,.06H81v.08c-.12.06-.61,0-.63.05Z"/><path id="path191" d="M81.65,30.79c0-.09.24-.18.3-.11s.23.09.26.46c0,.13-.22-.13-.22-.13l-.18-.07a.18.18,0,0,1-.16-.15Z"/><polygon id="rect193" points="78.07 30.95 78 30.92 78.05 30.8 78.12 30.83 78.07 30.95"/><path id="path195" d="M77.44,29.73l-.16-.16v-.14l0-.05,0-.17L77,29.16l-.16.06-.17.11-.18,0-.1.11.39,0,.07.12.29,0,.18.19c.16.05.19,0,.1-.11Z"/><path id="path197" d="M77.41,29.12c0-.11-.18.14,0,.19a.56.56,0,0,0,.31,0l0-.08.61,0a.32.32,0,0,0,.07-.13s.15-.05.21,0,0-.18,0-.15a.61.61,0,0,1-.18,0h-.22c0-.09-.21-.05-.22,0s-.08.06-.08.06l-.28,0c0,.07-.18.12-.19.07Z"/><path id="path199" d="M76.2,31.21c.19.06.26,0,.27,0s0-.06.1-.08,0-.16-.09-.14a.13.13,0,0,1-.15-.09c0-.06-.14-.22-.15-.1s-.09.12-.07.21,0,.22.09.23Z"/><path id="path201" d="M74.8,31.35s.24-.05.28,0,0,.1.12.1.06.07,0,.11-.13,0-.14,0-.2-.05-.2-.05-.1-.08-.11-.14Z"/><polygon id="polygon205" points="78.95 28.7 78.86 28.77 78.79 28.71 78.74 28.76 78.83 28.85 78.85 28.88 78.88 28.85 79 28.75 78.95 28.7"/><polygon id="polygon207" points="78.28 28.47 78.2 28.42 78.16 28.48 78.26 28.55 78.28 28.56 78.3 28.55 78.43 28.46 78.39 28.4 78.28 28.47"/><polygon id="polygon209" points="77.89 31.02 77.87 31.02 77.75 31 77.74 31.08 77.84 31.09 77.92 31.21 77.98 31.17 77.89 31.03 77.89 31.02"/><path id="path211" d="M73.85,34.47v.14H74c.08,0-.06-.09-.06-.09s-.14,0-.13-.05Z"/><polygon id="rect213" points="74.08 34.48 74.13 34.42 74.2 34.48 74.15 34.54 74.08 34.48"/><polygon id="rect215" points="71.86 32.16 71.91 32.11 71.98 32.18 71.93 32.23 71.86 32.16"/><polygon id="polygon219" points="75.4 48.1 75.28 48.04 75.25 48.1 75.32 48.14 75.3 48.17 75.35 48.22 75.41 48.16 75.45 48.12 75.4 48.1"/><polygon id="polygon221" points="74.46 47.21 74.41 47.15 74.34 47.21 74.3 47.24 74.34 47.27 74.42 47.33 74.47 47.27 74.42 47.24 74.46 47.21"/><path id="path223" d="M83.53,44.86a.13.13,0,0,0-.09-.09l0,.07h0v.09l0,.05a.14.14,0,0,0,0-.13Z"/><polygon id="polygon225" points="83.64 44.63 83.53 44.62 83.53 44.51 83.65 44.52 83.64 44.63"/><path id="path227" d="M86.47,43.66c.06,0,.12-.09.11.05s-.06.09-.11.14S86.4,43.71,86.47,43.66Z"/><path id="path231" d="M87.09,43.13h0a.13.13,0,0,0,0-.08l-.06,0a.11.11,0,0,1,0,0,.1.1,0,0,0,0,.07,0,0,0,0,0,0,0v-.07a0,0,0,0,1,0,0Z"/><path id="path233" d="M86.93,43.19c0,.08,0,.15,0,.16l.07,0a1.36,1.36,0,0,1,0-.14Z"/><path id="path235" d="M86.67,43.49h-.08c0,.06,0,.13.07.14v-.07h0s0,0,0-.06Z"/><path id="path237" d="M86.34,42a.05.05,0,0,0,0,0s-.14,0-.19,0l0,.06a.18.18,0,0,1,.13,0h.06Z"/><path id="path241" d="M83,38.05a.36.36,0,0,1-.15.08l0,.13-.06.05a.41.41,0,0,1,0,.13c0,.08-.12.13-.12.13l0,.06a1.81,1.81,0,0,1-.33,0,.09.09,0,0,1,0-.18c.08,0,0-.21,0-.21h.1s0-.23,0-.23,0-.07-.06-.11-.11-.16-.16-.15h-.25l0,.08-.14,0s0,.1,0,.13-.35.27-.23,0l0-.08v-.11h-.22s-.11,0-.11-.09a.42.42,0,0,0,0-.11l-.25-.28-.31,0,0-.06-.18,0c-.22-.11-.42,0-.38.18s.1.26,0,.26a.13.13,0,0,1-.14-.1s-.1,0-.1,0,0,.15,0,.2,0,.12-.09.09-.13-.15-.11-.19-.17-.27,0-.31,0-.15.06-.17l.1-.05h.09l.07,0-.16,0h-.28a.47.47,0,0,0-.22.27c-.1.19-.33-.07-.25-.17s-.27,0-.33,0-.24,0-.24,0-.21,0-.16-.09a.23.23,0,0,0,0-.12h-.06l-.07.13c-.18,0-.22.1-.19.16s0,0-.07.08,0,.08.08.12,0,0,0,.1.19,0,.11.09a.36.36,0,0,1-.26,0c0,.11-.24.08-.27,0s-.21-.26-.21-.26l-.23,0c0-.17.11-.08.16-.22a1.83,1.83,0,0,0,.07-.36s-.19,0-.2.05-.14.1-.14.1S77,37,77,37s-.07.07-.07.07,0,.08,0,.11-.35,0-.38,0l-.15-.06-.15-.1-.17.07,0,0h-.18v.15l.33,0,0,.3-.13,0H76l0-.08h-.08v.27l.08.06.06.07h.12l0,.15h.31l0,.06h.18l.35.36,0,.11-.06,0c0,.09-.16,0-.16,0v.07l.08,0,.09,0,.12-.21c.14-.08.2,0,.21.12s-.06.06-.06.06V39l.07,0a.14.14,0,0,1,0,.23l0,.12a.14.14,0,0,1-.17.09l0,.08-.15,0,.29,0c0-.1.1-.12.14-.07a.3.3,0,0,1,0,.13h.08v.14l.07,0v.39l.08.1c.15-.06.15,0,.08.09s0,.27,0,.27l-.06.06v.1l-.07,0V41a.33.33,0,0,0-.31,0c-.11-.08-.34,0-.34,0s-.08.12-.08.12l-.09.1c.06.13-.06.14-.06.14v.23l-.15.14,0,.32c0,.09.18.1.21,0s.19.1.19.1H77L77,42l-.07,0v-.36L77,41.5c.15,0,.1.32.1.35s.07.13.13.1,0,.14-.07.13,0,.12,0,.12l.06,0-.11.08-.09.11-.13,0-.14,0,0-.08h-.09v.17l-.06.07-.15.15c.2,0,0,.14-.07.14.11,0,0,.15-.29.06V43h-.1l.09.1h.09l0,.21c0,.16-.41.05-.44,0v.23h-.08v.36l.14,0V44H76l.47-.51.28-.06c0-.12.15,0,.15,0a.12.12,0,0,1,.15.07l.15,0c.14,0,.06,0,.07.1a.05.05,0,0,0,.07,0l0-.17.08,0-.08-.09-.13-.06-.15-.06c-.1-.14,0-.12.12-.1h.16s.19.24.19.31.08.07.08.07h.11l0,.08h.11l0,.08h.22l0-.11-.21,0v-.12l-.15,0c-.05-.21,0-.27.1-.17H78l0-.19.08,0,0-.26-.08,0V42.7h.31a.41.41,0,0,1,0-.24h.09v.07l.37,0,.27-.3s0,0,0-.07-.08,0-.14,0,0-.24,0-.29.21-.13.18,0S79,42,79,42a.16.16,0,0,1,.28,0s.08.08.14,0,.14.11.11.19-.24.06-.25,0,0-.05-.08,0-.13.06-.19,0l0,0-.27.3h0c.15.09.07.2,0,.23a.4.4,0,0,1-.13,0l0,0-.32,0,0,.13a.17.17,0,0,0-.18.23.19.19,0,0,1,0,.16l.13.07.18,0c0-.13.13-.15.23-.23s.25.14.2.24a.45.45,0,0,0,0,.14v.11l-.12.05-.1,0v.06h-.33l-.06.06H78L78,44h-.11s-.18.09-.11.19-.31.08-.39-.05c0,.12-.16,0-.16,0l-.13,0,0-.18c0-.13-.25-.13-.24,0s-.44,0-.44,0L76.2,44l-.13.07v.07l-.22,0-.1,0,0-.07h-.09l-.1.13c-.26,0-.5.16-.48.23s-.1.12-.1.12l-.11,0-.07.11-.15,0,0,.26-.07,0v.11l-.09,0v.06l-.12,0,.07.18.1,0c.17,0,.1.24.1.24h.1l0,.14.1.19a.13.13,0,0,0,.2.1s.09.15.09.15h.49s0,0,.06.08a2.61,2.61,0,0,0,.68,0c0-.11.3-.13.43,0a.39.39,0,0,0,.32,0l.18.22.13.28.2.06.15,0,.05.21h.11l0,.14c.13.09,0,.3,0,.3v.28l.1.05,0,.1.16.16h.19l.46.49.37.12.06.19h.1l.07-.06h.29l.15-.14.16,0,1.35-1.16-.12-.07v-.27c.22-.16.23-.45,0-.47s-.08-.19.06-.21l.09,0V46.6l.28-.26v-.2l-.61-.51c-.27-.1,0-.69.18-.68s0-.92,0-.92l-.1,0,0-.3H81L80.8,44l-.06.2c0,.26-.78.21-.81.17s-.3-.14-.3-.14-.19-.17-.23-.12-.21-.06-.21,0S79,44,79,44l-.24-.08.18,0,0-.15.31.16s.2,0,.2,0l0,.06a.2.2,0,0,1,.16.06c.06.08.38,0,.38,0l.08.08.13,0h.38l0-.23.07-.08v-.15l.08-.07v-.13l.08,0v-.27l.06,0v-.59l-.18-.17c0,.06-.21.06-.21.06s0,.09-.09.09.05.11,0,.18a.14.14,0,0,1-.13.08l-.18,0-.05.06h-.19l0-.16.22-.07.12-.06.07-.12c0-.13.15-.11.15-.11s.29-.24.3-.35.11-.42.28-.42h.32c.12-.05.08-.21.08-.21l.16,0,0,.09s.22,0,.25,0,.07-.13.13-.09.26-.09.26-.09.32,0,.32,0l0-.12s-.2-.28-.24-.28-.23-.17-.26-.11c-.19-.05-.18-.32-.18-.32l-.07-.18c0-.1-.19-.31-.22-.28a.17.17,0,0,1,0-.31s.17-.19.17-.19l.06-.17.21-.06,0-.16-.11,0s.12-.22.18-.22a3.94,3.94,0,0,0,.5,0,.73.73,0,0,0,.11-.26s.1-.05.14-.07a.45.45,0,0,0,.14-.16S83,38,83,38.05Z"/><path id="path245" d="M76.2,42.52s0,0,.08,0,0,.07,0,.07,0,0,0,.06a.14.14,0,0,1,0,.1s0,0-.09,0a.18.18,0,0,0-.1,0c-.05,0,0,.07,0,.07s-.19,0-.16,0,.08,0,0-.06,0,0,0-.07.09,0,.06-.05,0-.14,0-.07l0-.07s0,0-.07-.06,0-.13,0-.13v-.07c0-.09.2-.1.21,0a.5.5,0,0,1,0,.14l.06,0s0,.06-.06.06,0,0,0,0l0,.05Z"/><path id="path247" d="M75.6,42.61c0-.06.09-.3.16-.22s.12,0,.12,0,0,0,0,.11,0,.15-.08.16l-.14,0c-.05,0-.08-.09-.08-.09Z"/></g><path id="path3194" d="M51.91,42.11a9.21,9.21,0,1,1-9.2-9.21,9.2,9.2,0,0,1,9.2,9.21Z"/><path id="path3209" d="M18.42,9.41A9.21,9.21,0,1,1,9.21.2a9.21,9.21,0,0,1,9.21,9.21Z"/><path id="path3211" d="M18.42,42.11A9.21,9.21,0,1,1,9.21,32.9a9.21,9.21,0,0,1,9.21,9.21Z"/><path id="path3213" d="M18.42,74.36a9.21,9.21,0,1,1-9.21-9.21,9.21,9.21,0,0,1,9.21,9.21Z"/><path id="path3215" d="M51.91,74.36a9.21,9.21,0,1,1-9.2-9.21,9.2,9.2,0,0,1,9.2,9.21Z"/><path id="path3217" d="M85.41,74.36a9.21,9.21,0,1,1-9.21-9.21,9.2,9.2,0,0,1,9.21,9.21Z"/><path id="path3219" d="M85.41,9.41A9.21,9.21,0,1,1,76.2.2a9.2,9.2,0,0,1,9.21,9.21Z"/><path id="path3221" d="M51.91,9.41A9.21,9.21,0,1,1,42.71.2a9.2,9.2,0,0,1,9.2,9.21Z"/></g></g></g></g></svg>