<svg xmlns="http://www.w3.org/2000/svg" viewBox="0 0 178.82 147.58"><defs><style>.cls-1,.cls-2,.cls-5,.cls-6{fill:#fff;}.cls-1,.cls-2,.cls-3,.cls-4,.cls-6{stroke:#000;stroke-width:1.65px;}.cls-1,.cls-4,.cls-6{stroke-linecap:round;}.cls-1,.cls-2,.cls-3{stroke-miterlimit:10;}.cls-3,.cls-4{fill:none;}.cls-4,.cls-6{stroke-linejoin:round;}</style></defs><g id="Layer_2" data-name="Layer 2"><g id="Layer_1-2" data-name="Layer 1"><path class="cls-1" d="M.83,146.75s.62-28.6,23.73-42c16-9.25,107.11-12.8,129.71-4.09S178,142.62,178,142.62"/><path class="cls-2" d="M11.19,56.6C15.42,38.35,29.74,21.09,49.35,17c19.26-4,35.44,4.82,35.44,4.82s12-15.63,30.55-14.37,24.38,14,24.38,14,19.49-3.38,23.65,9.82c6,19.15-1.15,32.1-1.15,32.1s6.33-.42,4.42,6.41c-1.45,5.21-6.1,8.22-7.25,8.89a.1.1,0,0,0,0,.19c1.24.22,6,1.38,5,6.32S155.94,93,155.94,93s5.3,2.67,1.68,8.57c-3.21,5.24-18.28,14.59-60.79,17-31.29,1.74-63.25-.42-73.44-9.77S4.82,84,11.19,56.6Z"/><path class="cls-3" d="M42.13,62.11s10-15.58,33.52-17.88,34.07,7,34.07,7S104.29,66.3,82.83,70C58.34,74.14,42.13,62.11,42.13,62.11Z"/><path class="cls-2" d="M109.72,51.23s7.81-12.4,28.81-16.85c23.14-4.91,32.52,8.16,32.52,8.16S168.26,57.61,143.53,60C119.77,62.22,109.72,51.23,109.72,51.23Z"/><path class="cls-3" d="M162.22,63.37s-30.55,15.2-77.15,16.42c-29.43.76-46.14-1.25-43.9,8.06,1.9,7.94,40.4,15.19,67.09,12.85,30.87-2.7,48-7.77,48-7.77"/><path class="cls-4" d="M54.23,86.67S75,94,126.47,87.12c28.58-3.8,33-8.5,33-8.5"/><circle cx="70.08" cy="57.83" r="12.37"/><circle class="cls-5" cx="65.48" cy="62.42" r="4.6"/><circle class="cls-5" cx="72.56" cy="53.59" r="3.19"/><circle cx="135.79" cy="46.9" r="12.37"/><circle class="cls-5" cx="132.96" cy="50.61" r="4.6"/><circle class="cls-5" cx="140.04" cy="41.78" r="3.19"/><path class="cls-4" d="M35.53,49.18A52.71,52.71,0,0,1,68.6,32.39c20.93-2.09,30.14,4.33,30.14,4.33"/><path class="cls-6" d="M110.35,34.38s8.07-13.67,37.81-13.18"/><circle class="cls-5" cx="26.2" cy="22.12" r="10.15"/><circle class="cls-3" cx="26.2" cy="22.12" r="10.15"/></g></g></svg>