<svg xmlns="http://www.w3.org/2000/svg" viewBox="0 0 158.97 41.11"><g id="Layer_2" data-name="Layer 2"><g id="Layer_1-2" data-name="Layer 1"><path d="M10.71,39.73A10.85,10.85,0,0,1,6.64,33H0V4A12.32,12.32,0,0,1,6.44,13.9l1,8.14L7,22a2.15,2.15,0,0,0-1.39.62A2.2,2.2,0,0,0,4.94,24a2.08,2.08,0,0,0,.49,1.26,2,2,0,0,0,1.16.69l1.21.28A24.24,24.24,0,0,0,10.94,15c0-3.33-.44-6.63-.49-10A6,6,0,0,1,11.94,1a6,6,0,0,1,1.5,4c0,3.38-.49,6.71-.49,10a24.34,24.34,0,0,0,3.14,11.26l1.21-.28a2,2,0,0,0,1.16-.69A2.08,2.08,0,0,0,19,24a2.2,2.2,0,0,0-.62-1.41A2.13,2.13,0,0,0,16.94,22l-.49.08,1-8.14C18,9.79,20.31,5.81,23.89,4V33H17.25a10.39,10.39,0,0,1-4.07,6.72A4,4,0,0,0,12,41.11,4.37,4.37,0,0,0,10.71,39.73ZM3.14,23A4.41,4.41,0,0,1,5.2,20.4l-.8-6.71A10.73,10.73,0,0,0,2,8.2V23H3.14Zm3.38,8a12.83,12.83,0,0,1,.35-2.89l-.93-.2a4.15,4.15,0,0,1-1.76-1.09,4.25,4.25,0,0,1-1-1.8H2v6Zm4.4,0a2.56,2.56,0,0,0-.62-1.63,2.49,2.49,0,0,0-1.52-.82A9.66,9.66,0,0,0,8.43,31Zm0,2H8.7a9.9,9.9,0,0,0,2.22,4.27Zm3.14-6.27a25.19,25.19,0,0,1-2.14-5,25.19,25.19,0,0,1-2.14,5,4.27,4.27,0,0,1,2.14,1.42,4.35,4.35,0,0,1,2.14-1.43ZM15.42,31a9.66,9.66,0,0,0-.35-2.45,2.49,2.49,0,0,0-1.52.82A2.56,2.56,0,0,0,12.93,31Zm-.28,2H12.92v4.27A9.83,9.83,0,0,0,15.14,33Zm6.72-2V25H20.73a4.26,4.26,0,0,1-1,1.81A4.19,4.19,0,0,1,18,27.89L17,28.1A13.27,13.27,0,0,1,17.37,31Zm0-8V8.23a9.91,9.91,0,0,0-2.42,5.49l-.8,6.71a4.21,4.21,0,0,1,1.29,1.08A4.5,4.5,0,0,1,20.7,23h1.16Z"/><path d="M84.9,7.79A8.11,8.11,0,0,0,78,6.35,29.45,29.45,0,0,0,67.55,11.2,29.45,29.45,0,0,0,57.14,6.35,8.09,8.09,0,0,0,50.2,7.79,8,8,0,0,0,47,14.2V35.1h1.92V14.2a6.22,6.22,0,0,1,7.73-6A27.29,27.29,0,0,1,66,12.43a23.83,23.83,0,0,0-7,11.26,10.49,10.49,0,0,0,.09,6.56c.88,2.52,3,5.48,8.06,5.72h.7c5.06-.27,7.19-3.2,8.07-5.72A10.49,10.49,0,0,0,76,23.69a23.91,23.91,0,0,0-7-11.26,27.2,27.2,0,0,1,9.35-4.25,6.23,6.23,0,0,1,7.73,6V35.1h1.92V14.2A7.89,7.89,0,0,0,84.9,7.79ZM74.19,24.26a8.94,8.94,0,0,1-.07,5.42c-1,2.88-3.22,4.37-6.6,4.46-3.38-.09-5.6-1.58-6.61-4.46a8.86,8.86,0,0,1-.06-5.42,21.67,21.67,0,0,1,6.67-10.57A21.53,21.53,0,0,1,74.19,24.26Z"/><path d="M95.83,4.4H93.91V35.1h1.92Z"/><path d="M113.15,35.1h-1.91A11.36,11.36,0,0,0,99.79,23.84H95V22h4.75A13.28,13.28,0,0,1,113.15,35.1Z"/><path d="M107.82,18.78a7.25,7.25,0,0,1-7.3-7.19,7.31,7.31,0,0,1,14.61,0A7.28,7.28,0,0,1,107.82,18.78Zm0-12.43a5.24,5.24,0,1,0,5.33,5.24A5.29,5.29,0,0,0,107.82,6.35Z"/><path d="M125.6,14.14a7.14,7.14,0,0,1-7.18-7.07,7.19,7.19,0,0,1,14.37,0A7.15,7.15,0,0,1,125.6,14.14Zm0-12.25A5.19,5.19,0,0,0,120.37,7a5.24,5.24,0,0,0,10.47,0A5.19,5.19,0,0,0,125.6,1.89Z"/><path d="M136.65,35.1h-1.91v-17a12.12,12.12,0,0,1,24.23,0v17h-1.92v-17a10.2,10.2,0,0,0-20.4,0Z"/><path d="M126.58,21.92h-1.92V35.1h1.92Z"/></g></g></svg>