<svg xmlns="http://www.w3.org/2000/svg" viewBox="0 0 232.44 56.77"><g data-name="Layer 2"><g data-name="Layer 1"><path d="M59.47 34.32a3 3 0 0 0-2.61 1.39 2.73 2.73 0 0 0 0 2.86A2.93 2.93 0 0 0 59.47 40a2.82 2.82 0 1 0 0-5.64ZM55.74 41.7a2.41 2.41 0 1 0 2.52 2.39 2.47 2.47 0 0 0-2.52-2.39Z"/><ellipse cx="50.21" cy="49.56" rx="2.16" ry="2.08"/><path d="M44 51.39a1.69 1.69 0 1 0 1.76 1.69A1.7 1.7 0 0 0 44 51.39ZM37.85 53.43a1.44 1.44 0 1 0 1.48 1.43 1.41 1.41 0 0 0-1.48-1.43ZM32.14 54.25a1.26 1.26 0 1 0 1.3 1.26 1.34 1.34 0 0 0-1.3-1.26ZM26.39 53.43a1.44 1.44 0 1 0 1.48 1.43 1.48 1.48 0 0 0-1.48-1.43ZM20.27 51.34a1.78 1.78 0 0 0-1.53.83 1.65 1.65 0 0 0 0 1.69 1.78 1.78 0 0 0 1.53.83A1.73 1.73 0 0 0 22 53a1.83 1.83 0 0 0-1.73-1.66ZM14 47.48a2.21 2.21 0 0 0-1.88 1 1.91 1.91 0 0 0 0 2.08 2.15 2.15 0 0 0 1.88 1 2.09 2.09 0 1 0 0-4.17ZM8.5 41.7a2.44 2.44 0 1 0 0 4.87 2.44 2.44 0 1 0 0-4.87ZM4.76 34.32a2.93 2.93 0 0 0-2.6 1.39 2.73 2.73 0 0 0 0 2.86A2.93 2.93 0 0 0 4.76 40a2.82 2.82 0 1 0 0-5.64ZM3.42 25.11a3.3 3.3 0 1 0 0 6.6 3.3 3.3 0 1 0 0-6.6ZM4.76 16.77a3 3 0 0 0-2.6 1.39 2.73 2.73 0 0 0 0 2.86 2.93 2.93 0 0 0 2.6 1.39 2.82 2.82 0 1 0 0-5.64ZM8.5 10.21a2.52 2.52 0 0 0-2.21 1.21 2.37 2.37 0 0 0 0 2.44 2.61 2.61 0 0 0 2.21 1.21 2.49 2.49 0 0 0 2.5-2.43 2.56 2.56 0 0 0-2.5-2.43ZM14 5.08a2.09 2.09 0 1 0 0 4.17 2.12 2.12 0 0 0 2.16-2.08A2.12 2.12 0 0 0 14 5.08ZM20.27 2a1.73 1.73 0 0 0-1.75 1.69 1.76 1.76 0 0 0 3.51 0A1.79 1.79 0 0 0 20.27 2ZM26.39.43a1.49 1.49 0 0 0-1.53 1.48 1.49 1.49 0 0 0 1.53 1.48A1.47 1.47 0 0 0 27.87 2 1.52 1.52 0 0 0 26.39.43ZM32.09 0a1.28 1.28 0 0 0-1.3 1.26 1.31 1.31 0 0 0 2.61 0A1.29 1.29 0 0 0 32.09 0ZM37.85.43a1.48 1.48 0 0 0-1.48 1.44 1.48 1.48 0 0 0 3 0A1.42 1.42 0 0 0 37.85.43ZM44 2a1.77 1.77 0 0 0-1.53.82 1.67 1.67 0 0 0 0 1.7 1.77 1.77 0 0 0 1.53.82 1.73 1.73 0 0 0 1.76-1.69A1.67 1.67 0 0 0 44 2ZM50.21 5.13a2.12 2.12 0 0 0-2.16 2.08 2.16 2.16 0 0 0 4.32 0 2.12 2.12 0 0 0-2.16-2.08ZM55.74 10.21a2.43 2.43 0 1 0 2.52 2.43 2.47 2.47 0 0 0-2.52-2.43ZM59.47 16.77a3 3 0 0 0-2.61 1.39 2.73 2.73 0 0 0 0 2.86 2.93 2.93 0 0 0 2.61 1.39 2.88 2.88 0 0 0 2.88-2.82 2.83 2.83 0 0 0-2.88-2.82ZM46 32.71a1.26 1.26 0 0 0-1.16 1.91 1.23 1.23 0 0 0 1.16.61A1.31 1.31 0 0 0 47.24 34 1.27 1.27 0 0 0 46 32.71ZM42.7 37.44a1.33 1.33 0 0 0-1.17.61 1.36 1.36 0 0 0 0 1.3 1.25 1.25 0 0 0 1.17.65 1.26 1.26 0 0 0 0-2.52ZM37.8 40.48a1.47 1.47 0 0 0-1.25.7 1.29 1.29 0 0 0 0 1.39 1.42 1.42 0 0 0 1.25.69 1.39 1.39 0 1 0 0-2.78ZM32.05 41.31A1.87 1.87 0 1 0 34 43.18a1.94 1.94 0 0 0-1.95-1.87ZM26.25 40.18a2.13 2.13 0 1 0 2.2 2.13 2.17 2.17 0 0 0-2.2-2.13ZM21 36.62A2.35 2.35 0 1 0 23.46 39 2.38 2.38 0 0 0 21 36.62ZM17.58 31.84a2 2 0 1 0 2 1.95 2 2 0 0 0-2-1.95ZM16.77 26.63a1.52 1.52 0 1 0 1.57 1.52 1.51 1.51 0 0 0-1.57-1.52ZM18.16 21.5a1.26 1.26 0 1 0 1.3 1.26 1.25 1.25 0 0 0-1.3-1.26ZM21.49 16.81a1.26 1.26 0 0 0-1.17 1.91 1.35 1.35 0 0 0 2.47-.65 1.34 1.34 0 0 0-1.3-1.26ZM26.34 13.51a1.39 1.39 0 1 0 1.44 1.39 1.42 1.42 0 0 0-1.44-1.39Z"/><ellipse cx="32.13" cy="13.57" rx="1.93" ry="1.87"/><path d="M37.89 12.34a2.13 2.13 0 1 0 2.21 2.12 2.16 2.16 0 0 0-2.21-2.12ZM43.11 15.46a2.35 2.35 0 1 0 2.43 2.35 2.38 2.38 0 0 0-2.43-2.35ZM46.57 21a2 2 0 1 0 2 2 2 2 0 0 0-2-2Z"/><ellipse cx="41.26" cy="30.8" rx="1.21" ry="1.17"/><path d="M38.88 33.27a1.74 1.74 0 1 0 1.8 1.73 1.72 1.72 0 0 0-1.8-1.73ZM34.25 35.62a1.83 1.83 0 1 0 1.89 1.82 1.87 1.87 0 0 0-1.89-1.82ZM28.77 35.49a1.61 1.61 0 0 0-1.44.82 1.51 1.51 0 0 0 0 1.61 1.67 1.67 0 0 0 1.44.83 1.63 1.63 0 0 0 1.66-1.61 1.61 1.61 0 0 0-1.66-1.65ZM24.72 32.84A1.17 1.17 0 1 0 25.94 34a1.19 1.19 0 0 0-1.22-1.16ZM23.1 29.41a.87.87 0 1 0 .9.87.88.88 0 0 0-.9-.87ZM23 24.93a1.18 1.18 0 1 0 1.22 1.18A1.19 1.19 0 0 0 23 24.93ZM25.4 20.11a1.74 1.74 0 1 0 1.8 1.74 1.77 1.77 0 0 0-1.8-1.74ZM30 17.59a1.83 1.83 0 1 0 1.89 1.83A1.87 1.87 0 0 0 30 17.59ZM35.51 18.16a1.73 1.73 0 0 0-1.48.78 1.54 1.54 0 0 0 0 1.65 1.62 1.62 0 0 0 1.48.78 1.61 1.61 0 1 0 0-3.21ZM39.51 21.63a1.18 1.18 0 1 0 1.22 1.17 1.14 1.14 0 0 0-1.22-1.17ZM41.22 25.76a.87.87 0 1 0 .9.87.89.89 0 0 0-.9-.87ZM47.38 27.11A1.52 1.52 0 1 0 49 28.63a1.57 1.57 0 0 0-1.57-1.52ZM53.9 29a1.61 1.61 0 1 0 1.66 1.61A1.64 1.64 0 0 0 53.9 29ZM52.23 34.66a1.52 1.52 0 1 0 1.58 1.52 1.55 1.55 0 0 0-1.58-1.52ZM49.4 39.44a1.31 1.31 0 1 0 0 2.61 1.32 1.32 0 0 0 1.3-1.31 1.34 1.34 0 0 0-1.3-1.3ZM46 43a1.26 1.26 0 0 0-1 .57 1 1 0 0 0 0 1.13 1.22 1.22 0 0 0 1 .56 1.14 1.14 0 0 0 1.17-1.13A1.17 1.17 0 0 0 46 43ZM42.39 45.61a1 1 0 1 0 1 1 1 1 0 0 0-1-1ZM38.3 47.09a1.13 1.13 0 1 0 1.17 1.13 1.17 1.17 0 0 0-1.17-1.13ZM33.49 47.82a1.31 1.31 0 1 0 1.35 1.31 1.37 1.37 0 0 0-1.35-1.31ZM28 47.3a1.65 1.65 0 1 0 1.71 1.7A1.68 1.68 0 0 0 28 47.3ZM22.21 45.31a2 2 0 1 0 2 1.95 2 2 0 0 0-2-1.95ZM17.13 41.57A2.53 2.53 0 0 0 15 42.7a2.2 2.2 0 0 0 0 2.3 2.41 2.41 0 0 0 4.45-1.17 2.37 2.37 0 0 0-2.32-2.26ZM12.86 36a2.52 2.52 0 1 0 2.6 2.52 2.54 2.54 0 0 0-2.6-2.52Z"/><ellipse cx="10.45" cy="32.17" rx="2.07" ry="2"/><ellipse cx="10.32" cy="26.16" rx="1.66" ry="1.61"/><path d="M12 19a1.52 1.52 0 1 0 1.58 1.52A1.56 1.56 0 0 0 12 19ZM14.83 14.73a1.24 1.24 0 0 0-1.16.65 1.31 1.31 0 0 0 0 1.3 1.39 1.39 0 0 0 1.16.65A1.33 1.33 0 0 0 16.14 16a1.29 1.29 0 0 0-1.31-1.27ZM18.25 11.51a1.13 1.13 0 1 0 0 2.26 1.12 1.12 0 0 0 1.17-1.13 1.17 1.17 0 0 0-1.17-1.13ZM21.85 9.25a1 1 0 1 0 1 1 1 1 0 0 0-1-1ZM25.94 7.47a1.13 1.13 0 1 0 1.17 1.13 1.14 1.14 0 0 0-1.17-1.13ZM30.75 6.34a1.26 1.26 0 0 0-1.17.66 1.33 1.33 0 0 0 0 1.31 1.4 1.4 0 0 0 1.17.69 1.32 1.32 0 0 0 1.3-1.3 1.35 1.35 0 0 0-1.3-1.36ZM36.23 6.12A1.78 1.78 0 0 0 34.7 7a1.65 1.65 0 0 0 0 1.69 1.76 1.76 0 0 0 1.53.83 1.72 1.72 0 0 0 1.71-1.69 1.69 1.69 0 0 0-1.71-1.71ZM41.85 7.38a2 2 0 1 0 2.07 2 2.07 2.07 0 0 0-2.07-2ZM47.15 10.51a2.33 2.33 0 0 0-2.38 2.3 2.39 2.39 0 1 0 2.38-2.3ZM51.38 15.72A2.69 2.69 0 0 0 49.09 17a2.3 2.3 0 0 0 0 2.52 2.66 2.66 0 0 0 2.29 1.26 2.55 2.55 0 0 0 2.56-2.52 2.65 2.65 0 0 0-2.56-2.54ZM53.76 22.63a2.09 2.09 0 0 0-1.8 1 2 2 0 0 0 0 2 2 2 0 1 0 1.8-2.95ZM64.23 28.36a3.42 3.42 0 1 1-3.41-3.3 3.41 3.41 0 0 1 3.41 3.3ZM232.44 33.45c0-3.13-1.84-4.78-4.72-5.91-2.25-.87-4.22-1.61-5.75-2.22s-2.79-1.56-2.79-2.65c0-1.47 1.89-2.34 4.41-2.34a66.88 66.88 0 0 1 7.5.61h.09a.57.57 0 0 0 .59-.61V17.9a.66.66 0 0 0-.63-.61 35.32 35.32 0 0 0-7.37-.87c-6.3 0-9.31 2.61-9.31 6.25a5.83 5.83 0 0 0 4 5.74c3 1.17 9 2.56 9 5 0 1.91-.9 3-4 3a61.77 61.77 0 0 1-7.69-.61h-.09a.6.6 0 0 0-.63.61v2.29a.71.71 0 0 0 .63.65 39 39 0 0 0 7.69.87c6.96.09 9.07-3.47 9.07-6.77ZM165.91 20.5h-6.78v18.85a.69.69 0 0 1-.68.66h-3.37a.68.68 0 0 1-.67-.66V20.5h-6.79a.62.62 0 0 1-.68-.61v-2.6a.65.65 0 0 1 .68-.61h18.29a.65.65 0 0 1 .68.61v2.6a.62.62 0 0 1-.68.61ZM144 31V17.33a.65.65 0 0 0-.68-.61h-3.37a.64.64 0 0 0-.67.61V31c0 3.74-1.8 5.52-5.44 5.52s-5.44-1.78-5.44-5.52V17.33a.64.64 0 0 0-.67-.61h-3.38a.64.64 0 0 0-.67.61V31c0 7 4.72 9.3 10.16 9.3S144 38 144 31ZM174.41 29.89h10.88a.68.68 0 0 0 .67-.66v-2.39a.68.68 0 0 0-.67-.65h-10.88v-3c0-2.74.09-2.83 2.7-2.83h8.58a.68.68 0 0 0 .68-.65v-2.07c0-.48-.18-.61-.68-.7a45 45 0 0 0-7.32-.48c-5.62 0-8.64 0-8.64 6.74v10.38c0 6.77 3 6.73 8.64 6.73a43.79 43.79 0 0 0 7.32-.48c.5 0 .68-.21.68-.69v-2.09a.68.68 0 0 0-.68-.65h-8.58c-2.57 0-2.7-.09-2.7-2.82v-3.69ZM107.3 29.89h10.88a.68.68 0 0 0 .67-.66v-2.39a.68.68 0 0 0-.67-.65H107.3v-3c0-2.74.09-2.83 2.69-2.83h8.59a.67.67 0 0 0 .67-.65v-2.07c0-.48-.18-.61-.67-.7a45 45 0 0 0-7.33-.48c-5.62 0-8.63 0-8.63 6.74v10.38c0 6.77 3 6.73 8.63 6.73a43.84 43.84 0 0 0 7.33-.48c.49 0 .67-.21.67-.69v-2.09a.67.67 0 0 0-.67-.65H110c-2.56 0-2.69-.09-2.69-2.82v-3.69ZM211.63 39.35l-5.31-8.77c2.79-1 4.59-2.95 4.59-6.43v-.26c0-5.6-4.81-7.43-10.07-7.43a72.37 72.37 0 0 0-8.05.44c-.67.08-1.07.34-1.07 1v21.5a.67.67 0 0 0 .67.65h3.42a.64.64 0 0 0 .63-.65v-8.12c.76 0 3.5.13 4.4.13h.76l4.9 7.94c.18.31.32.66.68.66h4.13a.38.38 0 0 0 .41-.39.72.72 0 0 0-.09-.27Zm-5.44-15.2c0 2.87-1.89 3.52-5.39 3.52-.59 0-3.87-.09-4.41-.09V20.5c.58-.08 3.69-.13 4.41-.13 3.41 0 5.39 1 5.39 3.52ZM98.94 39.35l-5.35-8.77c2.78-1 4.58-2.95 4.58-6.43v-.26c0-5.6-4.81-7.43-10.07-7.43a72 72 0 0 0-8 .44c-.68.08-1.08.34-1.08 1v21.5a.67.67 0 0 0 .67.65h3.42a.64.64 0 0 0 .63-.65v-8.12c.76 0 3.5.13 4.4.13h.77l4.9 7.94c.18.31.31.66.67.66h4.14a.37.37 0 0 0 .4-.39.63.63 0 0 0-.08-.27Zm-5.44-15.2c0 2.87-1.89 3.52-5.35 3.52-.59 0-3.87-.09-4.41-.09V20.5c.59-.08 3.69-.13 4.41-.13 3.41 0 5.35 1 5.35 3.52Z"/></g></g></svg>