<svg xmlns="http://www.w3.org/2000/svg" viewBox="0 0 232.44 43.35"><defs><style>.cls-1{fill:#100c0c}</style></defs><g id="Layer_2" data-name="Layer 2"><g id="Layer_1-2" data-name="Layer 1"><path d="M0 21.38V1.25C0 .46.14.15 1 .17 6.51.28 12 0 17.5.36c5.31.4 10.06 2.16 13.6 6.37a18.3 18.3 0 0 1 4 9.67 28.9 28.9 0 0 1-1.2 13.54c-2.51 7.07-7.73 11-15 12.28a32.24 32.24 0 0 1-5.8.44h-12c-.83.02-1.1-.13-1.1-1.05.05-6.75 0-13.49 0-20.23Zm11.24-.06v11.12c0 .58.08.85.75.81 1-.07 1.94 0 2.91 0a8.05 8.05 0 0 0 7.93-6.06 21.38 21.38 0 0 0 .2-11.47 7.51 7.51 0 0 0-6.56-6.05 38.16 38.16 0 0 0-4.41-.16c-.69 0-.83.21-.83.85.05 3.64.04 7.29.04 10.96ZM102.43 10.43c9.16-.35 15.63 5.76 16 15.13a20.92 20.92 0 0 1-1.4 9.13c-2.09 4.92-5.91 7.58-11.15 8.33a18.6 18.6 0 0 1-8.06-.48A13.57 13.57 0 0 1 88.37 33a21.25 21.25 0 0 1 .07-12.82 13.42 13.42 0 0 1 12.09-9.61Zm-4.08 16.34a18.66 18.66 0 0 0 .28 3.58 11.84 11.84 0 0 0 .57 2.12 3.76 3.76 0 0 0 3.8 2.64 3.56 3.56 0 0 0 3.72-2.76 18.4 18.4 0 0 0 0-10.92 3.61 3.61 0 0 0-3.76-2.85 3.76 3.76 0 0 0-3.93 2.78 15.73 15.73 0 0 0-.68 5.41ZM58.83 29.79h-8.65c-.76 0-.86.22-.75.9.41 2.69 2.67 4.58 5.78 4.74A20.45 20.45 0 0 0 64 34.07c.67-.27.87-.16 1 .56q.54 2.74 1.25 5.46c.17.64.06.91-.55 1.2-3.55 1.71-7.3 1.93-11.1 1.93A19.2 19.2 0 0 1 47.52 42a13 13 0 0 1-8.26-9.15 22.63 22.63 0 0 1 .29-12.94c1.82-5.65 5.89-8.63 11.72-9.33A20.72 20.72 0 0 1 59 11c5.58 1.48 9 5.78 9.42 11.7.14 2.1.06 4.2.12 6.3 0 .66-.23.76-.81.76-3 .01-5.95.03-8.9.03Zm-4.74-6.87h3.81c.65 0 .89-.12.81-.82a4.45 4.45 0 0 0-4.59-4.23 4.5 4.5 0 0 0-4.49 4.37c-.05.56.12.69.64.68 1.27-.02 2.54 0 3.82 0ZM207.84 29.79h-8.75c-.63 0-.77.13-.67.78.45 2.81 2.63 4.69 5.78 4.86a20.62 20.62 0 0 0 8.86-1.43c.58-.24.78-.14.91.47.41 1.93.83 3.85 1.32 5.75.14.56 0 .75-.49 1-3.44 1.67-7.12 2-10.86 2a19.28 19.28 0 0 1-8-1.48 13.09 13.09 0 0 1-7.77-9.46 23.2 23.2 0 0 1 .34-12.28 13.05 13.05 0 0 1 11.75-9.44 21.57 21.57 0 0 1 7.88.52c5.18 1.46 8.09 4.94 9 10.14.48 2.65.23 5.33.3 8 0 .66-.41.55-.79.55Zm-4.62-6.87h3.81c.69 0 .76-.25.7-.82a4.44 4.44 0 0 0-4.57-4.24 4.51 4.51 0 0 0-4.52 4.43c0 .51.1.63.57.62 1.34 0 2.68.01 4.01.01ZM177 1v8.78c0 .94.18 1.25 1.18 1.19 1.63-.09 3.28 0 4.92 0 .64 0 .79.18.78.79q-.06 3.35 0 6.71c0 .55-.13.74-.72.72h-5.43c-.56 0-.72.15-.72.72v11.72c0 2.09 1 3 3.16 3a14.42 14.42 0 0 0 4.21-.87c.53-.18.7-.13.69.47v6.71a.67.67 0 0 1-.46.76 19.37 19.37 0 0 1-12.29 1c-3.54-.87-5.15-3.45-5.79-6.81a25.4 25.4 0 0 1-.33-4.69V19.98c0-.67-.19-.84-.84-.82-.93.05-2.18.34-2.71-.14s-.16-1.81-.18-2.77v-4.5c0-.63.18-.87.79-.76h.21c.89-.06 2.11.39 2.59-.19s.14-1.71.15-2.61V3.48c0-.36-.07-.68.5-.77 3.37-.52 6.77-1.1 10.29-1.71ZM160.28 33.55v7.38a.69.69 0 0 1-.5.74 19.59 19.59 0 0 1-12.18 1.07c-3.43-.81-5.14-3.27-5.82-6.55a19.83 19.83 0 0 1-.39-4.28V19.99c0-.63-.14-.93-.81-.81a.34.34 0 0 1-.1 0c-.93-.06-2.17.4-2.7-.19s-.13-1.71-.13-2.61v-4.61c0-.59.12-.84.77-.8s1.54 0 2.31 0c.53 0 .68-.15.67-.67V3.79c0-.71.19-1 .89-1.08 3-.48 5.94-1 8.9-1.54.82-.16 1.09 0 1.07.86-.06 2.7 0 5.41 0 8.11 0 .63.13.86.81.84 1.74-.06 3.49 0 5.23 0 .56 0 .84.06.82.74v6.81c0 .54-.17.67-.69.66h-5.22c-.7 0-1 .1-1 .9.05 3.74 0 7.48 0 11.21 0 2.61 1.2 3.61 3.82 3.28a30.56 30.56 0 0 0 4.25-1.03ZM72.6 21.28V.95c0-.75.17-1 .94-.95 3 .05 6 0 8.94 0 .64 0 .86.14.86.82v41.07c0 .63-.17.77-.78.77q-4.57-.06-9.14 0c-.71 0-.8-.25-.8-.86-.01-6.8-.02-13.68-.02-20.52ZM133.4 26.89V41.7c0 .81-.23 1-1 1q-4.41-.06-8.84 0c-.66 0-.91-.1-.91-.85v-30c0-.66.19-.83.84-.82h9c.75 0 .86.26.86.92.03 4.93.05 9.94.05 14.94Z" class="cls-1"/><path d="M220.11 37.24a6.17 6.17 0 1 1 6.17 6.11 6.2 6.2 0 0 1-6.17-6.11Z" style="fill:#87bc26"/><path d="M128 7.16h-4.62c-.55 0-.75-.12-.74-.71V.75c0-.66.24-.76.81-.75h9.14c.62 0 .8.18.79.79v5.6c0 .6-.12.81-.76.79-1.51-.05-3.05-.02-4.62-.02Z" class="cls-1"/></g></g></svg>