



<?xml version="1.0" standalone="no"?>
<!DOCTYPE svg PUBLIC "-//W3C//DTD SVG 20010904//EN"
 "http://www.w3.org/TR/2001/REC-SVG-20010904/DTD/svg10.dtd">
<svg version="1.0" xmlns="http://www.w3.org/2000/svg"
 width="118.000000pt" height="118.000000pt" viewBox="0 0 118.000000 118.000000"
 preserveAspectRatio="xMidYMid meet" fill="white">
<metadata>
Created by potrace 1.10, written by Peter Selinger 2001-2011
</metadata>
<g transform="translate(0.000000,118.000000) scale(0.100000,-0.100000)"
fill="#000000" stroke="none">
<path d="M576 1090 c-35 -198 -88 -312 -173 -374 -57 -42 -197 -90 -310 -107
-45 -7 -80 -15 -78 -19 3 -4 32 -10 66 -14 74 -9 215 -49 270 -77 126 -64 198
-203 235 -454 l7 -50 22 111 c23 115 48 199 72 248 24 47 94 116 145 142 61
31 200 71 277 80 34 4 63 10 66 14 2 4 -33 12 -78 19 -116 18 -259 66 -309
104 -86 66 -134 164 -171 356 l-23 116 -18 -95z m70 -255 c52 -109 116 -168
236 -215 l73 -28 -30 -12 c-101 -43 -155 -72 -191 -103 -41 -36 -100 -137
-124 -210 -14 -46 -22 -40 -45 31 -38 117 -144 227 -252 263 -82 26 -83 29
-12 58 99 40 122 56 176 115 44 48 62 80 104 191 l11 30 11 -25 c5 -14 25 -56
43 -95z"/>
</g>
</svg>
