<svg xmlns="http://www.w3.org/2000/svg" width="157.333" height="157.333" fill="#fff" version="1.0" viewBox="0 0 118 118"><path fill="#000" d="M57.6 9c-3.5 19.8-8.8 31.2-17.3 37.4-5.7 4.2-19.7 9-31 10.7-4.5.7-8 1.5-7.8 1.9.3.4 3.2 1 6.6 1.4 7.4.9 21.5 4.9 27 7.7 12.6 6.4 19.8 20.3 23.5 45.4l.7 5 2.2-11.1c2.3-11.5 4.8-19.9 7.2-24.8 2.4-4.7 9.4-11.6 14.5-14.2 6.1-3.1 20-7.1 27.7-8 3.4-.4 6.3-1 6.6-1.4.2-.4-3.3-1.2-7.8-1.9-11.6-1.8-25.9-6.6-30.9-10.4-8.6-6.6-13.4-16.4-17.1-35.6L59.4-.5 57.6 9zm7 25.5C69.8 45.4 76.2 51.3 88.2 56l7.3 2.8-3 1.2C82.4 64.3 77 67.2 73.4 70.3c-4.1 3.6-10 13.7-12.4 21-1.4 4.6-2.2 4-4.5-3.1-3.8-11.7-14.4-22.7-25.2-26.3-8.2-2.6-8.3-2.9-1.2-5.8 9.9-4 12.2-5.6 17.6-11.5 4.4-4.8 6.2-8 10.4-19.1l1.1-3 1.1 2.5c.5 1.4 2.5 5.6 4.3 9.5z"/></svg>