<?xml version="1.0" encoding="utf-8"?>
<!-- Generator: Adobe Illustrator 25.0.0, SVG Export Plug-In . SVG Version: 6.00 Build 0)  -->
<svg version="1.1" id="Layer_1" xmlns="http://www.w3.org/2000/svg" xmlns:xlink="http://www.w3.org/1999/xlink" x="0px" y="0px"
	 viewBox="0 0 1826.8 345.2" style="enable-background:new 0 0 1826.8 345.2;" xml:space="preserve">
<style type="text/css">
	.st0{enable-background:new    ;}
	.st1{fill:#FFFFFF;}
	.st2{fill:none;stroke:#F7FF6E;stroke-width:11;stroke-miterlimit:10;}
	.st3{fill:none;}
</style>
<g id="Layer_2_1_">
	<g id="Layer_1-2">
		<g class="st0">
			<path class="st1" d="M86.9,167.6c4.2,0.2,9.2,0.5,15.2,0.8s12.2,1,18.8,2c6.6,1,13.1,2.6,19.7,4.7c6.6,2.1,12.5,5,17.8,8.6
				c5.3,3.6,9.6,8.2,12.8,13.8c3.2,5.5,4.8,12.1,4.8,19.9c0,9-1.6,16.6-4.7,22.8c-3.1,6.3-7.2,11.4-12.2,15.3c-5,4-10.6,7-16.9,9.2
				c-6.3,2.2-12.6,3.8-19.1,4.7c-6.5,0.9-12.7,1.5-18.6,1.7c-5.9,0.2-11.1,0.3-15.5,0.3c-11.9,0-22.3-1.2-31.3-3.6
				c-9-2.4-16.7-5.4-23.1-9.1c-6.5-3.6-11.8-7.7-15.9-12c-4.2-4.4-7.5-8.4-10-12.2c-2.5-3.8-4.3-6.9-5.3-9.5c-1-2.6-1.6-4.1-1.6-4.5
				l25-6.9c0,0.2,0.8,2,2.5,5.5c1.7,3.4,4.8,7.1,9.4,11.1c4.6,4,10.9,7.6,18.9,10.8c8,3.2,18.5,4.8,31.4,4.8
				c15.2,0,26.9-0.9,35.2-2.8c8.2-1.9,14.3-4.2,18.1-7c3.9-2.8,6.1-5.9,6.7-9.2c0.6-3.3,0.9-6.5,0.9-9.4c0-1.3-0.3-3.1-0.9-5.6
				c-0.6-2.5-3-5-7-7.5c-4.1-2.5-10.4-4.8-19.1-6.9c-8.7-2.1-21-3.3-37.1-3.8c-6.9-0.2-14.9-0.7-24.1-1.6
				c-9.2-0.8-17.9-2.9-26.1-6.3c-8.2-3.3-15.2-8.4-20.8-15.3s-8.4-16.5-8.4-28.8c0-6.7,1.4-13.3,4.1-19.9c2.7-6.6,7-12.5,13-17.7
				c5.9-5.2,13.8-9.4,23.6-12.7c9.8-3.2,21.7-4.8,35.6-4.8c15.2,0,28,2,38.5,6.1c10.4,4.1,18.8,8.6,25.2,13.6
				c6.4,5,11,9.6,13.9,13.9c2.9,4.3,4.5,6.6,4.7,7l-22.8,11.9c-0.2-0.2-1.3-1.7-3.3-4.5c-2-2.8-5.3-5.9-10-9.2
				c-4.7-3.3-10.8-6.4-18.3-9.1c-7.5-2.7-16.8-4.1-27.8-4.1c-3.8,0-8.5,0.3-14.4,0.8c-5.8,0.5-11.4,1.8-16.7,3.9
				c-5.3,2.1-9.9,5.1-13.8,8.9c-3.9,3.9-5.8,9.1-5.8,15.8c0,4,0.7,7.5,2,10.6c1.4,3.1,4,5.7,8,7.8c4,2.1,9.5,3.8,16.7,5
				C66.1,166.3,75.5,167.2,86.9,167.6z"/>
			<path class="st1" d="M292,87.2c16,0,29.8,2.2,41.1,6.6c11.4,4.4,20.7,10.6,28,18.8c7.3,8.1,12.6,17.9,15.9,29.4
				c3.3,11.5,5,24.3,5,38.5c0,14.6-2.1,27.6-6.3,39.1c-4.2,11.5-10,21.2-17.5,29.2c-7.5,8-16.6,14.2-27.2,18.4
				c-10.6,4.3-22.4,6.4-35.3,6.4c-8.1,0-15.6-1.4-22.5-4.1c-6.9-2.7-13-6.2-18.4-10.5c-5.4-4.3-10.2-9.1-14.2-14.5
				c-4.1-5.4-7.3-10.8-9.8-16.3l-2.5-0.3v107.9h-26V94.7h26v37.5h2.5c6.7-13.8,15.2-24.7,25.6-32.8C266.8,91.3,278.7,87.2,292,87.2z
				 M292.6,247.6c13.1,0,23.8-2.1,32-6.3c8.2-4.2,14.7-9.5,19.4-15.9c4.7-6.5,7.9-13.6,9.5-21.6c1.7-7.9,2.5-15.7,2.5-23.5
				c0-23.3-5.1-40.4-15.3-51.1c-10.2-10.7-26.5-16.1-48.8-16.1c-10.4,0-19.6,2.3-27.5,6.9c-7.9,4.6-14.5,10.2-19.9,16.9
				c-5.3,6.7-9.3,13.9-12,21.7c-2.7,7.8-4.1,15-4.1,21.4c0,9.6,1.7,18.5,5,26.7c3.3,8.2,7.9,15.4,13.8,21.4
				c5.8,6,12.7,10.8,20.5,14.2S283.9,247.6,292.6,247.6z"/>
			<path class="st1" d="M555.9,217.9c0,5.8,1,10.7,3,14.5c2,3.9,4.2,6.9,6.7,9.1c2.5,2.2,4.8,3.7,7,4.5c2.2,0.8,3.5,1.4,3.9,1.6
				l-5.9,25.3c-2.5-0.6-5.3-1.7-8.3-3.3c-3-1.6-6.1-3.5-9.2-5.9c-3.1-2.4-6.2-5.2-9.1-8.4c-2.9-3.2-5.5-6.9-7.8-11.1h-3.8
				c-1.9,1.9-4.2,4.5-6.9,7.8c-2.7,3.3-6.3,6.7-10.6,10.2c-4.4,3.4-9.6,6.4-15.6,8.9c-6,2.5-13.3,3.8-21.9,3.8
				c-11.9,0-22.4-2.1-31.6-6.3c-9.2-4.2-16.9-9.6-23.1-16.4c-6.3-6.8-11-14.4-14.2-22.8c-3.2-8.4-4.8-17-4.8-25.8
				c0-7.9,1.4-15.8,4.1-23.6c2.7-7.8,7-14.9,12.8-21.1c5.8-6.3,13.4-11.4,22.7-15.3c9.3-4,20.6-5.9,33.9-5.9
				c8.1,0,15.3,1.5,21.4,4.4c6.1,2.9,11.3,6.2,15.5,9.7c5,4.4,9.3,9.2,12.8,14.4h3.4c-0.8-6.7-2.4-13.2-4.7-19.5
				c-2.3-6.4-5.7-12-10.3-17c-4.6-5-10.5-9-17.7-12c-7.2-3-16.1-4.5-26.7-4.5c-17.5,0-31.5,4.1-41.9,12.2L413,104.7
				c15-11.9,34.3-17.8,57.8-17.8c16.9,0,30.9,2.7,42.1,8c11.1,5.3,20,12.4,26.6,21.1c6.6,8.8,11.1,18.7,13.8,29.9
				c2.6,11.2,3.9,22.6,3.9,34.2c-0.2,6-0.4,11.6-0.6,16.6c-0.2,4.4-0.4,8.6-0.5,12.7C556,213.4,555.9,216.3,555.9,217.9z
				 M477.4,248.9c10,0,18.3-1.5,25-4.4c6.7-2.9,12-6.6,15.9-10.9c4-4.4,6.7-9.1,8.3-14.1c1.6-5,2.3-9.5,2.3-13.4
				c0-5.2-1.2-10.4-3.6-15.5c-2.4-5.1-5.8-9.6-10.3-13.6c-4.5-4-10-7.2-16.4-9.7c-6.5-2.5-13.7-3.8-21.6-3.8c-4,0-8.7,0.6-14.1,1.7
				c-5.4,1.1-10.6,3.2-15.6,6.3c-5,3-9.2,7.1-12.7,12.3c-3.4,5.2-5.2,11.8-5.2,19.7c0,5.6,1,11.2,3.1,16.6
				c2.1,5.4,5.1,10.3,9.1,14.5c4,4.3,9,7.7,15,10.3C462.8,247.6,469.7,248.9,477.4,248.9z"/>
			<path class="st1" d="M686.9,87.2c9.4,0,17.3,1.5,23.8,4.4c6.5,2.9,11.8,6.9,15.9,11.9l-19.1,19.4c-2.1-2.9-4.8-5.3-8.3-7
				c-3.4-1.8-7.6-2.7-12.3-2.7c-9.4,0-17.8,2.1-25.3,6.4c-7.5,4.3-13.9,9.9-19.1,16.9c-5.2,7-9.2,14.8-12,23.5
				c-2.8,8.7-4.2,17.4-4.2,26.1v79.7h-26V94.4h26v37.8h2.5c2.5-5.4,5.4-10.8,8.8-16.1c3.3-5.3,7.3-10.1,11.9-14.4
				c4.6-4.3,10-7.8,16.1-10.5C671.6,88.6,678.8,87.2,686.9,87.2z"/>
			<path class="st1" d="M817.6,207l70,59.1h-41l-70-59.7h-2.8v59.4h-26V39.1h26v113.8h3.8l69.1-58.5h41l-101.9,85.7h3.1L817.6,207z"
				/>
			<path class="st1" d="M909.5,265.8V46.9h26v218.9H909.5z"/>
			<path class="st1" d="M1123.1,177.3v13.1H989.6c1.5,19.6,7.1,34,16.9,43.1c9.8,9.2,24.2,13.8,43.1,13.8c3.5,0,7.2-0.4,10.9-1.1
				c3.8-0.7,7.5-1.8,11.3-3.1c3.8-1.4,7.3-3.1,10.6-5.3c3.3-2.2,6.3-4.8,8.8-8l20.3,16.6c-4,5-8.5,9.2-13.8,12.5
				c-5.2,3.3-10.6,6.1-16.1,8.3c-5.5,2.2-11.1,3.8-16.6,4.7c-5.5,0.9-10.7,1.4-15.5,1.4c-27.9,0-49.3-8-64.1-23.9
				c-14.8-15.9-22.2-39-22.2-69.3c0-4.8,0.5-10.4,1.4-16.7c0.9-6.4,2.6-13,5-19.9c2.4-6.9,5.7-13.7,9.8-20.5
				c4.2-6.8,9.4-12.8,15.8-18.1c6.4-5.3,14-9.6,23-13c9-3.3,19.4-5,31.3-5c10.8,0,20.2,1.6,28.1,4.8c7.9,3.2,14.6,7.4,20,12.5
				c5.4,5.1,9.8,10.9,13.1,17.5c3.3,6.6,5.9,13.2,7.7,20c1.8,6.8,3,13.2,3.6,19.4C1122.8,167.3,1123.1,172.7,1123.1,177.3z
				 M1096.5,164.5c-0.6-5.8-1.8-11.8-3.6-18c-1.8-6.1-4.4-11.7-8-16.7c-3.5-5-8.2-9.1-13.9-12.2c-5.7-3.1-12.9-4.7-21.4-4.7
				c-10.4,0-19.2,1.5-26.3,4.4c-7.1,2.9-12.9,6.8-17.5,11.6c-4.6,4.8-8.1,10.3-10.5,16.4c-2.4,6.2-4.1,12.6-5.2,19.2H1096.5z"/>
			<path class="st1" d="M1355.4,167.6c4.2,0.2,9.2,0.5,15.2,0.8c5.9,0.3,12.2,1,18.8,2c6.6,1,13.1,2.6,19.7,4.7
				c6.6,2.1,12.5,5,17.8,8.6c5.3,3.6,9.6,8.2,12.8,13.8c3.2,5.5,4.8,12.1,4.8,19.9c0,9-1.6,16.6-4.7,22.8
				c-3.1,6.3-7.2,11.4-12.2,15.3c-5,4-10.6,7-16.9,9.2c-6.3,2.2-12.6,3.8-19.1,4.7c-6.5,0.9-12.7,1.5-18.6,1.7
				c-5.9,0.2-11.1,0.3-15.5,0.3c-11.9,0-22.3-1.2-31.3-3.6c-9-2.4-16.7-5.4-23.1-9.1c-6.5-3.6-11.8-7.7-15.9-12
				c-4.2-4.4-7.5-8.4-10-12.2c-2.5-3.8-4.3-6.9-5.3-9.5c-1-2.6-1.6-4.1-1.6-4.5l25-6.9c0,0.2,0.8,2,2.5,5.5
				c1.7,3.4,4.8,7.1,9.4,11.1c4.6,4,10.9,7.6,18.9,10.8c8,3.2,18.5,4.8,31.4,4.8c15.2,0,26.9-0.9,35.2-2.8c8.2-1.9,14.3-4.2,18.1-7
				c3.9-2.8,6.1-5.9,6.7-9.2c0.6-3.3,0.9-6.5,0.9-9.4c0-1.3-0.3-3.1-0.9-5.6c-0.6-2.5-3-5-7-7.5c-4.1-2.5-10.4-4.8-19.1-6.9
				c-8.7-2.1-21-3.3-37-3.8c-6.9-0.2-14.9-0.7-24.1-1.6c-9.2-0.8-17.9-2.9-26.1-6.3c-8.2-3.3-15.2-8.4-20.8-15.3s-8.4-16.5-8.4-28.8
				c0-6.7,1.4-13.3,4.1-19.9c2.7-6.6,7-12.5,13-17.7c5.9-5.2,13.8-9.4,23.6-12.7c9.8-3.2,21.7-4.8,35.6-4.8c15.2,0,28,2,38.5,6.1
				c10.4,4.1,18.8,8.6,25.2,13.6c6.4,5,11,9.6,13.9,13.9c2.9,4.3,4.5,6.6,4.7,7l-22.8,11.9c-0.2-0.2-1.3-1.7-3.3-4.5
				c-2-2.8-5.3-5.9-10-9.2c-4.7-3.3-10.8-6.4-18.3-9.1c-7.5-2.7-16.8-4.1-27.8-4.1c-3.8,0-8.5,0.3-14.4,0.8
				c-5.8,0.5-11.4,1.8-16.7,3.9c-5.3,2.1-9.9,5.1-13.8,8.9c-3.9,3.9-5.8,9.1-5.8,15.8c0,4,0.7,7.5,2,10.6c1.4,3.1,4,5.7,8,7.8
				c4,2.1,9.5,3.8,16.7,5C1334.6,166.3,1343.9,167.2,1355.4,167.6z"/>
			<path class="st1" d="M1624.9,177.3v13.1h-133.5c1.5,19.6,7.1,34,16.9,43.1c9.8,9.2,24.2,13.8,43.1,13.8c3.5,0,7.2-0.4,10.9-1.1
				c3.8-0.7,7.5-1.8,11.3-3.1c3.8-1.4,7.3-3.1,10.6-5.3c3.3-2.2,6.3-4.8,8.8-8l20.3,16.6c-4,5-8.5,9.2-13.8,12.5
				c-5.2,3.3-10.6,6.1-16.1,8.3c-5.5,2.2-11.1,3.8-16.6,4.7c-5.5,0.9-10.7,1.4-15.5,1.4c-27.9,0-49.3-8-64.1-23.9
				c-14.8-15.9-22.2-39-22.2-69.3c0-4.8,0.5-10.4,1.4-16.7c0.9-6.4,2.6-13,5-19.9c2.4-6.9,5.7-13.7,9.8-20.5
				c4.2-6.8,9.4-12.8,15.8-18.1c6.4-5.3,14-9.6,23-13c9-3.3,19.4-5,31.3-5c10.8,0,20.2,1.6,28.1,4.8c7.9,3.2,14.6,7.4,20,12.5
				c5.4,5.1,9.8,10.9,13.1,17.5c3.3,6.6,5.9,13.2,7.7,20c1.8,6.8,3,13.2,3.6,19.4C1624.6,167.3,1624.9,172.7,1624.9,177.3z
				 M1598.3,164.5c-0.6-5.8-1.8-11.8-3.6-18c-1.8-6.1-4.4-11.7-8-16.7c-3.5-5-8.2-9.1-13.9-12.2c-5.7-3.1-12.9-4.7-21.4-4.7
				c-10.4,0-19.2,1.5-26.3,4.4c-7.1,2.9-12.9,6.8-17.5,11.6c-4.6,4.8-8.1,10.3-10.5,16.4c-2.4,6.2-4.1,12.6-5.2,19.2H1598.3z"/>
			<path class="st1" d="M1803.7,244.8c-15.4,19-39,28.5-70.7,28.5c-27.9,0-49.3-8-64.1-23.9c-14.8-15.9-22.2-39-22.2-69.3
				c0-13.5,1.8-26.1,5.5-37.5c3.6-11.5,9.1-21.3,16.3-29.5c7.2-8.2,16.2-14.6,27-19.2c10.8-4.6,23.3-6.9,37.5-6.9
				c23.6,0,42.8,5.9,57.8,17.8l-15.9,20.3c-10.2-8.1-24.2-12.2-41.9-12.2c-12.5,0-22.7,2.1-30.5,6.3c-7.8,4.2-14,9.5-18.4,15.9
				c-4.5,6.5-7.5,13.7-9.1,21.6c-1.6,7.9-2.3,15.7-2.3,23.4c0,22.9,4.8,39.9,14.5,50.8c9.7,10.9,25,16.4,45.8,16.4
				c23.6,0,40.3-6.3,50.3-18.8L1803.7,244.8z"/>
		</g>
		<line class="st2" x1="1206.3" y1="87" x2="1206.3" y2="186.5"/>
		<line class="st3" x1="1256.1" y1="136.7" x2="1156.5" y2="136.7"/>
		<line class="st2" x1="1256.1" y1="136.7" x2="1156.5" y2="136.7"/>
		<line class="st3" x1="1241.5" y1="171.9" x2="1171.1" y2="101.5"/>
		<line class="st2" x1="1241.5" y1="171.9" x2="1171.1" y2="101.5"/>
		<line class="st3" x1="1171.1" y1="171.9" x2="1241.5" y2="101.5"/>
		<line class="st2" x1="1171.1" y1="171.9" x2="1241.5" y2="101.5"/>
	</g>
</g>
</svg>
