<svg xmlns="http://www.w3.org/2000/svg" viewBox="0 0 109.96 18.01"><g id="Layer_2" data-name="Layer 2"><g id="Layer_1-2" data-name="Layer 1"><path d="M5.16,7.8l.92,0q.54,0,1.14.12a8.67,8.67,0,0,1,1.2.28,4.18,4.18,0,0,1,1.08.53,2.69,2.69,0,0,1,.78.83,2.43,2.43,0,0,1,.29,1.21,3.06,3.06,0,0,1-.28,1.38,2.75,2.75,0,0,1-.74.93,3.55,3.55,0,0,1-1,.56A5.79,5.79,0,0,1,7.36,14c-.39,0-.77.09-1.13.1l-.94,0a7.11,7.11,0,0,1-1.89-.22A5.76,5.76,0,0,1,2,13.33a3.91,3.91,0,0,1-1-.73,5.14,5.14,0,0,1-.61-.74,3.21,3.21,0,0,1-.32-.58A1.36,1.36,0,0,1,0,11l1.52-.42s.05.12.15.33a2.18,2.18,0,0,0,.57.67,4,4,0,0,0,1.15.66,5.09,5.09,0,0,0,1.9.29,9.81,9.81,0,0,0,2.14-.17A3,3,0,0,0,8.53,12a1,1,0,0,0,.41-.56A3.07,3.07,0,0,0,9,10.82a1.43,1.43,0,0,0-.06-.34A.83.83,0,0,0,8.51,10,4.23,4.23,0,0,0,7.35,9.6a11.54,11.54,0,0,0-2.24-.22c-.42,0-.91-.05-1.47-.1A5.62,5.62,0,0,1,2.06,8.9,3.06,3.06,0,0,1,.8,8,2.7,2.7,0,0,1,.29,6.22,3.21,3.21,0,0,1,.53,5,2.9,2.9,0,0,1,1.32,4a4.12,4.12,0,0,1,1.43-.77,6.89,6.89,0,0,1,2.17-.3,6.58,6.58,0,0,1,2.33.37,6.36,6.36,0,0,1,1.53.83,4.4,4.4,0,0,1,.84.84l.29.43-1.39.72-.2-.27a2.44,2.44,0,0,0-.61-.56A4.41,4.41,0,0,0,6.6,4.69a4.8,4.8,0,0,0-1.68-.25c-.23,0-.52,0-.88,0a3.47,3.47,0,0,0-1,.24,2.33,2.33,0,0,0-.84.54,1.29,1.29,0,0,0-.35,1A1.67,1.67,0,0,0,2,6.87a1,1,0,0,0,.49.47,3.56,3.56,0,0,0,1,.31A15.53,15.53,0,0,0,5.16,7.8Z"/><path d="M17.61,2.92a6.86,6.86,0,0,1,2.5.4,4.23,4.23,0,0,1,2.66,2.92,8.13,8.13,0,0,1,.31,2.34A7,7,0,0,1,22.7,11a5.05,5.05,0,0,1-1.07,1.77A4.44,4.44,0,0,1,20,13.84a5.66,5.66,0,0,1-2.14.39A3.83,3.83,0,0,1,16.47,14a4.55,4.55,0,0,1-2-1.52,5.23,5.23,0,0,1-.6-1l-.15,0V18H12.17V3.38h1.57V5.66h.15a5.67,5.67,0,0,1,1.56-2A3.43,3.43,0,0,1,17.61,2.92Zm0,9.74a4.32,4.32,0,0,0,1.94-.38,3.18,3.18,0,0,0,1.18-1A3.29,3.29,0,0,0,21.35,10a6.92,6.92,0,0,0,.15-1.42,4.41,4.41,0,0,0-.93-3.11,3.94,3.94,0,0,0-3-1,3.26,3.26,0,0,0-1.67.42A4.29,4.29,0,0,0,14,7.26a3.86,3.86,0,0,0-.25,1.3,4.32,4.32,0,0,0,.3,1.62,3.93,3.93,0,0,0,.84,1.3,3.86,3.86,0,0,0,2.75,1.18Z"/><path d="M33.44,6.81a4,4,0,0,1,.44.33,2.85,2.85,0,0,1,.6.72A4.83,4.83,0,0,1,35,9.06a5.85,5.85,0,0,1,.23,1.79v2.91H33.67V10.85c0-.31,0-.64,0-1a2.49,2.49,0,0,0-.27-.94c0,.25-.07.56-.13.93a6.75,6.75,0,0,1-.3,1.15,7.31,7.31,0,0,1-.54,1.18,4.55,4.55,0,0,1-.85,1.06,4,4,0,0,1-1.23.75,4.4,4.4,0,0,1-1.69.3A5.17,5.17,0,0,1,26.76,14a3.57,3.57,0,0,1-1.28-.84A3.25,3.25,0,0,1,24.73,12a3.7,3.7,0,0,1-.25-1.34,4.25,4.25,0,0,1,.36-1.69,4.48,4.48,0,0,1,1-1.49A5,5,0,0,1,27.5,6.39,5.4,5.4,0,0,1,29.68,6a10.48,10.48,0,0,1,1.15,0,6.71,6.71,0,0,1,1,.16c0-.09,0-.2,0-.34s0-.26,0-.39,0-.25,0-.36a1.74,1.74,0,0,1,0-.18H24.52V3.34h8.84c0,.54,0,1,0,1.5s0,.8,0,1.18S33.44,6.66,33.44,6.81Zm-4.82,5.92A3.14,3.14,0,0,0,30,12.48a2.68,2.68,0,0,0,.9-.68,3,3,0,0,0,.55-.94,7.31,7.31,0,0,0,.29-1.07,8.06,8.06,0,0,0,.13-1.06c0-.34,0-.65,0-.91a4.85,4.85,0,0,0-.94-.2,11.11,11.11,0,0,0-1.24-.07,5.62,5.62,0,0,0-1.15.13,3.34,3.34,0,0,0-1.18.46,2.76,2.76,0,0,0-.92.94,2.89,2.89,0,0,0-.37,1.55,1.85,1.85,0,0,0,.68,1.54A2.85,2.85,0,0,0,28.62,12.73Z"/><path d="M42.17,2.92a3.43,3.43,0,0,1,1.44.27,2.74,2.74,0,0,1,1,.72L43.42,5.09a1.4,1.4,0,0,0-.5-.43,1.6,1.6,0,0,0-.75-.16,3.07,3.07,0,0,0-1.54.39,3.9,3.9,0,0,0-1.16,1,5,5,0,0,0-.73,1.42,5.17,5.17,0,0,0-.25,1.59v4.84H36.91V3.36h1.58v2.3h.15a8.5,8.5,0,0,1,.53-1,4.33,4.33,0,0,1,.72-.88,3.66,3.66,0,0,1,1-.63A3.11,3.11,0,0,1,42.17,2.92Z"/><path d="M50.1,10.19l4.25,3.59H51.87l-4.25-3.63h-.18v3.61H45.87V0h1.57V6.91h.23l4.2-3.55h2.48l-6.18,5.2h.19Z"/><path d="M55.68,13.76V.47h1.58V13.76Z"/><path d="M68.64,8.39v.79h-8.1a3.86,3.86,0,0,0,1,2.62,3.7,3.7,0,0,0,2.62.84,3.11,3.11,0,0,0,.67-.07,4.32,4.32,0,0,0,.68-.19,3.27,3.27,0,0,0,.65-.32,2.4,2.4,0,0,0,.53-.48l1.23,1a3.31,3.31,0,0,1-.83.76,6,6,0,0,1-1,.5,4.8,4.8,0,0,1-1,.29,5.26,5.26,0,0,1-.94.08,5,5,0,0,1-3.89-1.45A6,6,0,0,1,59,8.56a6.68,6.68,0,0,1,.08-1,7.51,7.51,0,0,1,.3-1.2,7.12,7.12,0,0,1,.6-1.25,4.52,4.52,0,0,1,1-1.1,4.71,4.71,0,0,1,1.4-.78,5.2,5.2,0,0,1,1.89-.31,4.43,4.43,0,0,1,1.71.3A3.83,3.83,0,0,1,67.11,4,3.91,3.91,0,0,1,67.9,5a6.43,6.43,0,0,1,.47,1.21,9.64,9.64,0,0,1,.22,1.18C68.62,7.78,68.64,8.11,68.64,8.39ZM67,7.61a6.38,6.38,0,0,0-.22-1.09,3.67,3.67,0,0,0-.48-1,2.55,2.55,0,0,0-.85-.74,2.69,2.69,0,0,0-1.3-.28,4.34,4.34,0,0,0-1.59.26,3,3,0,0,0-1.7,1.7,5.32,5.32,0,0,0-.31,1.17Z"/><path d="M82.74,7.8l.92,0q.54,0,1.14.12a8.67,8.67,0,0,1,1.2.28,4.18,4.18,0,0,1,1.08.53,2.69,2.69,0,0,1,.78.83,2.43,2.43,0,0,1,.29,1.21,3.06,3.06,0,0,1-.28,1.38,2.75,2.75,0,0,1-.74.93,3.55,3.55,0,0,1-1,.56,5.79,5.79,0,0,1-1.16.29c-.39,0-.76.09-1.12.1l-.94,0a7.14,7.14,0,0,1-1.9-.22,5.92,5.92,0,0,1-1.41-.55,3.91,3.91,0,0,1-1-.73,5.14,5.14,0,0,1-.61-.74,3.21,3.21,0,0,1-.32-.58,1.36,1.36,0,0,1-.1-.27l1.52-.42.15.33a2.18,2.18,0,0,0,.57.67,4,4,0,0,0,1.15.66,5.12,5.12,0,0,0,1.91.29A9.77,9.77,0,0,0,85,12.37a3,3,0,0,0,1.1-.42.92.92,0,0,0,.41-.56,3.07,3.07,0,0,0,.06-.57,1.43,1.43,0,0,0-.06-.34.83.83,0,0,0-.43-.46,4.23,4.23,0,0,0-1.16-.42,11.54,11.54,0,0,0-2.24-.22c-.42,0-.91-.05-1.47-.1a5.62,5.62,0,0,1-1.58-.38A3.06,3.06,0,0,1,78.38,8a2.7,2.7,0,0,1-.51-1.75A3.21,3.21,0,0,1,78.11,5,2.9,2.9,0,0,1,78.9,4a4.12,4.12,0,0,1,1.43-.77,6.89,6.89,0,0,1,2.17-.3,6.58,6.58,0,0,1,2.33.37,6.36,6.36,0,0,1,1.53.83,4.12,4.12,0,0,1,.84.84l.29.43-1.39.72-.2-.27a2.44,2.44,0,0,0-.61-.56,4.5,4.5,0,0,0-1.1-.55,4.9,4.9,0,0,0-1.69-.25c-.23,0-.52,0-.88,0a3.47,3.47,0,0,0-1,.24,2.33,2.33,0,0,0-.84.54,1.29,1.29,0,0,0-.35,1,1.67,1.67,0,0,0,.12.65,1,1,0,0,0,.49.47,3.56,3.56,0,0,0,1,.31A15.53,15.53,0,0,0,82.74,7.8Z"/><path d="M99.1,8.39v.79H91a3.86,3.86,0,0,0,1,2.62,3.7,3.7,0,0,0,2.62.84,3.11,3.11,0,0,0,.67-.07,4.64,4.64,0,0,0,.68-.19,3,3,0,0,0,.64-.32,2.24,2.24,0,0,0,.54-.48l1.23,1a3.19,3.19,0,0,1-.84.76,5.57,5.57,0,0,1-1,.5,4.8,4.8,0,0,1-1,.29,5.26,5.26,0,0,1-.94.08,5,5,0,0,1-3.89-1.45,6,6,0,0,1-1.35-4.2,6.83,6.83,0,0,1,.09-1,7.51,7.51,0,0,1,.3-1.2,7.12,7.12,0,0,1,.6-1.25,4.52,4.52,0,0,1,1-1.1,4.66,4.66,0,0,1,1.39-.78,5.29,5.29,0,0,1,1.9-.31,4.43,4.43,0,0,1,1.71.3,3.81,3.81,0,0,1,2,1.82,6.43,6.43,0,0,1,.47,1.21A8,8,0,0,1,99,7.41,9.29,9.29,0,0,1,99.1,8.39Zm-1.61-.78a6.38,6.38,0,0,0-.22-1.09,3.67,3.67,0,0,0-.48-1,2.55,2.55,0,0,0-.85-.74,2.69,2.69,0,0,0-1.3-.28,4.34,4.34,0,0,0-1.59.26A3.18,3.18,0,0,0,92,5.45a3,3,0,0,0-.63,1A5.32,5.32,0,0,0,91,7.61Z"/><path d="M110,12.49a5.21,5.21,0,0,1-4.29,1.72,5,5,0,0,1-3.89-1.45,6,6,0,0,1-1.35-4.2,7.57,7.57,0,0,1,.33-2.28,5,5,0,0,1,1-1.79,4.46,4.46,0,0,1,1.64-1.17,5.8,5.8,0,0,1,2.28-.42A5.43,5.43,0,0,1,109.18,4l-1,1.23a4,4,0,0,0-2.54-.74,3.94,3.94,0,0,0-1.85.38,3,3,0,0,0-1.12,1,3.33,3.33,0,0,0-.55,1.31A6.92,6.92,0,0,0,102,8.56a4.53,4.53,0,0,0,.89,3.08,3.51,3.51,0,0,0,2.78,1,3.67,3.67,0,0,0,3-1.14Z"/><rect x="72.76" y="2.91" width="0.71" height="6.04"/><line x1="76.13" y1="5.93" x2="70.09" y2="5.93"/><rect x="70.09" y="5.58" width="6.04" height="0.71"/><line x1="75.24" y1="8.06" x2="70.97" y2="3.79"/><rect x="72.76" y="2.91" width="0.71" height="6.04" transform="translate(17.22 53.43) rotate(-45)"/><line x1="70.97" y1="8.06" x2="75.24" y2="3.79"/><rect x="70.09" y="5.58" width="6.04" height="0.71" transform="translate(17.22 53.44) rotate(-45)"/></g></g></svg>