<svg xmlns="http://www.w3.org/2000/svg" xml:space="preserve" id="Layer_1" x="0" y="0" style="enable-background:new 0 0 1826.8 345.2" version="1.1" viewBox="0 0 1826.8 345.2"><style>.st1{fill:#fff}.st2{stroke:#f7ff6e;stroke-width:11;stroke-miterlimit:10}.st2,.st3{fill:none}</style><g id="Layer_2_1_"><g id="Layer_1-2"><g style="enable-background:new"><path d="M86.9 167.6c4.2.2 9.2.5 15.2.8s12.2 1 18.8 2c6.6 1 13.1 2.6 19.7 4.7s12.5 5 17.8 8.6c5.3 3.6 9.6 8.2 12.8 13.8 3.2 5.5 4.8 12.1 4.8 19.9 0 9-1.6 16.6-4.7 22.8-3.1 6.3-7.2 11.4-12.2 15.3-5 4-10.6 7-16.9 9.2-6.3 2.2-12.6 3.8-19.1 4.7-6.5.9-12.7 1.5-18.6 1.7-5.9.2-11.1.3-15.5.3-11.9 0-22.3-1.2-31.3-3.6-9-2.4-16.7-5.4-23.1-9.1-6.5-3.6-11.8-7.7-15.9-12-4.2-4.4-7.5-8.4-10-12.2-2.5-3.8-4.3-6.9-5.3-9.5-1-2.6-1.6-4.1-1.6-4.5l25-6.9c0 .2.8 2 2.5 5.5 1.7 3.4 4.8 7.1 9.4 11.1 4.6 4 10.9 7.6 18.9 10.8 8 3.2 18.5 4.8 31.4 4.8 15.2 0 26.9-.9 35.2-2.8 8.2-1.9 14.3-4.2 18.1-7 3.9-2.8 6.1-5.9 6.7-9.2.6-3.3.9-6.5.9-9.4 0-1.3-.3-3.1-.9-5.6-.6-2.5-3-5-7-7.5-4.1-2.5-10.4-4.8-19.1-6.9-8.7-2.1-21-3.3-37.1-3.8-6.9-.2-14.9-.7-24.1-1.6-9.2-.8-17.9-2.9-26.1-6.3-8.2-3.3-15.2-8.4-20.8-15.3s-8.4-16.5-8.4-28.8c0-6.7 1.4-13.3 4.1-19.9 2.7-6.6 7-12.5 13-17.7 5.9-5.2 13.8-9.4 23.6-12.7 9.8-3.2 21.7-4.8 35.6-4.8 15.2 0 28 2 38.5 6.1 10.4 4.1 18.8 8.6 25.2 13.6 6.4 5 11 9.6 13.9 13.9 2.9 4.3 4.5 6.6 4.7 7L142.2 139c-.2-.2-1.3-1.7-3.3-4.5-2-2.8-5.3-5.9-10-9.2-4.7-3.3-10.8-6.4-18.3-9.1-7.5-2.7-16.8-4.1-27.8-4.1-3.8 0-8.5.3-14.4.8-5.8.5-11.4 1.8-16.7 3.9-5.3 2.1-9.9 5.1-13.8 8.9-3.9 3.9-5.8 9.1-5.8 15.8 0 4 .7 7.5 2 10.6 1.4 3.1 4 5.7 8 7.8 4 2.1 9.5 3.8 16.7 5 7.3 1.4 16.7 2.3 28.1 2.7zM292 87.2c16 0 29.8 2.2 41.1 6.6 11.4 4.4 20.7 10.6 28 18.8 7.3 8.1 12.6 17.9 15.9 29.4 3.3 11.5 5 24.3 5 38.5 0 14.6-2.1 27.6-6.3 39.1-4.2 11.5-10 21.2-17.5 29.2S341.6 263 331 267.2c-10.6 4.3-22.4 6.4-35.3 6.4-8.1 0-15.6-1.4-22.5-4.1-6.9-2.7-13-6.2-18.4-10.5-5.4-4.3-10.2-9.1-14.2-14.5-4.1-5.4-7.3-10.8-9.8-16.3l-2.5-.3v107.9h-26V94.7h26v37.5h2.5c6.7-13.8 15.2-24.7 25.6-32.8 10.4-8.1 22.3-12.2 35.6-12.2zm.6 160.4c13.1 0 23.8-2.1 32-6.3 8.2-4.2 14.7-9.5 19.4-15.9 4.7-6.5 7.9-13.6 9.5-21.6 1.7-7.9 2.5-15.7 2.5-23.5 0-23.3-5.1-40.4-15.3-51.1-10.2-10.7-26.5-16.1-48.8-16.1-10.4 0-19.6 2.3-27.5 6.9-7.9 4.6-14.5 10.2-19.9 16.9-5.3 6.7-9.3 13.9-12 21.7-2.7 7.8-4.1 15-4.1 21.4 0 9.6 1.7 18.5 5 26.7s7.9 15.4 13.8 21.4c5.8 6 12.7 10.8 20.5 14.2s16.2 5.3 24.9 5.3zM555.9 217.9c0 5.8 1 10.7 3 14.5 2 3.9 4.2 6.9 6.7 9.1 2.5 2.2 4.8 3.7 7 4.5 2.2.8 3.5 1.4 3.9 1.6l-5.9 25.3c-2.5-.6-5.3-1.7-8.3-3.3-3-1.6-6.1-3.5-9.2-5.9-3.1-2.4-6.2-5.2-9.1-8.4-2.9-3.2-5.5-6.9-7.8-11.1h-3.8c-1.9 1.9-4.2 4.5-6.9 7.8s-6.3 6.7-10.6 10.2c-4.4 3.4-9.6 6.4-15.6 8.9s-13.3 3.8-21.9 3.8c-11.9 0-22.4-2.1-31.6-6.3-9.2-4.2-16.9-9.6-23.1-16.4-6.3-6.8-11-14.4-14.2-22.8-3.2-8.4-4.8-17-4.8-25.8 0-7.9 1.4-15.8 4.1-23.6 2.7-7.8 7-14.9 12.8-21.1 5.8-6.3 13.4-11.4 22.7-15.3 9.3-4 20.6-5.9 33.9-5.9 8.1 0 15.3 1.5 21.4 4.4 6.1 2.9 11.3 6.2 15.5 9.7 5 4.4 9.3 9.2 12.8 14.4h3.4c-.8-6.7-2.4-13.2-4.7-19.5-2.3-6.4-5.7-12-10.3-17-4.6-5-10.5-9-17.7-12-7.2-3-16.1-4.5-26.7-4.5-17.5 0-31.5 4.1-41.9 12.2l-16-20.7c15-11.9 34.3-17.8 57.8-17.8 16.9 0 30.9 2.7 42.1 8 11.1 5.3 20 12.4 26.6 21.1 6.6 8.8 11.1 18.7 13.8 29.9 2.6 11.2 3.9 22.6 3.9 34.2-.2 6-.4 11.6-.6 16.6-.2 4.4-.4 8.6-.5 12.7-.1 4-.2 6.9-.2 8.5zm-78.5 31c10 0 18.3-1.5 25-4.4 6.7-2.9 12-6.6 15.9-10.9 4-4.4 6.7-9.1 8.3-14.1 1.6-5 2.3-9.5 2.3-13.4 0-5.2-1.2-10.4-3.6-15.5-2.4-5.1-5.8-9.6-10.3-13.6-4.5-4-10-7.2-16.4-9.7-6.5-2.5-13.7-3.8-21.6-3.8-4 0-8.7.6-14.1 1.7s-10.6 3.2-15.6 6.3c-5 3-9.2 7.1-12.7 12.3-3.4 5.2-5.2 11.8-5.2 19.7 0 5.6 1 11.2 3.1 16.6 2.1 5.4 5.1 10.3 9.1 14.5 4 4.3 9 7.7 15 10.3 6.2 2.7 13.1 4 20.8 4zM686.9 87.2c9.4 0 17.3 1.5 23.8 4.4 6.5 2.9 11.8 6.9 15.9 11.9l-19.1 19.4c-2.1-2.9-4.8-5.3-8.3-7-3.4-1.8-7.6-2.7-12.3-2.7-9.4 0-17.8 2.1-25.3 6.4-7.5 4.3-13.9 9.9-19.1 16.9-5.2 7-9.2 14.8-12 23.5-2.8 8.7-4.2 17.4-4.2 26.1v79.7h-26V94.4h26v37.8h2.5c2.5-5.4 5.4-10.8 8.8-16.1 3.3-5.3 7.3-10.1 11.9-14.4 4.6-4.3 10-7.8 16.1-10.5 6-2.6 13.2-4 21.3-4zM817.6 207l70 59.1h-41l-70-59.7h-2.8v59.4h-26V39.1h26v113.8h3.8l69.1-58.5h41l-101.9 85.7h3.1l28.7 26.9zM909.5 265.8V46.9h26v218.9h-26zM1123.1 177.3v13.1H989.6c1.5 19.6 7.1 34 16.9 43.1 9.8 9.2 24.2 13.8 43.1 13.8 3.5 0 7.2-.4 10.9-1.1 3.8-.7 7.5-1.8 11.3-3.1 3.8-1.4 7.3-3.1 10.6-5.3 3.3-2.2 6.3-4.8 8.8-8l20.3 16.6c-4 5-8.5 9.2-13.8 12.5-5.2 3.3-10.6 6.1-16.1 8.3-5.5 2.2-11.1 3.8-16.6 4.7-5.5.9-10.7 1.4-15.5 1.4-27.9 0-49.3-8-64.1-23.9-14.8-15.9-22.2-39-22.2-69.3 0-4.8.5-10.4 1.4-16.7.9-6.4 2.6-13 5-19.9 2.4-6.9 5.7-13.7 9.8-20.5 4.2-6.8 9.4-12.8 15.8-18.1 6.4-5.3 14-9.6 23-13 9-3.3 19.4-5 31.3-5 10.8 0 20.2 1.6 28.1 4.8 7.9 3.2 14.6 7.4 20 12.5s9.8 10.9 13.1 17.5c3.3 6.6 5.9 13.2 7.7 20 1.8 6.8 3 13.2 3.6 19.4.8 6.2 1.1 11.6 1.1 16.2zm-26.6-12.8c-.6-5.8-1.8-11.8-3.6-18-1.8-6.1-4.4-11.7-8-16.7-3.5-5-8.2-9.1-13.9-12.2-5.7-3.1-12.9-4.7-21.4-4.7-10.4 0-19.2 1.5-26.3 4.4-7.1 2.9-12.9 6.8-17.5 11.6s-8.1 10.3-10.5 16.4c-2.4 6.2-4.1 12.6-5.2 19.2h106.4zM1355.4 167.6c4.2.2 9.2.5 15.2.8 5.9.3 12.2 1 18.8 2 6.6 1 13.1 2.6 19.7 4.7s12.5 5 17.8 8.6c5.3 3.6 9.6 8.2 12.8 13.8 3.2 5.5 4.8 12.1 4.8 19.9 0 9-1.6 16.6-4.7 22.8-3.1 6.3-7.2 11.4-12.2 15.3-5 4-10.6 7-16.9 9.2-6.3 2.2-12.6 3.8-19.1 4.7-6.5.9-12.7 1.5-18.6 1.7-5.9.2-11.1.3-15.5.3-11.9 0-22.3-1.2-31.3-3.6-9-2.4-16.7-5.4-23.1-9.1-6.5-3.6-11.8-7.7-15.9-12-4.2-4.4-7.5-8.4-10-12.2-2.5-3.8-4.3-6.9-5.3-9.5-1-2.6-1.6-4.1-1.6-4.5l25-6.9c0 .2.8 2 2.5 5.5 1.7 3.4 4.8 7.1 9.4 11.1 4.6 4 10.9 7.6 18.9 10.8 8 3.2 18.5 4.8 31.4 4.8 15.2 0 26.9-.9 35.2-2.8 8.2-1.9 14.3-4.2 18.1-7 3.9-2.8 6.1-5.9 6.7-9.2.6-3.3.9-6.5.9-9.4 0-1.3-.3-3.1-.9-5.6-.6-2.5-3-5-7-7.5-4.1-2.5-10.4-4.8-19.1-6.9-8.7-2.1-21-3.3-37-3.8-6.9-.2-14.9-.7-24.1-1.6-9.2-.8-17.9-2.9-26.1-6.3-8.2-3.3-15.2-8.4-20.8-15.3s-8.4-16.5-8.4-28.8c0-6.7 1.4-13.3 4.1-19.9 2.7-6.6 7-12.5 13-17.7 5.9-5.2 13.8-9.4 23.6-12.7 9.8-3.2 21.7-4.8 35.6-4.8 15.2 0 28 2 38.5 6.1 10.4 4.1 18.8 8.6 25.2 13.6 6.4 5 11 9.6 13.9 13.9 2.9 4.3 4.5 6.6 4.7 7l-22.8 11.9c-.2-.2-1.3-1.7-3.3-4.5-2-2.8-5.3-5.9-10-9.2-4.7-3.3-10.8-6.4-18.3-9.1-7.5-2.7-16.8-4.1-27.8-4.1-3.8 0-8.5.3-14.4.8-5.8.5-11.4 1.8-16.7 3.9-5.3 2.1-9.9 5.1-13.8 8.9-3.9 3.9-5.8 9.1-5.8 15.8 0 4 .7 7.5 2 10.6 1.4 3.1 4 5.7 8 7.8 4 2.1 9.5 3.8 16.7 5 7.2 1.4 16.5 2.3 28 2.7zM1624.9 177.3v13.1h-133.5c1.5 19.6 7.1 34 16.9 43.1 9.8 9.2 24.2 13.8 43.1 13.8 3.5 0 7.2-.4 10.9-1.1 3.8-.7 7.5-1.8 11.3-3.1 3.8-1.4 7.3-3.1 10.6-5.3 3.3-2.2 6.3-4.8 8.8-8l20.3 16.6c-4 5-8.5 9.2-13.8 12.5-5.2 3.3-10.6 6.1-16.1 8.3-5.5 2.2-11.1 3.8-16.6 4.7-5.5.9-10.7 1.4-15.5 1.4-27.9 0-49.3-8-64.1-23.9-14.8-15.9-22.2-39-22.2-69.3 0-4.8.5-10.4 1.4-16.7.9-6.4 2.6-13 5-19.9 2.4-6.9 5.7-13.7 9.8-20.5 4.2-6.8 9.4-12.8 15.8-18.1 6.4-5.3 14-9.6 23-13 9-3.3 19.4-5 31.3-5 10.8 0 20.2 1.6 28.1 4.8 7.9 3.2 14.6 7.4 20 12.5s9.8 10.9 13.1 17.5c3.3 6.6 5.9 13.2 7.7 20 1.8 6.8 3 13.2 3.6 19.4.8 6.2 1.1 11.6 1.1 16.2zm-26.6-12.8c-.6-5.8-1.8-11.8-3.6-18-1.8-6.1-4.4-11.7-8-16.7-3.5-5-8.2-9.1-13.9-12.2-5.7-3.1-12.9-4.7-21.4-4.7-10.4 0-19.2 1.5-26.3 4.4-7.1 2.9-12.9 6.8-17.5 11.6s-8.1 10.3-10.5 16.4c-2.4 6.2-4.1 12.6-5.2 19.2h106.4zM1803.7 244.8c-15.4 19-39 28.5-70.7 28.5-27.9 0-49.3-8-64.1-23.9-14.8-15.9-22.2-39-22.2-69.3 0-13.5 1.8-26.1 5.5-37.5 3.6-11.5 9.1-21.3 16.3-29.5 7.2-8.2 16.2-14.6 27-19.2s23.3-6.9 37.5-6.9c23.6 0 42.8 5.9 57.8 17.8l-15.9 20.3c-10.2-8.1-24.2-12.2-41.9-12.2-12.5 0-22.7 2.1-30.5 6.3-7.8 4.2-14 9.5-18.4 15.9-4.5 6.5-7.5 13.7-9.1 21.6-1.6 7.9-2.3 15.7-2.3 23.4 0 22.9 4.8 39.9 14.5 50.8 9.7 10.9 25 16.4 45.8 16.4 23.6 0 40.3-6.3 50.3-18.8l20.4 16.3z" class="st1"/></g><path d="M1206.3 87v99.5" class="st2"/><path d="M1256.1 136.7h-99.6" class="st3"/><path d="M1256.1 136.7h-99.6" class="st2"/><path d="m1241.5 171.9-70.4-70.4" class="st3"/><path d="m1241.5 171.9-70.4-70.4" class="st2"/><path d="m1171.1 171.9 70.4-70.4" class="st3"/><path d="m1171.1 171.9 70.4-70.4" class="st2"/></g></g></svg>