<svg xmlns="http://www.w3.org/2000/svg" viewBox="0 0 109.96 18.01"><g fill="#fff" data-name="Layer 2"><g data-name="Layer 1"><path d="M5.16 7.8h.92q.54 0 1.14.12a8.67 8.67 0 0 1 1.2.28 4.18 4.18 0 0 1 1.08.53 2.69 2.69 0 0 1 .78.83 2.43 2.43 0 0 1 .29 1.21 3.06 3.06 0 0 1-.28 1.38 2.75 2.75 0 0 1-.74.93 3.55 3.55 0 0 1-1 .56 5.79 5.79 0 0 1-1.19.36c-.39 0-.77.09-1.13.1h-.94a7.11 7.11 0 0 1-1.89-.22 5.76 5.76 0 0 1-1.4-.55 3.91 3.91 0 0 1-1-.73 5.14 5.14 0 0 1-.61-.74 3.21 3.21 0 0 1-.32-.58A1.36 1.36 0 0 1 0 11l1.52-.42s.05.12.15.33a2.18 2.18 0 0 0 .57.67 4 4 0 0 0 1.15.66 5.09 5.09 0 0 0 1.9.29 9.81 9.81 0 0 0 2.14-.17 3 3 0 0 0 1.1-.36 1 1 0 0 0 .41-.56 3.07 3.07 0 0 0 .06-.62 1.43 1.43 0 0 0-.06-.34.83.83 0 0 0-.43-.48 4.23 4.23 0 0 0-1.16-.4 11.54 11.54 0 0 0-2.24-.22c-.42 0-.91-.05-1.47-.1a5.62 5.62 0 0 1-1.58-.38A3.06 3.06 0 0 1 .8 8a2.7 2.7 0 0 1-.51-1.78A3.21 3.21 0 0 1 .53 5a2.9 2.9 0 0 1 .79-1 4.12 4.12 0 0 1 1.43-.77 6.89 6.89 0 0 1 2.17-.3 6.58 6.58 0 0 1 2.33.37 6.36 6.36 0 0 1 1.53.83 4.4 4.4 0 0 1 .84.84l.29.43-1.39.72-.2-.27a2.44 2.44 0 0 0-.61-.56 4.41 4.41 0 0 0-1.11-.6 4.8 4.8 0 0 0-1.68-.25h-.88a3.47 3.47 0 0 0-1 .24 2.33 2.33 0 0 0-.84.54 1.29 1.29 0 0 0-.35 1 1.67 1.67 0 0 0 .15.65 1 1 0 0 0 .49.47 3.56 3.56 0 0 0 1 .31 15.53 15.53 0 0 0 1.67.15ZM17.61 2.92a6.86 6.86 0 0 1 2.5.4 4.23 4.23 0 0 1 2.66 2.92 8.13 8.13 0 0 1 .31 2.34A7 7 0 0 1 22.7 11a5.05 5.05 0 0 1-1.07 1.77A4.44 4.44 0 0 1 20 13.84a5.66 5.66 0 0 1-2.14.39 3.83 3.83 0 0 1-1.39-.23 4.55 4.55 0 0 1-2-1.52 5.23 5.23 0 0 1-.6-1h-.15V18h-1.55V3.38h1.57v2.28h.15a5.67 5.67 0 0 1 1.56-2 3.43 3.43 0 0 1 2.16-.74Zm0 9.74a4.32 4.32 0 0 0 1.94-.38 3.18 3.18 0 0 0 1.18-1 3.29 3.29 0 0 0 .62-1.28 6.92 6.92 0 0 0 .15-1.42 4.41 4.41 0 0 0-.93-3.11 3.94 3.94 0 0 0-3-1 3.26 3.26 0 0 0-1.67.42A4.29 4.29 0 0 0 14 7.26a3.86 3.86 0 0 0-.25 1.3 4.32 4.32 0 0 0 .3 1.62 3.93 3.93 0 0 0 .84 1.3 3.86 3.86 0 0 0 2.75 1.18ZM33.44 6.81a4 4 0 0 1 .44.33 2.85 2.85 0 0 1 .6.72 4.83 4.83 0 0 1 .52 1.2 5.85 5.85 0 0 1 .23 1.79v2.91h-1.56V9.85a2.49 2.49 0 0 0-.27-.94c0 .25-.07.56-.13.93a6.75 6.75 0 0 1-.3 1.15 7.31 7.31 0 0 1-.54 1.18 4.55 4.55 0 0 1-.85 1.06 4 4 0 0 1-1.23.75 4.4 4.4 0 0 1-1.69.3 5.17 5.17 0 0 1-1.9-.28 3.57 3.57 0 0 1-1.28-.84 3.25 3.25 0 0 1-.75-1.16 3.7 3.7 0 0 1-.25-1.34 4.25 4.25 0 0 1 .36-1.69 4.48 4.48 0 0 1 1-1.49 5 5 0 0 1 1.66-1.09A5.4 5.4 0 0 1 29.68 6a10.48 10.48 0 0 1 1.15 0 6.71 6.71 0 0 1 1 .16V5.07a1.74 1.74 0 0 1 0-.18h-7.31V3.34h8.84V6.02c0 .38.08.64.08.79Zm-4.82 5.92a3.14 3.14 0 0 0 1.38-.25 2.68 2.68 0 0 0 .9-.68 3 3 0 0 0 .55-.94 7.31 7.31 0 0 0 .29-1.07 8.06 8.06 0 0 0 .13-1.06v-.91a4.85 4.85 0 0 0-.94-.2 11.11 11.11 0 0 0-1.24-.07 5.62 5.62 0 0 0-1.15.13 3.34 3.34 0 0 0-1.18.46 2.76 2.76 0 0 0-.92.94 2.89 2.89 0 0 0-.37 1.55 1.85 1.85 0 0 0 .68 1.54 2.85 2.85 0 0 0 1.87.56ZM42.17 2.92a3.43 3.43 0 0 1 1.44.27 2.74 2.74 0 0 1 1 .72l-1.19 1.18a1.4 1.4 0 0 0-.5-.43 1.6 1.6 0 0 0-.75-.16 3.07 3.07 0 0 0-1.54.39 3.9 3.9 0 0 0-1.16 1 5 5 0 0 0-.73 1.42 5.17 5.17 0 0 0-.25 1.59v4.84h-1.58V3.36h1.58v2.3h.15a8.5 8.5 0 0 1 .53-1 4.33 4.33 0 0 1 .72-.88 3.66 3.66 0 0 1 1-.63 3.11 3.11 0 0 1 1.28-.23ZM50.1 10.19l4.25 3.59h-2.48l-4.25-3.63h-.18v3.61h-1.57V0h1.57v6.91h.23l4.2-3.55h2.48l-6.18 5.2h.19ZM55.68 13.76V.47h1.58v13.29ZM68.64 8.39v.79h-8.1a3.86 3.86 0 0 0 1 2.62 3.7 3.7 0 0 0 2.62.84 3.11 3.11 0 0 0 .67-.07 4.32 4.32 0 0 0 .68-.19 3.27 3.27 0 0 0 .65-.32 2.4 2.4 0 0 0 .53-.48l1.23 1a3.31 3.31 0 0 1-.83.76 6 6 0 0 1-1 .5 4.8 4.8 0 0 1-1 .29 5.26 5.26 0 0 1-.94.08 5 5 0 0 1-3.89-1.45A6 6 0 0 1 59 8.56a6.68 6.68 0 0 1 .08-1 7.51 7.51 0 0 1 .3-1.2 7.12 7.12 0 0 1 .6-1.25 4.52 4.52 0 0 1 1-1.1 4.71 4.71 0 0 1 1.4-.78 5.2 5.2 0 0 1 1.89-.31 4.43 4.43 0 0 1 1.71.3 3.83 3.83 0 0 1 1.13.78 3.91 3.91 0 0 1 .79 1 6.43 6.43 0 0 1 .47 1.21 9.64 9.64 0 0 1 .22 1.18c.03.39.05.72.05 1ZM67 7.61a6.38 6.38 0 0 0-.22-1.09 3.67 3.67 0 0 0-.48-1 2.55 2.55 0 0 0-.85-.74 2.69 2.69 0 0 0-1.3-.28 4.34 4.34 0 0 0-1.59.26 3 3 0 0 0-1.7 1.7 5.32 5.32 0 0 0-.31 1.17ZM82.74 7.8h.92q.54 0 1.14.12a8.67 8.67 0 0 1 1.2.28 4.18 4.18 0 0 1 1.08.53 2.69 2.69 0 0 1 .78.83 2.43 2.43 0 0 1 .29 1.21 3.06 3.06 0 0 1-.28 1.38 2.75 2.75 0 0 1-.74.93 3.55 3.55 0 0 1-1 .56 5.79 5.79 0 0 1-1.16.29c-.39 0-.76.09-1.12.1h-.94a7.14 7.14 0 0 1-1.9-.22 5.92 5.92 0 0 1-1.41-.55 3.91 3.91 0 0 1-1-.73 5.14 5.14 0 0 1-.61-.74 3.21 3.21 0 0 1-.32-.58 1.36 1.36 0 0 1-.1-.27l1.52-.42.15.33a2.18 2.18 0 0 0 .57.67 4 4 0 0 0 1.15.66 5.12 5.12 0 0 0 1.91.29 9.77 9.77 0 0 0 2.13-.1 3 3 0 0 0 1.1-.42.92.92 0 0 0 .41-.56 3.07 3.07 0 0 0 .06-.57 1.43 1.43 0 0 0-.06-.34.83.83 0 0 0-.43-.46 4.23 4.23 0 0 0-1.16-.42 11.54 11.54 0 0 0-2.24-.22c-.42 0-.91-.05-1.47-.1a5.62 5.62 0 0 1-1.58-.38 3.06 3.06 0 0 1-1.25-.9 2.7 2.7 0 0 1-.51-1.75A3.21 3.21 0 0 1 78.11 5a2.9 2.9 0 0 1 .79-1 4.12 4.12 0 0 1 1.43-.77 6.89 6.89 0 0 1 2.17-.3 6.58 6.58 0 0 1 2.33.37 6.36 6.36 0 0 1 1.53.83 4.12 4.12 0 0 1 .84.84l.29.43-1.39.72-.2-.27a2.44 2.44 0 0 0-.61-.56 4.5 4.5 0 0 0-1.1-.55 4.9 4.9 0 0 0-1.69-.25h-.88a3.47 3.47 0 0 0-1 .24 2.33 2.33 0 0 0-.84.54 1.29 1.29 0 0 0-.35 1 1.67 1.67 0 0 0 .12.65 1 1 0 0 0 .49.47 3.56 3.56 0 0 0 1 .31 15.53 15.53 0 0 0 1.7.1ZM99.1 8.39v.79H91a3.86 3.86 0 0 0 1 2.62 3.7 3.7 0 0 0 2.62.84 3.11 3.11 0 0 0 .67-.07 4.64 4.64 0 0 0 .68-.19 3 3 0 0 0 .64-.32 2.24 2.24 0 0 0 .54-.48l1.23 1a3.19 3.19 0 0 1-.84.76 5.57 5.57 0 0 1-1 .5 4.8 4.8 0 0 1-1 .29 5.26 5.26 0 0 1-.94.08 5 5 0 0 1-3.89-1.45 6 6 0 0 1-1.35-4.2 6.83 6.83 0 0 1 .09-1 7.51 7.51 0 0 1 .3-1.2 7.12 7.12 0 0 1 .6-1.25 4.52 4.52 0 0 1 1-1.1 4.66 4.66 0 0 1 1.39-.78 5.29 5.29 0 0 1 1.9-.31 4.43 4.43 0 0 1 1.71.3 3.81 3.81 0 0 1 2 1.82 6.43 6.43 0 0 1 .47 1.21A8 8 0 0 1 99 7.41a9.29 9.29 0 0 1 .1.98Zm-1.61-.78a6.38 6.38 0 0 0-.22-1.09 3.67 3.67 0 0 0-.48-1 2.55 2.55 0 0 0-.85-.74 2.69 2.69 0 0 0-1.3-.28 4.34 4.34 0 0 0-1.59.26 3.18 3.18 0 0 0-1.05.69 3 3 0 0 0-.63 1A5.32 5.32 0 0 0 91 7.61ZM110 12.49a5.21 5.21 0 0 1-4.29 1.72 5 5 0 0 1-3.89-1.45 6 6 0 0 1-1.35-4.2 7.57 7.57 0 0 1 .33-2.28 5 5 0 0 1 1-1.79 4.46 4.46 0 0 1 1.64-1.17 5.8 5.8 0 0 1 2.28-.42 5.43 5.43 0 0 1 3.46 1.1l-1 1.23a4 4 0 0 0-2.54-.74 3.94 3.94 0 0 0-1.85.38 3 3 0 0 0-1.12 1 3.33 3.33 0 0 0-.55 1.31 6.92 6.92 0 0 0-.12 1.38 4.53 4.53 0 0 0 .89 3.08 3.51 3.51 0 0 0 2.78 1 3.67 3.67 0 0 0 3-1.14Z"/><path fill="#f7ff6e" d="M72.76 2.91h.71v6.04h-.71z"/><path d="M76.13 5.93h-6.04"/><path fill="#f7ff6e" d="M70.09 5.58h6.04v.71h-6.04z"/><path d="m75.24 8.06-4.27-4.27"/><path fill="#f7ff6e" d="m70.727 4.039.502-.502 4.27 4.27-.501.503z"/><path d="m70.97 8.06 4.27-4.27"/><path fill="#f7ff6e" d="m70.727 7.825 4.27-4.271.503.502-4.271 4.27z"/></g></g></svg>